{"glyphs":{"0":{"ha":663,"x_min":40,"x_max":622,"o":"m 333 -18 q 182 19 249 -18 q 78 123 115 57 q 40 271 40 189 q 78 417 40 353 q 182 518 115 482 q 333 554 249 554 q 483 517 418 554 q 585 415 549 481 q 622 268 622 350 q 585 121 622 186 q 483 19 549 56 q 333 -18 417 -18 m 347 8 q 454 72 418 8 q 490 250 490 136 q 442 458 490 389 q 321 528 393 528 q 210 462 250 528 q 171 285 171 396 q 219 85 171 163 q 347 8 268 8 z "},"1":{"ha":461,"x_min":47,"x_max":435,"o":"m 64 0 q 60 8 60 0 q 64 17 60 17 q 146 24 119 17 q 182 51 172 31 q 192 113 192 71 l 192 361 q 184 429 192 410 q 153 449 176 449 q 60 419 129 449 l 58 419 q 50 426 53 419 q 53 435 47 433 l 292 549 q 296 550 293 550 q 303 547 300 550 q 306 539 306 543 l 306 113 q 314 50 306 69 q 348 24 322 31 q 431 17 374 17 q 435 8 435 17 q 431 0 435 0 q 354 1 382 0 l 247 3 l 140 1 q 64 0 113 0 z "},"2":{"ha":558,"x_min":46,"x_max":524,"o":"m 51 32 q 232 199 174 140 q 316 300 290 257 q 342 388 342 343 q 313 478 342 442 q 233 515 283 515 q 145 470 181 515 q 81 335 110 425 q 75 333 81 333 q 64 338 63 333 l 122 567 q 128 569 122 569 q 135 567 132 569 q 138 564 139 565 q 136 547 136 557 q 157 525 136 525 q 199 535 169 525 q 306 554 260 554 q 423 517 381 554 q 465 421 465 481 q 435 325 465 371 q 360 241 404 279 q 242 146 317 203 q 213 124 225 133 q 190 107 200 114 q 187 100 185 103 q 196 97 189 97 q 379 101 322 97 q 467 121 436 106 q 507 174 497 136 q 514 176 507 176 q 524 172 524 176 l 497 15 q 494 5 497 10 q 485 0 490 0 l 60 0 q 49 13 53 0 q 51 32 46 26 z "},"3":{"ha":544,"x_min":40,"x_max":497,"o":"m 304 182 q 449 113 400 168 q 497 -15 497 58 q 451 -151 497 -82 q 311 -281 406 -219 q 78 -382 217 -342 q 69 -376 72 -383 q 71 -367 65 -368 q 296 -216 228 -308 q 364 -32 364 -124 q 323 97 364 47 q 208 147 282 147 q 149 139 181 147 q 142 146 144 138 q 143 156 139 154 q 288 233 243 182 q 333 372 333 283 q 309 480 333 442 q 238 518 285 518 q 133 478 179 518 q 58 358 88 438 q 53 357 57 357 q 42 363 40 357 l 93 565 q 99 568 96 568 q 107 566 103 568 q 110 563 111 564 q 107 547 107 551 q 131 524 107 524 q 176 535 147 524 q 231 549 208 544 q 283 554 254 554 q 410 508 364 554 q 456 396 456 461 q 415 270 456 329 q 304 182 375 211 z "},"4":{"ha":631,"x_min":29,"x_max":586,"o":"m 581 65 q 586 42 586 65 q 583 15 586 28 q 578 1 581 1 l 544 3 q 478 6 500 6 l 478 -196 q 467 -215 478 -210 l 375 -261 q 367 -264 367 -264 q 363 -253 363 -264 l 363 10 q 44 11 278 11 q 33 17 38 11 q 35 28 29 22 l 457 550 q 465 553 460 553 q 474 551 469 553 q 478 544 478 549 l 478 61 l 581 65 m 124 57 q 363 58 296 57 l 363 364 l 117 67 q 124 57 108 57 z "},"5":{"ha":568,"x_min":79,"x_max":496,"o":"m 121 272 q 405 201 314 271 q 496 13 496 132 q 455 -131 496 -67 q 326 -256 414 -196 q 94 -382 239 -317 l 93 -382 q 84 -376 88 -382 q 86 -367 81 -369 q 306 -196 243 -282 q 369 -11 369 -110 q 299 168 369 104 q 94 232 228 232 q 83 237 88 232 q 81 249 79 242 l 125 496 q 129 508 126 506 q 143 511 132 510 q 378 540 318 532 q 455 558 438 549 q 479 588 472 567 q 488 591 481 592 q 494 585 496 590 l 467 449 q 455 428 463 432 q 428 424 447 424 l 164 418 q 143 397 146 418 l 121 272 z "},"6":{"ha":646,"x_min":56,"x_max":607,"o":"m 425 397 q 561 345 515 397 q 607 221 607 293 q 568 101 607 156 q 463 14 529 46 q 319 -18 397 -18 q 126 63 197 -18 q 56 288 56 144 q 116 544 56 418 q 290 768 176 669 q 556 918 403 867 q 564 913 561 919 q 563 903 567 906 q 353 747 439 843 q 224 536 267 650 q 181 308 181 422 q 202 159 181 226 q 264 52 224 92 q 357 13 304 13 q 448 58 414 13 q 482 182 482 103 q 451 301 482 256 q 358 346 419 346 q 305 335 331 346 q 247 299 279 324 q 243 297 246 297 q 235 301 239 297 q 232 308 231 306 q 425 397 310 397 z "},"7":{"ha":596,"x_min":21,"x_max":546,"o":"m 239 -297 q 210 -331 231 -321 l 111 -382 l 110 -382 q 103 -378 106 -382 q 101 -372 100 -375 l 465 422 q 460 432 471 432 q 182 426 260 432 q 78 403 104 421 q 39 338 53 385 q 32 335 36 335 q 24 337 28 335 q 22 342 21 339 l 81 574 q 90 576 82 576 q 97 572 99 575 q 96 558 96 567 q 109 540 96 544 q 163 536 122 536 l 531 536 q 541 530 536 536 q 543 518 546 524 l 239 -297 z "},"8":{"ha":679,"x_min":56,"x_max":639,"o":"m 419 485 q 535 410 493 440 q 608 333 578 379 q 639 226 639 288 q 598 101 639 157 q 487 13 557 44 q 335 -18 417 -18 q 189 13 253 -18 q 90 97 125 44 q 56 211 56 150 q 108 355 56 288 q 244 463 160 422 q 167 536 194 497 q 139 625 139 575 q 172 721 139 682 q 256 778 206 760 q 358 797 307 797 q 464 776 418 797 q 534 721 510 754 q 558 653 558 688 q 521 564 558 611 q 419 485 483 517 m 342 771 q 276 744 300 771 q 251 676 251 718 q 290 582 251 622 q 401 496 328 542 q 454 633 454 567 q 420 731 454 690 q 342 771 386 771 m 374 11 q 481 58 440 11 q 522 175 522 106 q 494 274 522 232 q 427 347 467 317 q 322 415 388 376 q 298 430 311 422 q 269 447 285 438 q 205 360 228 411 q 182 249 182 308 q 206 131 182 185 q 274 44 231 76 q 374 11 318 11 z "},"9":{"ha":646,"x_min":40,"x_max":590,"o":"m 233 139 q 124 169 167 139 q 60 244 81 199 q 40 338 40 290 q 73 449 40 400 q 165 526 106 499 q 299 554 224 554 q 512 468 433 554 q 590 236 590 382 q 531 -15 590 110 q 358 -237 471 -139 q 90 -382 244 -335 q 83 -376 86 -383 q 85 -367 79 -369 q 293 -217 207 -312 q 422 -10 379 -122 q 465 210 465 103 q 447 355 465 282 q 385 477 428 428 q 278 526 343 526 q 192 485 221 526 q 164 369 164 443 q 197 238 164 288 q 292 188 229 188 q 345 198 321 188 q 400 233 369 208 q 404 235 401 235 q 412 231 408 235 q 414 224 415 226 q 233 139 349 139 z "},"\u0000":{"ha":0,"x_min":0,"x_max":0,"o":""},"\r":{"ha":325,"x_min":0,"x_max":0,"o":""}," ":{"ha":325,"x_min":0,"x_max":0,"o":""},"A":{"ha":906,"x_min":-17,"x_max":917,"o":"m 913 17 q 917 8 917 17 q 913 0 917 0 q 838 3 888 0 q 746 6 779 6 q 660 3 713 6 q 588 0 613 0 q 582 8 582 0 q 588 17 582 17 q 651 26 632 17 q 669 58 669 35 q 654 117 669 78 l 531 426 l 308 426 l 207 181 q 185 92 185 126 q 215 34 185 51 q 307 17 244 17 q 313 8 313 17 q 306 0 313 0 q 232 3 288 0 q 131 6 165 6 q 53 3 97 6 q -11 0 14 0 q -17 8 -17 0 q -11 17 -17 17 q 78 59 31 17 q 163 183 126 101 l 458 881 q 469 885 458 885 q 486 879 482 885 l 788 117 q 817 53 806 72 q 850 26 829 35 q 913 17 871 17 m 322 461 l 517 461 l 421 703 l 322 461 z "},"Á":{"ha":906,"x_min":-17,"x_max":917,"o":"m 913 17 q 917 8 917 17 q 913 0 917 0 q 838 3 888 0 q 746 6 779 6 q 660 3 713 6 q 588 0 613 0 q 582 8 582 0 q 588 17 582 17 q 651 26 632 17 q 669 58 669 35 q 654 117 669 78 l 531 426 l 308 426 l 207 181 q 185 92 185 126 q 215 34 185 51 q 307 17 244 17 q 313 8 313 17 q 306 0 313 0 q 232 3 288 0 q 131 6 165 6 q 53 3 97 6 q -11 0 14 0 q -17 8 -17 0 q -11 17 -17 17 q 78 59 31 17 q 163 183 126 101 l 458 881 q 469 885 458 885 q 486 879 482 885 l 788 117 q 817 53 806 72 q 850 26 829 35 q 913 17 871 17 m 322 461 l 517 461 l 421 703 l 322 461 m 383 942 q 375 948 378 942 q 376 957 372 954 q 479 1043 426 993 q 512 1071 493 1054 q 543 1097 531 1088 q 588 1092 549 1103 q 658 1067 626 1081 q 675 1050 689 1053 q 386 943 526 1011 l 383 942 z "},"Ă":{"ha":906,"x_min":-17,"x_max":917,"o":"m 913 17 q 917 8 917 17 q 913 0 917 0 q 838 3 888 0 q 746 6 779 6 q 660 3 713 6 q 588 0 613 0 q 582 8 582 0 q 588 17 582 17 q 651 26 632 17 q 669 58 669 35 q 654 117 669 78 l 531 426 l 308 426 l 207 181 q 185 92 185 126 q 215 34 185 51 q 307 17 244 17 q 313 8 313 17 q 306 0 313 0 q 232 3 288 0 q 131 6 165 6 q 53 3 97 6 q -11 0 14 0 q -17 8 -17 0 q -11 17 -17 17 q 78 59 31 17 q 163 183 126 101 l 458 881 q 469 885 458 885 q 486 879 482 885 l 788 117 q 817 53 806 72 q 850 26 829 35 q 913 17 871 17 m 322 461 l 517 461 l 421 703 l 322 461 m 461 924 q 378 958 415 924 q 328 1054 340 992 q 353 1069 326 1063 q 404 1076 379 1076 q 425 1072 422 1076 q 456 1015 435 1035 q 501 994 476 994 q 544 1013 525 994 q 574 1067 564 1032 q 582 1071 575 1071 q 593 1068 588 1071 q 597 1063 599 1065 q 545 960 583 996 q 461 924 507 924 z "},"Ắ":{"ha":906,"x_min":-17,"x_max":917,"o":"m 913 17 q 917 8 917 17 q 913 0 917 0 q 838 3 888 0 q 746 6 779 6 q 660 3 713 6 q 588 0 613 0 q 582 8 582 0 q 588 17 582 17 q 651 26 632 17 q 669 58 669 35 q 654 117 669 78 l 531 426 l 308 426 l 207 181 q 185 92 185 126 q 215 34 185 51 q 307 17 244 17 q 313 8 313 17 q 306 0 313 0 q 232 3 288 0 q 131 6 165 6 q 53 3 97 6 q -11 0 14 0 q -17 8 -17 0 q -11 17 -17 17 q 78 59 31 17 q 163 183 126 101 l 458 881 q 469 885 458 885 q 486 879 482 885 l 788 117 q 817 53 806 72 q 850 26 829 35 q 913 17 871 17 m 322 461 l 517 461 l 421 703 l 322 461 m 456 924 q 372 958 410 924 q 322 1054 335 992 q 347 1069 321 1063 q 399 1076 374 1076 q 419 1072 417 1076 q 450 1015 429 1035 q 496 994 471 994 q 539 1013 519 994 q 568 1067 558 1032 q 576 1071 569 1071 q 588 1068 582 1071 q 592 1063 593 1065 q 540 960 578 996 q 456 924 501 924 m 476 1056 q 469 1062 472 1056 q 469 1072 467 1068 q 557 1213 522 1144 q 599 1210 561 1221 q 666 1185 636 1200 q 683 1165 696 1171 q 578 1118 625 1143 q 479 1057 532 1093 l 476 1056 z "},"Ặ":{"ha":906,"x_min":-17,"x_max":917,"o":"m 913 17 q 917 8 917 17 q 913 0 917 0 q 838 3 888 0 q 746 6 779 6 q 660 3 713 6 q 588 0 613 0 q 582 8 582 0 q 588 17 582 17 q 651 26 632 17 q 669 58 669 35 q 654 117 669 78 l 531 426 l 308 426 l 207 181 q 185 92 185 126 q 215 34 185 51 q 307 17 244 17 q 313 8 313 17 q 306 0 313 0 q 232 3 288 0 q 131 6 165 6 q 53 3 97 6 q -11 0 14 0 q -17 8 -17 0 q -11 17 -17 17 q 78 59 31 17 q 163 183 126 101 l 458 881 q 469 885 458 885 q 486 879 482 885 l 788 117 q 817 53 806 72 q 850 26 829 35 q 913 17 871 17 m 322 461 l 517 461 l 421 703 l 322 461 m 460 -279 q 403 -259 424 -279 q 383 -203 383 -239 q 404 -150 383 -169 q 460 -131 425 -131 q 514 -150 494 -131 q 533 -203 533 -169 q 514 -259 533 -239 q 460 -279 494 -279 m 461 924 q 378 958 415 924 q 328 1054 340 992 q 353 1069 326 1063 q 404 1076 379 1076 q 425 1072 422 1076 q 456 1015 435 1035 q 501 994 476 994 q 544 1013 525 994 q 574 1067 564 1032 q 582 1071 575 1071 q 593 1068 588 1071 q 597 1063 599 1065 q 545 960 583 996 q 461 924 507 924 z "},"Ằ":{"ha":906,"x_min":-17,"x_max":917,"o":"m 913 17 q 917 8 917 17 q 913 0 917 0 q 838 3 888 0 q 746 6 779 6 q 660 3 713 6 q 588 0 613 0 q 582 8 582 0 q 588 17 582 17 q 651 26 632 17 q 669 58 669 35 q 654 117 669 78 l 531 426 l 308 426 l 207 181 q 185 92 185 126 q 215 34 185 51 q 307 17 244 17 q 313 8 313 17 q 306 0 313 0 q 232 3 288 0 q 131 6 165 6 q 53 3 97 6 q -11 0 14 0 q -17 8 -17 0 q -11 17 -17 17 q 78 59 31 17 q 163 183 126 101 l 458 881 q 469 885 458 885 q 486 879 482 885 l 788 117 q 817 53 806 72 q 850 26 829 35 q 913 17 871 17 m 322 461 l 517 461 l 421 703 l 322 461 m 460 924 q 376 958 414 924 q 326 1054 339 992 q 351 1069 325 1063 q 403 1076 378 1076 q 424 1072 421 1076 q 454 1015 433 1035 q 500 994 475 994 q 543 1013 524 994 q 572 1067 563 1032 q 581 1071 574 1071 q 592 1068 586 1071 q 596 1063 597 1065 q 544 960 582 996 q 460 924 506 924 m 526 1057 q 328 1165 431 1125 q 343 1185 314 1171 q 410 1210 372 1200 q 451 1213 447 1221 q 539 1072 486 1144 l 540 1068 q 536 1060 540 1064 q 526 1057 532 1056 z "},"Ẳ":{"ha":906,"x_min":-17,"x_max":917,"o":"m 913 17 q 917 8 917 17 q 913 0 917 0 q 838 3 888 0 q 746 6 779 6 q 660 3 713 6 q 588 0 613 0 q 582 8 582 0 q 588 17 582 17 q 651 26 632 17 q 669 58 669 35 q 654 117 669 78 l 531 426 l 308 426 l 207 181 q 185 92 185 126 q 215 34 185 51 q 307 17 244 17 q 313 8 313 17 q 306 0 313 0 q 232 3 288 0 q 131 6 165 6 q 53 3 97 6 q -11 0 14 0 q -17 8 -17 0 q -11 17 -17 17 q 78 59 31 17 q 163 183 126 101 l 458 881 q 469 885 458 885 q 486 879 482 885 l 788 117 q 817 53 806 72 q 850 26 829 35 q 913 17 871 17 m 322 461 l 517 461 l 421 703 l 322 461 m 458 924 q 375 958 413 924 q 325 1054 338 992 q 350 1069 324 1063 q 401 1076 376 1076 q 422 1072 419 1076 q 453 1015 432 1035 q 499 994 474 994 q 542 1013 522 994 q 571 1067 561 1032 q 579 1071 572 1071 q 590 1068 585 1071 q 594 1063 596 1065 q 542 960 581 996 q 458 924 504 924 m 489 1047 q 486 1067 486 1061 q 493 1100 486 1083 q 501 1119 500 1117 q 517 1169 517 1147 q 503 1201 517 1190 q 472 1213 490 1213 q 446 1207 460 1213 l 443 1206 q 435 1210 439 1206 q 436 1218 432 1215 q 521 1243 476 1243 q 574 1226 554 1243 q 593 1185 593 1210 q 581 1149 593 1165 q 544 1111 568 1132 q 513 1076 522 1090 q 504 1047 503 1063 q 498 1044 506 1044 q 489 1047 490 1043 z "},"Ẵ":{"ha":906,"x_min":-17,"x_max":917,"o":"m 913 17 q 917 8 917 17 q 913 0 917 0 q 838 3 888 0 q 746 6 779 6 q 660 3 713 6 q 588 0 613 0 q 582 8 582 0 q 588 17 582 17 q 651 26 632 17 q 669 58 669 35 q 654 117 669 78 l 531 426 l 308 426 l 207 181 q 185 92 185 126 q 215 34 185 51 q 307 17 244 17 q 313 8 313 17 q 306 0 313 0 q 232 3 288 0 q 131 6 165 6 q 53 3 97 6 q -11 0 14 0 q -17 8 -17 0 q -11 17 -17 17 q 78 59 31 17 q 163 183 126 101 l 458 881 q 469 885 458 885 q 486 879 482 885 l 788 117 q 817 53 806 72 q 850 26 829 35 q 913 17 871 17 m 322 461 l 517 461 l 421 703 l 322 461 m 458 924 q 375 958 413 924 q 325 1054 338 992 q 350 1069 324 1063 q 401 1076 376 1076 q 422 1072 419 1076 q 453 1015 432 1035 q 499 994 474 994 q 542 1013 522 994 q 571 1067 561 1032 q 579 1071 572 1071 q 590 1068 585 1071 q 594 1063 596 1065 q 542 960 581 996 q 458 924 504 924 m 293 1115 q 290 1114 293 1114 q 284 1118 288 1114 q 282 1125 281 1122 q 394 1229 332 1229 q 465 1214 414 1229 q 507 1203 474 1213 q 569 1194 540 1194 q 613 1203 597 1194 q 647 1232 629 1211 l 649 1232 q 656 1228 651 1232 q 658 1222 660 1225 q 606 1139 629 1160 q 550 1118 583 1118 q 468 1135 526 1118 q 418 1147 444 1142 q 369 1153 392 1153 q 325 1145 338 1153 q 293 1115 313 1138 z "},"Ǎ":{"ha":906,"x_min":-17,"x_max":917,"o":"m 913 17 q 917 8 917 17 q 913 0 917 0 q 838 3 888 0 q 746 6 779 6 q 660 3 713 6 q 588 0 613 0 q 582 8 582 0 q 588 17 582 17 q 651 26 632 17 q 669 58 669 35 q 654 117 669 78 l 531 426 l 308 426 l 207 181 q 185 92 185 126 q 215 34 185 51 q 307 17 244 17 q 313 8 313 17 q 306 0 313 0 q 232 3 288 0 q 131 6 165 6 q 53 3 97 6 q -11 0 14 0 q -17 8 -17 0 q -11 17 -17 17 q 78 59 31 17 q 163 183 126 101 l 458 881 q 469 885 458 885 q 486 879 482 885 l 788 117 q 817 53 806 72 q 850 26 829 35 q 913 17 871 17 m 322 461 l 517 461 l 421 703 l 322 461 m 315 1090 l 314 1093 q 317 1099 314 1096 q 324 1100 321 1101 l 463 1038 l 600 1100 q 608 1097 603 1101 q 610 1090 613 1092 l 479 938 q 467 932 475 932 q 453 938 458 932 l 315 1090 z "},"Â":{"ha":906,"x_min":-17,"x_max":917,"o":"m 913 17 q 917 8 917 17 q 913 0 917 0 q 838 3 888 0 q 746 6 779 6 q 660 3 713 6 q 588 0 613 0 q 582 8 582 0 q 588 17 582 17 q 651 26 632 17 q 669 58 669 35 q 654 117 669 78 l 531 426 l 308 426 l 207 181 q 185 92 185 126 q 215 34 185 51 q 307 17 244 17 q 313 8 313 17 q 306 0 313 0 q 232 3 288 0 q 131 6 165 6 q 53 3 97 6 q -11 0 14 0 q -17 8 -17 0 q -11 17 -17 17 q 78 59 31 17 q 163 183 126 101 l 458 881 q 469 885 458 885 q 486 879 482 885 l 788 117 q 817 53 806 72 q 850 26 829 35 q 913 17 871 17 m 322 461 l 517 461 l 421 703 l 322 461 m 332 917 q 324 920 328 917 q 324 926 321 924 l 454 1078 q 465 1085 458 1085 q 479 1078 472 1085 l 618 926 l 618 924 q 615 917 618 919 q 610 917 613 914 l 471 978 l 333 917 l 332 917 z "},"Ấ":{"ha":906,"x_min":-17,"x_max":917,"o":"m 913 17 q 917 8 917 17 q 913 0 917 0 q 838 3 888 0 q 746 6 779 6 q 660 3 713 6 q 588 0 613 0 q 582 8 582 0 q 588 17 582 17 q 651 26 632 17 q 669 58 669 35 q 654 117 669 78 l 531 426 l 308 426 l 207 181 q 185 92 185 126 q 215 34 185 51 q 307 17 244 17 q 313 8 313 17 q 306 0 313 0 q 232 3 288 0 q 131 6 165 6 q 53 3 97 6 q -11 0 14 0 q -17 8 -17 0 q -11 17 -17 17 q 78 59 31 17 q 163 183 126 101 l 458 881 q 469 885 458 885 q 486 879 482 885 l 788 117 q 817 53 806 72 q 850 26 829 35 q 913 17 871 17 m 322 461 l 517 461 l 421 703 l 322 461 m 329 917 q 322 920 325 917 q 321 926 318 924 l 451 1078 q 463 1085 456 1085 q 476 1078 469 1085 l 615 926 l 615 924 q 613 917 615 919 q 607 917 610 914 l 468 978 l 331 917 l 329 917 m 563 1006 q 556 1012 558 1006 q 556 1022 553 1018 q 643 1163 608 1094 q 685 1160 647 1171 q 752 1135 722 1150 q 769 1115 782 1121 q 665 1068 711 1093 q 565 1007 618 1043 l 563 1006 z "},"Ậ":{"ha":906,"x_min":-17,"x_max":917,"o":"m 913 17 q 917 8 917 17 q 913 0 917 0 q 838 3 888 0 q 746 6 779 6 q 660 3 713 6 q 588 0 613 0 q 582 8 582 0 q 588 17 582 17 q 651 26 632 17 q 669 58 669 35 q 654 117 669 78 l 531 426 l 308 426 l 207 181 q 185 92 185 126 q 215 34 185 51 q 307 17 244 17 q 313 8 313 17 q 306 0 313 0 q 232 3 288 0 q 131 6 165 6 q 53 3 97 6 q -11 0 14 0 q -17 8 -17 0 q -11 17 -17 17 q 78 59 31 17 q 163 183 126 101 l 458 881 q 469 885 458 885 q 486 879 482 885 l 788 117 q 817 53 806 72 q 850 26 829 35 q 913 17 871 17 m 322 461 l 517 461 l 421 703 l 322 461 m 460 -279 q 403 -259 424 -279 q 383 -203 383 -239 q 404 -150 383 -169 q 460 -131 425 -131 q 514 -150 494 -131 q 533 -203 533 -169 q 514 -259 533 -239 q 460 -279 494 -279 m 332 917 q 324 920 328 917 q 324 926 321 924 l 454 1078 q 465 1085 458 1085 q 479 1078 472 1085 l 618 926 l 618 924 q 615 917 618 919 q 610 917 613 914 l 471 978 l 333 917 l 332 917 z "},"Ầ":{"ha":906,"x_min":-17,"x_max":917,"o":"m 913 17 q 917 8 917 17 q 913 0 917 0 q 838 3 888 0 q 746 6 779 6 q 660 3 713 6 q 588 0 613 0 q 582 8 582 0 q 588 17 582 17 q 651 26 632 17 q 669 58 669 35 q 654 117 669 78 l 531 426 l 308 426 l 207 181 q 185 92 185 126 q 215 34 185 51 q 307 17 244 17 q 313 8 313 17 q 306 0 313 0 q 232 3 288 0 q 131 6 165 6 q 53 3 97 6 q -11 0 14 0 q -17 8 -17 0 q -11 17 -17 17 q 78 59 31 17 q 163 183 126 101 l 458 881 q 469 885 458 885 q 486 879 482 885 l 788 117 q 817 53 806 72 q 850 26 829 35 q 913 17 871 17 m 322 461 l 517 461 l 421 703 l 322 461 m 331 917 q 323 920 326 917 q 322 926 319 924 l 453 1078 q 464 1085 457 1085 q 478 1078 471 1085 l 617 926 l 617 924 q 614 917 617 919 q 608 917 611 914 l 469 978 l 332 917 l 331 917 m 688 988 q 489 1096 592 1056 q 504 1116 475 1101 q 571 1141 533 1131 q 613 1143 608 1151 q 700 1003 647 1075 l 701 999 q 697 990 701 994 q 688 988 693 986 z "},"Ẩ":{"ha":906,"x_min":-17,"x_max":917,"o":"m 913 17 q 917 8 917 17 q 913 0 917 0 q 838 3 888 0 q 746 6 779 6 q 660 3 713 6 q 588 0 613 0 q 582 8 582 0 q 588 17 582 17 q 651 26 632 17 q 669 58 669 35 q 654 117 669 78 l 531 426 l 308 426 l 207 181 q 185 92 185 126 q 215 34 185 51 q 307 17 244 17 q 313 8 313 17 q 306 0 313 0 q 232 3 288 0 q 131 6 165 6 q 53 3 97 6 q -11 0 14 0 q -17 8 -17 0 q -11 17 -17 17 q 78 59 31 17 q 163 183 126 101 l 458 881 q 469 885 458 885 q 486 879 482 885 l 788 117 q 817 53 806 72 q 850 26 829 35 q 913 17 871 17 m 322 461 l 517 461 l 421 703 l 322 461 m 329 913 q 322 916 325 913 q 321 922 318 919 l 451 1074 q 463 1081 456 1081 q 476 1074 469 1081 l 615 922 l 615 919 q 613 913 615 915 q 607 913 610 910 l 468 974 l 331 913 l 329 913 m 572 993 q 569 1013 569 1007 q 576 1046 569 1029 q 585 1065 583 1063 q 600 1115 600 1093 q 587 1147 600 1136 q 556 1158 574 1158 q 529 1153 543 1158 l 526 1151 q 519 1156 522 1151 q 519 1164 515 1161 q 604 1189 560 1189 q 657 1172 638 1189 q 676 1131 676 1156 q 664 1094 676 1111 q 628 1057 651 1078 q 596 1022 606 1036 q 588 993 586 1008 q 581 990 589 990 q 572 993 574 989 z "},"Ẫ":{"ha":906,"x_min":-17,"x_max":917,"o":"m 913 17 q 917 8 917 17 q 913 0 917 0 q 838 3 888 0 q 746 6 779 6 q 660 3 713 6 q 588 0 613 0 q 582 8 582 0 q 588 17 582 17 q 651 26 632 17 q 669 58 669 35 q 654 117 669 78 l 531 426 l 308 426 l 207 181 q 185 92 185 126 q 215 34 185 51 q 307 17 244 17 q 313 8 313 17 q 306 0 313 0 q 232 3 288 0 q 131 6 165 6 q 53 3 97 6 q -11 0 14 0 q -17 8 -17 0 q -11 17 -17 17 q 78 59 31 17 q 163 183 126 101 l 458 881 q 469 885 458 885 q 486 879 482 885 l 788 117 q 817 53 806 72 q 850 26 829 35 q 913 17 871 17 m 322 461 l 517 461 l 421 703 l 322 461 m 331 917 q 323 920 326 917 q 322 926 319 924 l 453 1078 q 464 1085 457 1085 q 478 1078 471 1085 l 617 926 l 617 924 q 614 917 617 919 q 608 917 611 914 l 469 978 l 332 917 l 331 917 m 297 1096 q 290 1099 294 1096 q 288 1106 286 1103 q 337 1179 310 1149 q 403 1210 364 1210 q 442 1203 418 1210 q 472 1196 465 1197 q 578 1175 543 1175 q 622 1183 606 1175 q 654 1213 638 1192 q 655 1214 654 1214 q 656 1214 656 1214 q 663 1210 658 1214 q 665 1203 667 1206 q 615 1121 638 1142 q 558 1100 592 1100 q 475 1115 528 1100 q 424 1128 451 1122 q 375 1133 397 1133 q 333 1127 346 1133 q 312 1110 321 1121 q 299 1096 303 1100 l 297 1096 z "},"Ä":{"ha":906,"x_min":-17,"x_max":917,"o":"m 913 17 q 917 8 917 17 q 913 0 917 0 q 838 3 888 0 q 746 6 779 6 q 660 3 713 6 q 588 0 613 0 q 582 8 582 0 q 588 17 582 17 q 651 26 632 17 q 669 58 669 35 q 654 117 669 78 l 531 426 l 308 426 l 207 181 q 185 92 185 126 q 215 34 185 51 q 307 17 244 17 q 313 8 313 17 q 306 0 313 0 q 232 3 288 0 q 131 6 165 6 q 53 3 97 6 q -11 0 14 0 q -17 8 -17 0 q -11 17 -17 17 q 78 59 31 17 q 163 183 126 101 l 458 881 q 469 885 458 885 q 486 879 482 885 l 788 117 q 817 53 806 72 q 850 26 829 35 q 913 17 871 17 m 322 461 l 517 461 l 421 703 l 322 461 m 351 983 q 300 1001 319 983 q 281 1053 281 1019 q 300 1101 281 1083 q 351 1119 319 1119 q 401 1102 383 1119 q 419 1053 419 1085 q 401 1001 419 1019 q 351 983 383 983 m 585 983 q 534 1001 553 983 q 515 1053 515 1019 q 534 1101 515 1083 q 585 1119 553 1119 q 634 1102 617 1119 q 651 1053 651 1085 q 634 1001 651 1019 q 585 983 617 983 z "},"Ạ":{"ha":906,"x_min":-17,"x_max":917,"o":"m 913 17 q 917 8 917 17 q 913 0 917 0 q 838 3 888 0 q 746 6 779 6 q 660 3 713 6 q 588 0 613 0 q 582 8 582 0 q 588 17 582 17 q 651 26 632 17 q 669 58 669 35 q 654 117 669 78 l 531 426 l 308 426 l 207 181 q 185 92 185 126 q 215 34 185 51 q 307 17 244 17 q 313 8 313 17 q 306 0 313 0 q 232 3 288 0 q 131 6 165 6 q 53 3 97 6 q -11 0 14 0 q -17 8 -17 0 q -11 17 -17 17 q 78 59 31 17 q 163 183 126 101 l 458 881 q 469 885 458 885 q 486 879 482 885 l 788 117 q 817 53 806 72 q 850 26 829 35 q 913 17 871 17 m 322 461 l 517 461 l 421 703 l 322 461 m 460 -279 q 403 -259 424 -279 q 383 -203 383 -239 q 404 -150 383 -169 q 460 -131 425 -131 q 514 -150 494 -131 q 533 -203 533 -169 q 514 -259 533 -239 q 460 -279 494 -279 z "},"À":{"ha":906,"x_min":-17,"x_max":917,"o":"m 913 17 q 917 8 917 17 q 913 0 917 0 q 838 3 888 0 q 746 6 779 6 q 660 3 713 6 q 588 0 613 0 q 582 8 582 0 q 588 17 582 17 q 651 26 632 17 q 669 58 669 35 q 654 117 669 78 l 531 426 l 308 426 l 207 181 q 185 92 185 126 q 215 34 185 51 q 307 17 244 17 q 313 8 313 17 q 306 0 313 0 q 232 3 288 0 q 131 6 165 6 q 53 3 97 6 q -11 0 14 0 q -17 8 -17 0 q -11 17 -17 17 q 78 59 31 17 q 163 183 126 101 l 458 881 q 469 885 458 885 q 486 879 482 885 l 788 117 q 817 53 806 72 q 850 26 829 35 q 913 17 871 17 m 322 461 l 517 461 l 421 703 l 322 461 m 608 957 q 469 1008 529 988 q 326 1050 408 1028 q 338 1068 308 1054 q 408 1092 368 1082 q 457 1096 449 1101 q 531 1034 492 1064 q 586 992 571 1004 l 617 969 q 619 964 619 968 q 616 958 619 960 q 608 957 613 956 z "},"Ả":{"ha":906,"x_min":-17,"x_max":917,"o":"m 913 17 q 917 8 917 17 q 913 0 917 0 q 838 3 888 0 q 746 6 779 6 q 660 3 713 6 q 588 0 613 0 q 582 8 582 0 q 588 17 582 17 q 651 26 632 17 q 669 58 669 35 q 654 117 669 78 l 531 426 l 308 426 l 207 181 q 185 92 185 126 q 215 34 185 51 q 307 17 244 17 q 313 8 313 17 q 306 0 313 0 q 232 3 288 0 q 131 6 165 6 q 53 3 97 6 q -11 0 14 0 q -17 8 -17 0 q -11 17 -17 17 q 78 59 31 17 q 163 183 126 101 l 458 881 q 469 885 458 885 q 486 879 482 885 l 788 117 q 817 53 806 72 q 850 26 829 35 q 913 17 871 17 m 322 461 l 517 461 l 421 703 l 322 461 m 474 906 q 467 902 475 903 q 458 906 460 901 q 450 953 450 928 q 464 1018 450 976 q 471 1041 465 1022 q 476 1078 476 1060 q 424 1143 476 1143 q 378 1132 400 1143 l 375 1131 q 367 1135 371 1131 q 368 1143 364 1140 q 414 1170 388 1161 q 468 1179 440 1179 q 544 1156 515 1179 q 572 1096 572 1133 q 559 1051 572 1072 q 519 999 546 1029 q 481 949 493 969 q 474 906 469 928 z "},"Ā":{"ha":906,"x_min":-17,"x_max":917,"o":"m 913 17 q 917 8 917 17 q 913 0 917 0 q 838 3 888 0 q 746 6 779 6 q 660 3 713 6 q 588 0 613 0 q 582 8 582 0 q 588 17 582 17 q 651 26 632 17 q 669 58 669 35 q 654 117 669 78 l 531 426 l 308 426 l 207 181 q 185 92 185 126 q 215 34 185 51 q 307 17 244 17 q 313 8 313 17 q 306 0 313 0 q 232 3 288 0 q 131 6 165 6 q 53 3 97 6 q -11 0 14 0 q -17 8 -17 0 q -11 17 -17 17 q 78 59 31 17 q 163 183 126 101 l 458 881 q 469 885 458 885 q 486 879 482 885 l 788 117 q 817 53 806 72 q 850 26 829 35 q 913 17 871 17 m 322 461 l 517 461 l 421 703 l 322 461 m 306 992 q 297 999 300 992 q 294 1017 294 1007 q 297 1034 294 1026 q 306 1042 300 1042 l 628 1042 q 637 1034 633 1042 q 640 1017 640 1026 q 637 999 640 1007 q 628 992 633 992 l 306 992 z "},"Ą":{"ha":906,"x_min":-17,"x_max":917,"o":"m 913 17 q 917 8 917 17 q 913 0 917 0 l 782 1 q 665 -51 708 1 q 621 -182 621 -103 q 659 -285 621 -246 q 764 -325 697 -325 q 801 -319 789 -325 q 831 -301 814 -314 q 831 -300 831 -300 q 832 -300 832 -300 q 838 -305 835 -300 q 840 -312 842 -310 q 772 -366 804 -350 q 696 -382 739 -382 q 572 -346 624 -382 q 521 -240 521 -310 q 541 -158 521 -194 q 600 -75 561 -122 q 651 -4 635 -32 q 667 57 667 24 q 653 117 667 85 l 531 426 l 310 426 l 210 181 q 186 89 186 128 q 215 33 186 50 q 307 17 244 17 q 313 8 313 17 q 306 0 313 0 q 231 3 286 0 q 132 6 167 6 q 54 3 99 6 q -11 0 13 0 q -17 8 -17 0 q -11 17 -17 17 q 79 59 31 17 q 165 183 128 101 l 458 881 q 469 885 458 885 q 486 879 482 885 l 786 121 q 836 38 811 58 q 913 17 861 17 m 324 461 l 517 461 l 422 701 l 324 461 z "},"Å":{"ha":906,"x_min":-17,"x_max":917,"o":"m 913 17 q 917 8 917 17 q 913 0 917 0 q 838 3 888 0 q 746 6 779 6 q 660 3 713 6 q 588 0 613 0 q 582 8 582 0 q 588 17 582 17 q 651 26 632 17 q 669 58 669 35 q 654 117 669 78 l 531 426 l 308 426 l 207 181 q 185 92 185 126 q 215 34 185 51 q 307 17 244 17 q 313 8 313 17 q 306 0 313 0 q 232 3 288 0 q 131 6 165 6 q 53 3 97 6 q -11 0 14 0 q -17 8 -17 0 q -11 17 -17 17 q 78 59 31 17 q 163 183 126 101 l 458 881 q 469 885 458 885 q 486 879 482 885 l 788 117 q 817 53 806 72 q 850 26 829 35 q 913 17 871 17 m 322 461 l 517 461 l 421 703 l 322 461 m 458 918 q 357 951 394 918 q 319 1029 319 983 q 367 1108 319 1079 q 472 1136 414 1136 q 570 1104 529 1136 q 611 1026 611 1072 q 565 948 611 978 q 458 918 518 918 m 481 936 q 521 1001 521 936 q 499 1083 521 1049 q 444 1118 476 1118 q 416 1103 425 1118 q 407 1057 407 1089 q 427 974 407 1011 q 481 936 447 936 z "},"Ǻ":{"ha":906,"x_min":-17,"x_max":917,"o":"m 913 17 q 917 8 917 17 q 913 0 917 0 q 838 3 888 0 q 746 6 779 6 q 660 3 713 6 q 588 0 613 0 q 582 8 582 0 q 588 17 582 17 q 651 26 632 17 q 669 58 669 35 q 654 117 669 78 l 531 426 l 308 426 l 207 181 q 185 92 185 126 q 215 34 185 51 q 307 17 244 17 q 313 8 313 17 q 306 0 313 0 q 232 3 288 0 q 131 6 165 6 q 53 3 97 6 q -11 0 14 0 q -17 8 -17 0 q -11 17 -17 17 q 78 59 31 17 q 163 183 126 101 l 458 881 q 469 885 458 885 q 486 879 482 885 l 788 117 q 817 53 806 72 q 850 26 829 35 q 913 17 871 17 m 322 461 l 517 461 l 421 703 l 322 461 m 339 1139 q 333 1145 335 1139 q 335 1153 331 1151 l 519 1249 q 555 1238 526 1253 q 606 1207 583 1224 q 619 1189 629 1190 q 476 1166 546 1179 q 342 1139 406 1153 l 339 1139 m 458 938 q 367 965 401 938 q 332 1032 332 993 q 376 1099 332 1074 q 472 1124 419 1124 q 570 1096 529 1124 q 611 1029 611 1068 q 565 963 611 988 q 458 938 518 938 m 481 956 q 521 1004 521 956 q 500 1076 521 1047 q 447 1106 479 1106 q 407 1060 407 1106 q 427 988 407 1019 q 481 956 447 956 z "},"Ã":{"ha":906,"x_min":-17,"x_max":917,"o":"m 913 17 q 917 8 917 17 q 913 0 917 0 q 838 3 888 0 q 746 6 779 6 q 660 3 713 6 q 588 0 613 0 q 582 8 582 0 q 588 17 582 17 q 651 26 632 17 q 669 58 669 35 q 654 117 669 78 l 531 426 l 308 426 l 207 181 q 185 92 185 126 q 215 34 185 51 q 307 17 244 17 q 313 8 313 17 q 306 0 313 0 q 232 3 288 0 q 131 6 165 6 q 53 3 97 6 q -11 0 14 0 q -17 8 -17 0 q -11 17 -17 17 q 78 59 31 17 q 163 183 126 101 l 458 881 q 469 885 458 885 q 486 879 482 885 l 788 117 q 817 53 806 72 q 850 26 829 35 q 913 17 871 17 m 322 461 l 517 461 l 421 703 l 322 461 m 301 957 q 299 956 301 956 q 292 960 296 956 q 290 967 289 964 q 403 1071 340 1071 q 474 1056 422 1071 q 515 1045 482 1054 q 578 1036 549 1036 q 622 1044 606 1036 q 656 1074 638 1053 l 657 1074 q 664 1070 660 1074 q 667 1064 668 1067 q 615 981 638 1001 q 558 960 592 960 q 476 976 535 960 q 426 989 453 983 q 378 994 400 994 q 333 987 346 994 q 301 957 321 979 z "},"Æ":{"ha":1161,"x_min":-53,"x_max":1113,"o":"m 1093 217 q 1099 219 1093 219 q 1108 217 1103 219 q 1111 214 1113 215 q 1099 21 1099 135 q 1094 5 1099 10 q 1076 0 1089 0 l 504 0 q 497 8 497 0 q 504 17 497 17 q 580 31 560 17 q 600 89 600 46 l 599 113 l 582 433 l 368 433 l 215 171 q 190 97 190 132 q 222 38 190 60 q 314 17 254 17 q 321 8 321 17 q 314 0 321 0 q 219 3 289 0 q 101 6 139 6 q 21 3 68 6 q -46 0 -21 0 q -53 8 -53 0 q -46 17 -53 17 q 65 53 15 17 q 172 186 115 89 l 528 800 q 542 833 542 825 q 520 849 542 846 q 432 851 499 851 q 425 860 425 851 q 432 868 425 868 l 1036 868 q 1045 865 1043 868 q 1047 856 1047 863 q 1049 817 1047 831 l 1051 674 q 1046 669 1051 669 q 1038 672 1042 669 q 1033 675 1033 674 q 960 801 1017 754 q 824 849 904 849 l 786 849 q 713 827 732 849 q 696 754 693 806 l 711 469 l 858 469 q 957 493 926 469 q 990 574 988 517 q 993 578 990 576 q 999 579 996 579 q 1005 577 1001 579 q 1008 572 1008 575 l 1008 451 q 1011 313 1008 418 q 1004 308 1011 308 q 996 310 1000 308 q 992 314 992 313 q 856 433 990 433 l 714 433 l 731 118 q 740 58 732 78 q 767 32 747 39 q 828 25 786 25 l 878 25 q 1008 77 950 25 q 1093 217 1065 129 m 390 469 l 581 469 l 565 769 l 390 469 z "},"Ǽ":{"ha":1161,"x_min":-53,"x_max":1111,"o":"m 1093 217 q 1099 219 1093 219 q 1108 217 1103 219 q 1111 214 1113 215 q 1099 21 1099 135 q 1094 5 1099 10 q 1076 0 1089 0 l 504 0 q 497 8 497 0 q 504 17 497 17 q 580 31 560 17 q 600 89 600 46 l 599 113 l 582 433 l 368 433 l 215 171 q 190 97 190 132 q 222 38 190 60 q 314 17 254 17 q 321 8 321 17 q 314 0 321 0 q 219 3 289 0 q 101 6 139 6 q 21 3 68 6 q -46 0 -21 0 q -53 8 -53 0 q -46 17 -53 17 q 65 53 15 17 q 172 186 115 89 l 528 800 q 542 833 542 825 q 520 849 542 846 q 432 851 499 851 q 425 860 425 851 q 432 868 425 868 l 1036 868 q 1045 865 1043 868 q 1047 856 1047 863 q 1049 817 1047 831 l 1051 674 q 1046 669 1051 669 q 1038 672 1042 669 q 1033 675 1033 674 q 960 801 1017 754 q 824 849 904 849 l 786 849 q 713 827 732 849 q 696 754 693 806 l 711 469 l 858 469 q 957 493 926 469 q 990 574 988 517 q 993 578 990 576 q 999 579 996 579 q 1005 577 1001 579 q 1008 572 1008 575 l 1008 451 q 1011 313 1008 418 q 1004 308 1011 308 q 996 310 1000 308 q 992 314 992 313 q 856 433 990 433 l 714 433 l 731 118 q 740 58 732 78 q 767 32 747 39 q 828 25 786 25 l 878 25 q 1008 77 950 25 q 1093 217 1065 129 m 390 469 l 581 469 l 565 769 l 390 469 m 664 942 q 656 948 658 942 q 657 957 653 954 q 760 1043 707 993 q 792 1071 774 1054 q 824 1097 811 1088 q 868 1092 829 1103 q 938 1067 907 1081 q 956 1050 969 1053 q 667 943 807 1011 l 664 942 z "},"Ǣ":{"ha":1161,"x_min":-53,"x_max":1111,"o":"m 1093 217 q 1099 219 1093 219 q 1108 217 1103 219 q 1111 214 1113 215 q 1099 21 1099 135 q 1094 5 1099 10 q 1076 0 1089 0 l 504 0 q 497 8 497 0 q 504 17 497 17 q 580 31 560 17 q 600 89 600 46 l 599 113 l 582 433 l 368 433 l 215 171 q 190 97 190 132 q 222 38 190 60 q 314 17 254 17 q 321 8 321 17 q 314 0 321 0 q 219 3 289 0 q 101 6 139 6 q 21 3 68 6 q -46 0 -21 0 q -53 8 -53 0 q -46 17 -53 17 q 65 53 15 17 q 172 186 115 89 l 528 800 q 542 833 542 825 q 520 849 542 846 q 432 851 499 851 q 425 860 425 851 q 432 868 425 868 l 1036 868 q 1045 865 1043 868 q 1047 856 1047 863 q 1049 817 1047 831 l 1051 674 q 1046 669 1051 669 q 1038 672 1042 669 q 1033 675 1033 674 q 960 801 1017 754 q 824 849 904 849 l 786 849 q 713 827 732 849 q 696 754 693 806 l 711 469 l 858 469 q 957 493 926 469 q 990 574 988 517 q 993 578 990 576 q 999 579 996 579 q 1005 577 1001 579 q 1008 572 1008 575 l 1008 451 q 1011 313 1008 418 q 1004 308 1011 308 q 996 310 1000 308 q 992 314 992 313 q 856 433 990 433 l 714 433 l 731 118 q 740 58 732 78 q 767 32 747 39 q 828 25 786 25 l 878 25 q 1008 77 950 25 q 1093 217 1065 129 m 390 469 l 581 469 l 565 769 l 390 469 m 586 992 q 578 999 581 992 q 575 1017 575 1007 q 578 1034 575 1026 q 586 1042 581 1042 l 908 1042 q 917 1034 914 1042 q 921 1017 921 1026 q 917 999 921 1007 q 908 992 914 992 l 586 992 z "},"B":{"ha":818,"x_min":64,"x_max":749,"o":"m 494 488 q 680 411 611 475 q 749 253 749 347 q 708 122 749 181 q 596 28 667 63 q 438 -6 525 -6 q 344 -1 397 -6 q 299 1 326 0 q 236 3 271 3 l 138 1 q 67 0 113 0 q 64 8 64 0 q 67 17 64 17 q 133 24 111 17 q 163 51 154 32 q 171 113 171 71 l 171 756 q 163 817 171 797 q 134 844 156 836 q 68 851 113 851 q 65 860 65 851 q 68 868 65 868 l 140 867 q 236 864 199 864 q 318 868 275 864 q 355 871 333 869 q 406 872 376 872 q 596 824 529 872 q 663 692 663 776 q 619 572 663 625 q 494 488 575 518 m 381 847 q 320 828 336 847 q 304 753 304 810 l 304 489 l 363 488 q 489 541 446 488 q 532 679 532 594 q 494 803 532 758 q 381 847 456 847 m 415 22 q 607 219 607 22 q 551 390 607 326 q 388 453 496 453 q 304 450 338 453 l 304 113 q 326 42 304 63 q 415 22 347 22 z "},"C":{"ha":881,"x_min":53,"x_max":824,"o":"m 535 -17 q 258 50 367 -17 q 101 220 150 117 q 53 438 53 324 q 120 674 53 572 q 299 829 188 775 q 538 883 410 883 q 672 871 603 883 q 783 840 742 858 q 798 828 794 833 q 801 808 801 822 l 813 632 q 806 628 813 628 q 797 632 800 628 q 672 793 753 738 q 485 849 592 849 q 270 751 346 849 q 194 481 194 653 q 240 245 194 354 q 365 72 286 136 q 539 8 444 8 q 808 222 697 8 q 817 226 811 228 q 824 219 824 225 l 814 61 q 808 38 811 43 q 793 29 804 33 q 535 -17 667 -17 z "},"Ć":{"ha":881,"x_min":53,"x_max":824,"o":"m 535 -17 q 258 50 367 -17 q 101 220 150 117 q 53 438 53 324 q 120 674 53 572 q 299 829 188 775 q 538 883 410 883 q 672 871 603 883 q 783 840 742 858 q 798 828 794 833 q 801 808 801 822 l 813 632 q 806 628 813 628 q 797 632 800 628 q 672 793 753 738 q 485 849 592 849 q 270 751 346 849 q 194 481 194 653 q 240 245 194 354 q 365 72 286 136 q 539 8 444 8 q 808 222 697 8 q 817 226 811 228 q 824 219 824 225 l 814 61 q 808 38 811 43 q 793 29 804 33 q 535 -17 667 -17 m 433 942 q 425 948 428 942 q 426 957 422 954 q 529 1043 476 993 q 562 1071 543 1054 q 593 1097 581 1088 q 638 1092 599 1103 q 708 1067 676 1081 q 725 1050 739 1053 q 436 943 576 1011 l 433 942 z "},"Č":{"ha":881,"x_min":53,"x_max":824,"o":"m 535 -17 q 258 50 367 -17 q 101 220 150 117 q 53 438 53 324 q 120 674 53 572 q 299 829 188 775 q 538 883 410 883 q 672 871 603 883 q 783 840 742 858 q 798 828 794 833 q 801 808 801 822 l 813 632 q 806 628 813 628 q 797 632 800 628 q 672 793 753 738 q 485 849 592 849 q 270 751 346 849 q 194 481 194 653 q 240 245 194 354 q 365 72 286 136 q 539 8 444 8 q 808 222 697 8 q 817 226 811 228 q 824 219 824 225 l 814 61 q 808 38 811 43 q 793 29 804 33 q 535 -17 667 -17 m 365 1090 l 364 1093 q 367 1099 364 1096 q 374 1100 371 1101 l 513 1038 l 650 1100 q 658 1097 653 1101 q 660 1090 663 1092 l 529 938 q 517 932 525 932 q 503 938 508 932 l 365 1090 z "},"Ç":{"ha":881,"x_min":53,"x_max":824,"o":"m 808 222 q 817 226 811 228 q 824 219 824 225 l 814 61 q 808 38 811 43 q 793 29 804 33 q 535 -17 667 -17 q 533 -37 533 -24 q 548 -91 533 -68 q 593 -144 563 -114 q 642 -208 626 -182 q 657 -260 658 -233 q 644 -315 658 -286 q 599 -362 629 -343 q 521 -382 568 -382 q 442 -362 475 -382 q 410 -311 408 -343 q 421 -281 408 -292 q 453 -269 433 -269 q 486 -282 474 -269 q 511 -317 499 -294 q 533 -347 524 -337 q 557 -356 542 -356 q 581 -346 572 -356 q 590 -319 590 -336 q 567 -264 590 -296 q 504 -192 544 -232 q 482 -136 482 -169 q 492 -83 482 -115 l 513 -17 q 249 55 353 -12 q 99 224 146 122 q 53 438 53 326 q 120 674 53 572 q 299 829 188 775 q 538 883 410 883 q 672 871 603 883 q 783 840 742 858 q 798 828 794 833 q 801 808 801 822 l 813 632 q 806 628 813 628 q 797 632 800 628 q 672 793 753 738 q 485 849 592 849 q 270 751 346 849 q 194 481 194 653 q 240 245 194 354 q 365 72 286 136 q 539 8 444 8 q 808 222 697 8 z "},"Ĉ":{"ha":881,"x_min":53,"x_max":824,"o":"m 535 -17 q 258 50 367 -17 q 101 220 150 117 q 53 438 53 324 q 120 674 53 572 q 299 829 188 775 q 538 883 410 883 q 672 871 603 883 q 783 840 742 858 q 798 828 794 833 q 801 808 801 822 l 813 632 q 806 628 813 628 q 797 632 800 628 q 672 793 753 738 q 485 849 592 849 q 270 751 346 849 q 194 481 194 653 q 240 245 194 354 q 365 72 286 136 q 539 8 444 8 q 808 222 697 8 q 817 226 811 228 q 824 219 824 225 l 814 61 q 808 38 811 43 q 793 29 804 33 q 535 -17 667 -17 m 382 917 q 374 920 378 917 q 374 926 371 924 l 504 1078 q 515 1085 508 1085 q 529 1078 522 1085 l 668 926 l 668 924 q 665 917 668 919 q 660 917 663 914 l 521 978 l 383 917 l 382 917 z "},"Ċ":{"ha":881,"x_min":53,"x_max":824,"o":"m 535 -17 q 258 50 367 -17 q 101 220 150 117 q 53 438 53 324 q 120 674 53 572 q 299 829 188 775 q 538 883 410 883 q 672 871 603 883 q 783 840 742 858 q 798 828 794 833 q 801 808 801 822 l 813 632 q 806 628 813 628 q 797 632 800 628 q 672 793 753 738 q 485 849 592 849 q 270 751 346 849 q 194 481 194 653 q 240 245 194 354 q 365 72 286 136 q 539 8 444 8 q 808 222 697 8 q 817 226 811 228 q 824 219 824 225 l 814 61 q 808 38 811 43 q 793 29 804 33 q 535 -17 667 -17 m 519 988 q 463 1008 483 988 q 443 1064 443 1029 q 464 1117 443 1097 q 519 1138 485 1138 q 574 1117 554 1138 q 593 1064 593 1097 q 574 1008 593 1028 q 519 988 554 988 z "},"D":{"ha":943,"x_min":56,"x_max":889,"o":"m 422 -6 q 335 -1 383 -6 q 289 1 317 0 q 228 3 261 3 l 128 1 q 58 0 103 0 q 56 8 56 0 q 58 17 56 17 q 124 24 103 17 q 153 51 146 31 q 160 113 161 71 l 160 756 q 150 817 158 797 q 121 844 142 836 q 58 851 100 851 q 56 860 56 851 q 58 868 56 868 l 126 867 q 225 864 188 864 q 317 868 271 864 q 401 871 375 871 q 656 817 544 871 q 828 667 767 763 q 889 449 889 571 q 824 212 889 315 q 653 51 760 108 q 422 -6 546 -6 m 410 19 q 585 66 510 19 q 703 203 661 113 q 744 418 744 293 q 707 626 744 529 q 592 785 669 724 q 400 846 514 846 q 313 826 336 846 q 290 753 290 806 l 290 128 q 316 44 292 69 q 410 19 340 19 z "},"Ð":{"ha":943,"x_min":53,"x_max":889,"o":"m 401 871 q 656 817 544 871 q 828 667 767 763 q 889 449 889 571 q 824 212 889 315 q 653 51 760 108 q 422 -6 546 -6 q 335 -1 383 -6 q 289 1 317 0 q 228 3 261 3 l 128 1 q 58 0 103 0 q 56 8 56 0 q 58 17 56 17 q 124 24 103 17 q 153 51 146 31 q 160 113 161 71 l 160 414 l 58 414 q 53 432 53 414 q 58 450 53 450 l 160 450 l 160 756 q 150 817 158 797 q 121 844 142 836 q 58 851 100 851 q 56 860 56 851 q 58 868 56 868 l 126 867 q 225 864 188 864 q 317 868 271 864 q 401 871 375 871 m 410 19 q 585 66 510 19 q 703 203 661 113 q 744 418 744 293 q 707 626 744 529 q 592 785 669 724 q 400 846 514 846 q 313 826 336 846 q 290 753 290 806 l 290 450 l 422 450 q 428 432 428 450 q 422 414 428 414 l 290 414 l 290 128 q 316 44 292 69 q 410 19 340 19 z "},"Ď":{"ha":943,"x_min":56,"x_max":889,"o":"m 422 -6 q 335 -1 383 -6 q 289 1 317 0 q 228 3 261 3 l 128 1 q 58 0 103 0 q 56 8 56 0 q 58 17 56 17 q 124 24 103 17 q 153 51 146 31 q 160 113 161 71 l 160 756 q 150 817 158 797 q 121 844 142 836 q 58 851 100 851 q 56 860 56 851 q 58 868 56 868 l 126 867 q 225 864 188 864 q 317 868 271 864 q 401 871 375 871 q 656 817 544 871 q 828 667 767 763 q 889 449 889 571 q 824 212 889 315 q 653 51 760 108 q 422 -6 546 -6 m 410 19 q 585 66 510 19 q 703 203 661 113 q 744 418 744 293 q 707 626 744 529 q 592 785 669 724 q 400 846 514 846 q 313 826 336 846 q 290 753 290 806 l 290 128 q 316 44 292 69 q 410 19 340 19 m 236 1090 l 235 1093 q 238 1099 235 1096 q 244 1100 242 1101 l 383 1038 l 521 1100 q 528 1097 524 1101 q 531 1090 533 1092 l 400 938 q 388 932 396 932 q 374 938 379 932 l 236 1090 z "},"Đ":{"ha":943,"x_min":53,"x_max":889,"o":"m 401 871 q 656 817 544 871 q 828 667 767 763 q 889 449 889 571 q 824 212 889 315 q 653 51 760 108 q 422 -6 546 -6 q 335 -1 383 -6 q 289 1 317 0 q 228 3 261 3 l 128 1 q 58 0 103 0 q 56 8 56 0 q 58 17 56 17 q 124 24 103 17 q 153 51 146 31 q 160 113 161 71 l 160 414 l 58 414 q 53 432 53 414 q 58 450 53 450 l 160 450 l 160 756 q 150 817 158 797 q 121 844 142 836 q 58 851 100 851 q 56 860 56 851 q 58 868 56 868 l 126 867 q 225 864 188 864 q 317 868 271 864 q 401 871 375 871 m 410 19 q 585 66 510 19 q 703 203 661 113 q 744 418 744 293 q 707 626 744 529 q 592 785 669 724 q 400 846 514 846 q 313 826 336 846 q 290 753 290 806 l 290 450 l 422 450 q 428 432 428 450 q 422 414 428 414 l 290 414 l 290 128 q 316 44 292 69 q 410 19 340 19 z "},"Ḍ":{"ha":943,"x_min":56,"x_max":889,"o":"m 422 -6 q 335 -1 383 -6 q 289 1 317 0 q 228 3 261 3 l 128 1 q 58 0 103 0 q 56 8 56 0 q 58 17 56 17 q 124 24 103 17 q 153 51 146 31 q 160 113 161 71 l 160 756 q 150 817 158 797 q 121 844 142 836 q 58 851 100 851 q 56 860 56 851 q 58 868 56 868 l 126 867 q 225 864 188 864 q 317 868 271 864 q 401 871 375 871 q 656 817 544 871 q 828 667 767 763 q 889 449 889 571 q 824 212 889 315 q 653 51 760 108 q 422 -6 546 -6 m 410 19 q 585 66 510 19 q 703 203 661 113 q 744 418 744 293 q 707 626 744 529 q 592 785 669 724 q 400 846 514 846 q 313 826 336 846 q 290 753 290 806 l 290 128 q 316 44 292 69 q 410 19 340 19 m 469 -279 q 413 -259 433 -279 q 393 -203 393 -239 q 414 -150 393 -169 q 469 -131 435 -131 q 524 -150 504 -131 q 543 -203 543 -169 q 524 -259 543 -239 q 469 -279 504 -279 z "},"Ḏ":{"ha":943,"x_min":56,"x_max":889,"o":"m 422 -6 q 335 -1 383 -6 q 289 1 317 0 q 228 3 261 3 l 128 1 q 58 0 103 0 q 56 8 56 0 q 58 17 56 17 q 124 24 103 17 q 153 51 146 31 q 160 113 161 71 l 160 756 q 150 817 158 797 q 121 844 142 836 q 58 851 100 851 q 56 860 56 851 q 58 868 56 868 l 126 867 q 225 864 188 864 q 317 868 271 864 q 401 871 375 871 q 656 817 544 871 q 828 667 767 763 q 889 449 889 571 q 824 212 889 315 q 653 51 760 108 q 422 -6 546 -6 m 410 19 q 585 66 510 19 q 703 203 661 113 q 744 418 744 293 q 707 626 744 529 q 592 785 669 724 q 400 846 514 846 q 313 826 336 846 q 290 753 290 806 l 290 128 q 316 44 292 69 q 410 19 340 19 m 307 -168 q 296 -143 296 -168 q 307 -118 296 -118 l 629 -118 q 638 -126 635 -118 q 642 -143 642 -133 q 638 -160 642 -153 q 629 -168 635 -168 l 307 -168 z "},"E":{"ha":786,"x_min":65,"x_max":738,"o":"m 718 217 q 725 219 721 219 q 733 217 729 219 q 736 214 738 215 q 722 21 722 126 q 718 5 722 10 q 701 0 714 0 l 72 0 q 67 8 67 0 q 71 17 67 17 q 135 24 115 17 q 163 50 156 31 q 169 113 169 69 l 169 756 q 160 817 168 797 q 133 844 153 836 q 71 851 113 851 q 66 860 67 851 q 68 868 65 868 l 663 868 q 674 856 674 868 l 676 676 q 669 671 676 671 q 660 675 661 671 q 588 797 643 751 q 457 842 533 842 l 396 842 q 332 835 351 842 q 306 812 313 829 q 299 754 300 794 l 299 469 l 486 469 q 583 493 553 469 q 614 572 614 517 q 622 578 614 578 q 632 571 633 578 q 633 523 633 546 q 632 490 632 500 q 631 451 631 478 q 632 386 631 408 l 633 314 q 625 307 633 307 q 619 309 622 307 q 615 314 615 311 q 482 433 615 433 l 299 433 l 299 118 q 306 60 299 79 q 333 35 314 42 q 394 28 353 28 l 476 28 q 621 79 556 28 q 718 217 686 131 z "},"É":{"ha":786,"x_min":65,"x_max":736,"o":"m 718 217 q 725 219 721 219 q 733 217 729 219 q 736 214 738 215 q 722 21 722 126 q 718 5 722 10 q 701 0 714 0 l 72 0 q 67 8 67 0 q 71 17 67 17 q 135 24 115 17 q 163 50 156 31 q 169 113 169 69 l 169 756 q 160 817 168 797 q 133 844 153 836 q 71 851 113 851 q 66 860 67 851 q 68 868 65 868 l 663 868 q 674 856 674 868 l 676 676 q 669 671 676 671 q 660 675 661 671 q 588 797 643 751 q 457 842 533 842 l 396 842 q 332 835 351 842 q 306 812 313 829 q 299 754 300 794 l 299 469 l 486 469 q 583 493 553 469 q 614 572 614 517 q 622 578 614 578 q 632 571 633 578 q 633 523 633 546 q 632 490 632 500 q 631 451 631 478 q 632 386 631 408 l 633 314 q 625 307 633 307 q 619 309 622 307 q 615 314 615 311 q 482 433 615 433 l 299 433 l 299 118 q 306 60 299 79 q 333 35 314 42 q 394 28 353 28 l 476 28 q 621 79 556 28 q 718 217 686 131 m 318 942 q 310 948 313 942 q 311 957 307 954 q 414 1043 361 993 q 447 1071 428 1054 q 478 1097 465 1088 q 522 1092 483 1103 q 592 1067 561 1081 q 610 1050 624 1053 q 321 943 461 1011 l 318 942 z "},"Ĕ":{"ha":786,"x_min":65,"x_max":736,"o":"m 718 217 q 725 219 721 219 q 733 217 729 219 q 736 214 738 215 q 722 21 722 126 q 718 5 722 10 q 701 0 714 0 l 72 0 q 67 8 67 0 q 71 17 67 17 q 135 24 115 17 q 163 50 156 31 q 169 113 169 69 l 169 756 q 160 817 168 797 q 133 844 153 836 q 71 851 113 851 q 66 860 67 851 q 68 868 65 868 l 663 868 q 674 856 674 868 l 676 676 q 669 671 676 671 q 660 675 661 671 q 588 797 643 751 q 457 842 533 842 l 396 842 q 332 835 351 842 q 306 812 313 829 q 299 754 300 794 l 299 469 l 486 469 q 583 493 553 469 q 614 572 614 517 q 622 578 614 578 q 632 571 633 578 q 633 523 633 546 q 632 490 632 500 q 631 451 631 478 q 632 386 631 408 l 633 314 q 625 307 633 307 q 619 309 622 307 q 615 314 615 311 q 482 433 615 433 l 299 433 l 299 118 q 306 60 299 79 q 333 35 314 42 q 394 28 353 28 l 476 28 q 621 79 556 28 q 718 217 686 131 m 403 924 q 319 958 357 924 q 269 1054 282 992 q 294 1069 268 1063 q 346 1076 321 1076 q 367 1072 365 1076 q 397 1015 376 1035 q 443 994 418 994 q 486 1013 467 994 q 515 1067 506 1032 q 524 1071 518 1071 q 535 1068 529 1071 q 539 1063 540 1065 q 487 960 525 996 q 403 924 449 924 z "},"Ě":{"ha":786,"x_min":65,"x_max":736,"o":"m 718 217 q 725 219 721 219 q 733 217 729 219 q 736 214 738 215 q 722 21 722 126 q 718 5 722 10 q 701 0 714 0 l 72 0 q 67 8 67 0 q 71 17 67 17 q 135 24 115 17 q 163 50 156 31 q 169 113 169 69 l 169 756 q 160 817 168 797 q 133 844 153 836 q 71 851 113 851 q 66 860 67 851 q 68 868 65 868 l 663 868 q 674 856 674 868 l 676 676 q 669 671 676 671 q 660 675 661 671 q 588 797 643 751 q 457 842 533 842 l 396 842 q 332 835 351 842 q 306 812 313 829 q 299 754 300 794 l 299 469 l 486 469 q 583 493 553 469 q 614 572 614 517 q 622 578 614 578 q 632 571 633 578 q 633 523 633 546 q 632 490 632 500 q 631 451 631 478 q 632 386 631 408 l 633 314 q 625 307 633 307 q 619 309 622 307 q 615 314 615 311 q 482 433 615 433 l 299 433 l 299 118 q 306 60 299 79 q 333 35 314 42 q 394 28 353 28 l 476 28 q 621 79 556 28 q 718 217 686 131 m 250 1090 l 249 1093 q 252 1099 249 1096 q 258 1100 256 1101 l 397 1038 l 535 1100 q 542 1097 538 1101 q 544 1090 547 1092 l 414 938 q 401 932 410 932 q 388 938 393 932 l 250 1090 z "},"Ê":{"ha":786,"x_min":65,"x_max":736,"o":"m 718 217 q 725 219 721 219 q 733 217 729 219 q 736 214 738 215 q 722 21 722 126 q 718 5 722 10 q 701 0 714 0 l 72 0 q 67 8 67 0 q 71 17 67 17 q 135 24 115 17 q 163 50 156 31 q 169 113 169 69 l 169 756 q 160 817 168 797 q 133 844 153 836 q 71 851 113 851 q 66 860 67 851 q 68 868 65 868 l 663 868 q 674 856 674 868 l 676 676 q 669 671 676 671 q 660 675 661 671 q 588 797 643 751 q 457 842 533 842 l 396 842 q 332 835 351 842 q 306 812 313 829 q 299 754 300 794 l 299 469 l 486 469 q 583 493 553 469 q 614 572 614 517 q 622 578 614 578 q 632 571 633 578 q 633 523 633 546 q 632 490 632 500 q 631 451 631 478 q 632 386 631 408 l 633 314 q 625 307 633 307 q 619 309 622 307 q 615 314 615 311 q 482 433 615 433 l 299 433 l 299 118 q 306 60 299 79 q 333 35 314 42 q 394 28 353 28 l 476 28 q 621 79 556 28 q 718 217 686 131 m 267 917 q 259 920 263 917 q 258 926 256 924 l 389 1078 q 400 1085 393 1085 q 414 1078 407 1085 l 553 926 l 553 924 q 550 917 553 919 q 544 917 547 914 l 406 978 l 268 917 l 267 917 z "},"Ế":{"ha":786,"x_min":65,"x_max":736,"o":"m 718 217 q 725 219 721 219 q 733 217 729 219 q 736 214 738 215 q 722 21 722 126 q 718 5 722 10 q 701 0 714 0 l 72 0 q 67 8 67 0 q 71 17 67 17 q 135 24 115 17 q 163 50 156 31 q 169 113 169 69 l 169 756 q 160 817 168 797 q 133 844 153 836 q 71 851 113 851 q 66 860 67 851 q 68 868 65 868 l 663 868 q 674 856 674 868 l 676 676 q 669 671 676 671 q 660 675 661 671 q 588 797 643 751 q 457 842 533 842 l 396 842 q 332 835 351 842 q 306 812 313 829 q 299 754 300 794 l 299 469 l 486 469 q 583 493 553 469 q 614 572 614 517 q 622 578 614 578 q 632 571 633 578 q 633 523 633 546 q 632 490 632 500 q 631 451 631 478 q 632 386 631 408 l 633 314 q 625 307 633 307 q 619 309 622 307 q 615 314 615 311 q 482 433 615 433 l 299 433 l 299 118 q 306 60 299 79 q 333 35 314 42 q 394 28 353 28 l 476 28 q 621 79 556 28 q 718 217 686 131 m 264 917 q 256 920 260 917 q 256 926 253 924 l 386 1078 q 397 1085 390 1085 q 411 1078 404 1085 l 550 926 l 550 924 q 547 917 550 919 q 542 917 544 914 l 403 978 l 265 917 l 264 917 m 497 1006 q 490 1012 493 1006 q 490 1022 488 1018 q 578 1163 543 1094 q 619 1160 582 1171 q 687 1135 657 1150 q 704 1115 717 1121 q 599 1068 646 1093 q 500 1007 553 1043 l 497 1006 z "},"Ệ":{"ha":786,"x_min":65,"x_max":736,"o":"m 718 217 q 725 219 721 219 q 733 217 729 219 q 736 214 738 215 q 722 21 722 126 q 718 5 722 10 q 701 0 714 0 l 72 0 q 67 8 67 0 q 71 17 67 17 q 135 24 115 17 q 163 50 156 31 q 169 113 169 69 l 169 756 q 160 817 168 797 q 133 844 153 836 q 71 851 113 851 q 66 860 67 851 q 68 868 65 868 l 663 868 q 674 856 674 868 l 676 676 q 669 671 676 671 q 660 675 661 671 q 588 797 643 751 q 457 842 533 842 l 396 842 q 332 835 351 842 q 306 812 313 829 q 299 754 300 794 l 299 469 l 486 469 q 583 493 553 469 q 614 572 614 517 q 622 578 614 578 q 632 571 633 578 q 633 523 633 546 q 632 490 632 500 q 631 451 631 478 q 632 386 631 408 l 633 314 q 625 307 633 307 q 619 309 622 307 q 615 314 615 311 q 482 433 615 433 l 299 433 l 299 118 q 306 60 299 79 q 333 35 314 42 q 394 28 353 28 l 476 28 q 621 79 556 28 q 718 217 686 131 m 426 -279 q 370 -259 390 -279 q 350 -203 350 -239 q 371 -150 350 -169 q 426 -131 392 -131 q 481 -150 461 -131 q 500 -203 500 -169 q 481 -259 500 -239 q 426 -279 461 -279 m 267 917 q 259 920 263 917 q 258 926 256 924 l 389 1078 q 400 1085 393 1085 q 414 1078 407 1085 l 553 926 l 553 924 q 550 917 553 919 q 544 917 547 914 l 406 978 l 268 917 l 267 917 z "},"Ề":{"ha":786,"x_min":65,"x_max":736,"o":"m 718 217 q 725 219 721 219 q 733 217 729 219 q 736 214 738 215 q 722 21 722 126 q 718 5 722 10 q 701 0 714 0 l 72 0 q 67 8 67 0 q 71 17 67 17 q 135 24 115 17 q 163 50 156 31 q 169 113 169 69 l 169 756 q 160 817 168 797 q 133 844 153 836 q 71 851 113 851 q 66 860 67 851 q 68 868 65 868 l 663 868 q 674 856 674 868 l 676 676 q 669 671 676 671 q 660 675 661 671 q 588 797 643 751 q 457 842 533 842 l 396 842 q 332 835 351 842 q 306 812 313 829 q 299 754 300 794 l 299 469 l 486 469 q 583 493 553 469 q 614 572 614 517 q 622 578 614 578 q 632 571 633 578 q 633 523 633 546 q 632 490 632 500 q 631 451 631 478 q 632 386 631 408 l 633 314 q 625 307 633 307 q 619 309 622 307 q 615 314 615 311 q 482 433 615 433 l 299 433 l 299 118 q 306 60 299 79 q 333 35 314 42 q 394 28 353 28 l 476 28 q 621 79 556 28 q 718 217 686 131 m 265 917 q 258 920 261 917 q 257 926 254 924 l 388 1078 q 399 1085 392 1085 q 413 1078 406 1085 l 551 926 l 551 924 q 549 917 551 919 q 543 917 546 914 l 404 978 l 267 917 l 265 917 m 622 988 q 424 1096 526 1056 q 439 1116 410 1101 q 506 1141 468 1131 q 547 1143 543 1151 q 635 1003 582 1075 l 636 999 q 632 990 636 994 q 622 988 628 986 z "},"Ể":{"ha":786,"x_min":65,"x_max":736,"o":"m 718 217 q 725 219 721 219 q 733 217 729 219 q 736 214 738 215 q 722 21 722 126 q 718 5 722 10 q 701 0 714 0 l 72 0 q 67 8 67 0 q 71 17 67 17 q 135 24 115 17 q 163 50 156 31 q 169 113 169 69 l 169 756 q 160 817 168 797 q 133 844 153 836 q 71 851 113 851 q 66 860 67 851 q 68 868 65 868 l 663 868 q 674 856 674 868 l 676 676 q 669 671 676 671 q 660 675 661 671 q 588 797 643 751 q 457 842 533 842 l 396 842 q 332 835 351 842 q 306 812 313 829 q 299 754 300 794 l 299 469 l 486 469 q 583 493 553 469 q 614 572 614 517 q 622 578 614 578 q 632 571 633 578 q 633 523 633 546 q 632 490 632 500 q 631 451 631 478 q 632 386 631 408 l 633 314 q 625 307 633 307 q 619 309 622 307 q 615 314 615 311 q 482 433 615 433 l 299 433 l 299 118 q 306 60 299 79 q 333 35 314 42 q 394 28 353 28 l 476 28 q 621 79 556 28 q 718 217 686 131 m 264 913 q 256 916 260 913 q 256 922 253 919 l 386 1074 q 397 1081 390 1081 q 411 1074 404 1081 l 550 922 l 550 919 q 547 913 550 915 q 542 913 544 910 l 403 974 l 265 913 l 264 913 m 507 993 q 504 1013 504 1007 q 511 1046 504 1029 q 519 1065 518 1063 q 535 1115 535 1093 q 522 1147 535 1136 q 490 1158 508 1158 q 464 1153 478 1158 l 461 1151 q 453 1156 457 1151 q 454 1164 450 1161 q 539 1189 494 1189 q 592 1172 572 1189 q 611 1131 611 1156 q 599 1094 611 1111 q 563 1057 586 1078 q 531 1022 540 1036 q 522 993 521 1008 q 516 990 524 990 q 507 993 508 989 z "},"Ễ":{"ha":786,"x_min":65,"x_max":736,"o":"m 718 217 q 725 219 721 219 q 733 217 729 219 q 736 214 738 215 q 722 21 722 126 q 718 5 722 10 q 701 0 714 0 l 72 0 q 67 8 67 0 q 71 17 67 17 q 135 24 115 17 q 163 50 156 31 q 169 113 169 69 l 169 756 q 160 817 168 797 q 133 844 153 836 q 71 851 113 851 q 66 860 67 851 q 68 868 65 868 l 663 868 q 674 856 674 868 l 676 676 q 669 671 676 671 q 660 675 661 671 q 588 797 643 751 q 457 842 533 842 l 396 842 q 332 835 351 842 q 306 812 313 829 q 299 754 300 794 l 299 469 l 486 469 q 583 493 553 469 q 614 572 614 517 q 622 578 614 578 q 632 571 633 578 q 633 523 633 546 q 632 490 632 500 q 631 451 631 478 q 632 386 631 408 l 633 314 q 625 307 633 307 q 619 309 622 307 q 615 314 615 311 q 482 433 615 433 l 299 433 l 299 118 q 306 60 299 79 q 333 35 314 42 q 394 28 353 28 l 476 28 q 621 79 556 28 q 718 217 686 131 m 265 917 q 258 920 261 917 q 257 926 254 924 l 388 1078 q 399 1085 392 1085 q 413 1078 406 1085 l 551 926 l 551 924 q 549 917 551 919 q 543 917 546 914 l 404 978 l 267 917 l 265 917 m 232 1096 q 225 1099 229 1096 q 222 1106 221 1103 q 272 1179 244 1149 q 338 1210 299 1210 q 376 1203 353 1210 q 407 1196 400 1197 q 513 1175 478 1175 q 556 1183 540 1175 q 589 1213 572 1192 q 590 1214 589 1214 q 590 1214 590 1214 q 597 1210 593 1214 q 600 1203 601 1206 q 549 1121 572 1142 q 493 1100 526 1100 q 410 1115 463 1100 q 359 1128 386 1122 q 310 1133 332 1133 q 268 1127 281 1133 q 247 1110 256 1121 q 233 1096 238 1100 l 232 1096 z "},"Ë":{"ha":786,"x_min":65,"x_max":736,"o":"m 718 217 q 725 219 721 219 q 733 217 729 219 q 736 214 738 215 q 722 21 722 126 q 718 5 722 10 q 701 0 714 0 l 72 0 q 67 8 67 0 q 71 17 67 17 q 135 24 115 17 q 163 50 156 31 q 169 113 169 69 l 169 756 q 160 817 168 797 q 133 844 153 836 q 71 851 113 851 q 66 860 67 851 q 68 868 65 868 l 663 868 q 674 856 674 868 l 676 676 q 669 671 676 671 q 660 675 661 671 q 588 797 643 751 q 457 842 533 842 l 396 842 q 332 835 351 842 q 306 812 313 829 q 299 754 300 794 l 299 469 l 486 469 q 583 493 553 469 q 614 572 614 517 q 622 578 614 578 q 632 571 633 578 q 633 523 633 546 q 632 490 632 500 q 631 451 631 478 q 632 386 631 408 l 633 314 q 625 307 633 307 q 619 309 622 307 q 615 314 615 311 q 482 433 615 433 l 299 433 l 299 118 q 306 60 299 79 q 333 35 314 42 q 394 28 353 28 l 476 28 q 621 79 556 28 q 718 217 686 131 m 286 983 q 235 1001 254 983 q 215 1053 215 1019 q 235 1101 215 1083 q 286 1119 254 1119 q 336 1102 318 1119 q 354 1053 354 1085 q 336 1001 354 1019 q 286 983 318 983 m 519 983 q 469 1001 488 983 q 450 1053 450 1019 q 469 1101 450 1083 q 519 1119 488 1119 q 569 1102 551 1119 q 586 1053 586 1085 q 569 1001 586 1019 q 519 983 551 983 z "},"Ė":{"ha":786,"x_min":65,"x_max":736,"o":"m 718 217 q 725 219 721 219 q 733 217 729 219 q 736 214 738 215 q 722 21 722 126 q 718 5 722 10 q 701 0 714 0 l 72 0 q 67 8 67 0 q 71 17 67 17 q 135 24 115 17 q 163 50 156 31 q 169 113 169 69 l 169 756 q 160 817 168 797 q 133 844 153 836 q 71 851 113 851 q 66 860 67 851 q 68 868 65 868 l 663 868 q 674 856 674 868 l 676 676 q 669 671 676 671 q 660 675 661 671 q 588 797 643 751 q 457 842 533 842 l 396 842 q 332 835 351 842 q 306 812 313 829 q 299 754 300 794 l 299 469 l 486 469 q 583 493 553 469 q 614 572 614 517 q 622 578 614 578 q 632 571 633 578 q 633 523 633 546 q 632 490 632 500 q 631 451 631 478 q 632 386 631 408 l 633 314 q 625 307 633 307 q 619 309 622 307 q 615 314 615 311 q 482 433 615 433 l 299 433 l 299 118 q 306 60 299 79 q 333 35 314 42 q 394 28 353 28 l 476 28 q 621 79 556 28 q 718 217 686 131 m 404 988 q 348 1008 368 988 q 328 1064 328 1029 q 349 1117 328 1097 q 404 1138 369 1138 q 458 1117 439 1138 q 478 1064 478 1097 q 458 1008 478 1028 q 404 988 439 988 z "},"Ẹ":{"ha":786,"x_min":65,"x_max":736,"o":"m 718 217 q 725 219 721 219 q 733 217 729 219 q 736 214 738 215 q 722 21 722 126 q 718 5 722 10 q 701 0 714 0 l 72 0 q 67 8 67 0 q 71 17 67 17 q 135 24 115 17 q 163 50 156 31 q 169 113 169 69 l 169 756 q 160 817 168 797 q 133 844 153 836 q 71 851 113 851 q 66 860 67 851 q 68 868 65 868 l 663 868 q 674 856 674 868 l 676 676 q 669 671 676 671 q 660 675 661 671 q 588 797 643 751 q 457 842 533 842 l 396 842 q 332 835 351 842 q 306 812 313 829 q 299 754 300 794 l 299 469 l 486 469 q 583 493 553 469 q 614 572 614 517 q 622 578 614 578 q 632 571 633 578 q 633 523 633 546 q 632 490 632 500 q 631 451 631 478 q 632 386 631 408 l 633 314 q 625 307 633 307 q 619 309 622 307 q 615 314 615 311 q 482 433 615 433 l 299 433 l 299 118 q 306 60 299 79 q 333 35 314 42 q 394 28 353 28 l 476 28 q 621 79 556 28 q 718 217 686 131 m 426 -279 q 370 -259 390 -279 q 350 -203 350 -239 q 371 -150 350 -169 q 426 -131 392 -131 q 481 -150 461 -131 q 500 -203 500 -169 q 481 -259 500 -239 q 426 -279 461 -279 z "},"È":{"ha":786,"x_min":65,"x_max":736,"o":"m 718 217 q 725 219 721 219 q 733 217 729 219 q 736 214 738 215 q 722 21 722 126 q 718 5 722 10 q 701 0 714 0 l 72 0 q 67 8 67 0 q 71 17 67 17 q 135 24 115 17 q 163 50 156 31 q 169 113 169 69 l 169 756 q 160 817 168 797 q 133 844 153 836 q 71 851 113 851 q 66 860 67 851 q 68 868 65 868 l 663 868 q 674 856 674 868 l 676 676 q 669 671 676 671 q 660 675 661 671 q 588 797 643 751 q 457 842 533 842 l 396 842 q 332 835 351 842 q 306 812 313 829 q 299 754 300 794 l 299 469 l 486 469 q 583 493 553 469 q 614 572 614 517 q 622 578 614 578 q 632 571 633 578 q 633 523 633 546 q 632 490 632 500 q 631 451 631 478 q 632 386 631 408 l 633 314 q 625 307 633 307 q 619 309 622 307 q 615 314 615 311 q 482 433 615 433 l 299 433 l 299 118 q 306 60 299 79 q 333 35 314 42 q 394 28 353 28 l 476 28 q 621 79 556 28 q 718 217 686 131 m 543 957 q 403 1008 464 988 q 261 1050 343 1028 q 273 1068 243 1054 q 343 1092 303 1082 q 392 1096 383 1101 q 466 1034 426 1064 q 521 992 506 1004 l 551 969 q 554 964 554 968 q 551 958 554 960 q 543 957 547 956 z "},"Ẻ":{"ha":786,"x_min":65,"x_max":736,"o":"m 718 217 q 725 219 721 219 q 733 217 729 219 q 736 214 738 215 q 722 21 722 126 q 718 5 722 10 q 701 0 714 0 l 72 0 q 67 8 67 0 q 71 17 67 17 q 135 24 115 17 q 163 50 156 31 q 169 113 169 69 l 169 756 q 160 817 168 797 q 133 844 153 836 q 71 851 113 851 q 66 860 67 851 q 68 868 65 868 l 663 868 q 674 856 674 868 l 676 676 q 669 671 676 671 q 660 675 661 671 q 588 797 643 751 q 457 842 533 842 l 396 842 q 332 835 351 842 q 306 812 313 829 q 299 754 300 794 l 299 469 l 486 469 q 583 493 553 469 q 614 572 614 517 q 622 578 614 578 q 632 571 633 578 q 633 523 633 546 q 632 490 632 500 q 631 451 631 478 q 632 386 631 408 l 633 314 q 625 307 633 307 q 619 309 622 307 q 615 314 615 311 q 482 433 615 433 l 299 433 l 299 118 q 306 60 299 79 q 333 35 314 42 q 394 28 353 28 l 476 28 q 621 79 556 28 q 718 217 686 131 m 408 906 q 402 902 410 903 q 393 906 394 901 q 385 953 385 928 q 399 1018 385 976 q 406 1041 400 1022 q 411 1078 411 1060 q 358 1143 411 1143 q 313 1132 335 1143 l 310 1131 q 302 1135 306 1131 q 303 1143 299 1140 q 349 1170 322 1161 q 403 1179 375 1179 q 478 1156 450 1179 q 507 1096 507 1133 q 494 1051 507 1072 q 454 999 481 1029 q 416 949 428 969 q 408 906 404 928 z "},"Ē":{"ha":786,"x_min":65,"x_max":736,"o":"m 718 217 q 725 219 721 219 q 733 217 729 219 q 736 214 738 215 q 722 21 722 126 q 718 5 722 10 q 701 0 714 0 l 72 0 q 67 8 67 0 q 71 17 67 17 q 135 24 115 17 q 163 50 156 31 q 169 113 169 69 l 169 756 q 160 817 168 797 q 133 844 153 836 q 71 851 113 851 q 66 860 67 851 q 68 868 65 868 l 663 868 q 674 856 674 868 l 676 676 q 669 671 676 671 q 660 675 661 671 q 588 797 643 751 q 457 842 533 842 l 396 842 q 332 835 351 842 q 306 812 313 829 q 299 754 300 794 l 299 469 l 486 469 q 583 493 553 469 q 614 572 614 517 q 622 578 614 578 q 632 571 633 578 q 633 523 633 546 q 632 490 632 500 q 631 451 631 478 q 632 386 631 408 l 633 314 q 625 307 633 307 q 619 309 622 307 q 615 314 615 311 q 482 433 615 433 l 299 433 l 299 118 q 306 60 299 79 q 333 35 314 42 q 394 28 353 28 l 476 28 q 621 79 556 28 q 718 217 686 131 m 240 992 q 232 999 235 992 q 229 1017 229 1007 q 232 1034 229 1026 q 240 1042 235 1042 l 563 1042 q 572 1034 568 1042 q 575 1017 575 1026 q 572 999 575 1007 q 563 992 568 992 l 240 992 z "},"Ę":{"ha":786,"x_min":65,"x_max":740,"o":"m 726 -297 q 736 -302 732 -297 q 736 -310 740 -307 q 674 -365 704 -349 q 606 -382 643 -382 q 504 -341 543 -382 q 465 -239 465 -300 q 505 -125 467 -182 q 615 0 543 -68 l 72 0 q 67 8 67 0 q 71 17 67 17 q 135 24 115 17 q 163 50 156 31 q 169 113 169 69 l 169 756 q 160 817 168 797 q 133 844 153 836 q 71 851 113 851 q 66 860 67 851 q 68 868 65 868 l 663 868 q 674 856 674 868 l 676 676 q 669 671 676 671 q 660 675 661 671 q 588 797 643 751 q 457 842 533 842 l 396 842 q 332 835 351 842 q 306 812 313 829 q 299 754 300 794 l 299 469 l 486 469 q 583 493 553 469 q 614 572 614 517 q 622 578 614 578 q 632 571 633 578 q 633 523 633 546 q 632 490 632 500 q 631 451 631 478 q 632 386 631 408 l 633 314 q 625 307 633 307 q 619 309 622 307 q 615 314 615 311 q 482 433 615 433 l 299 433 l 299 118 q 306 60 299 79 q 333 35 314 42 q 394 28 353 28 l 476 28 q 621 79 556 28 q 718 217 686 131 q 725 219 721 219 q 733 217 729 219 q 736 214 738 215 q 722 21 722 126 q 718 5 722 10 q 701 0 714 0 l 643 0 q 585 -99 606 -51 q 564 -196 564 -146 q 589 -290 564 -253 q 660 -328 614 -328 q 725 -297 697 -328 l 726 -297 z "},"Ẽ":{"ha":786,"x_min":65,"x_max":736,"o":"m 718 217 q 725 219 721 219 q 733 217 729 219 q 736 214 738 215 q 722 21 722 126 q 718 5 722 10 q 701 0 714 0 l 72 0 q 67 8 67 0 q 71 17 67 17 q 135 24 115 17 q 163 50 156 31 q 169 113 169 69 l 169 756 q 160 817 168 797 q 133 844 153 836 q 71 851 113 851 q 66 860 67 851 q 68 868 65 868 l 663 868 q 674 856 674 868 l 676 676 q 669 671 676 671 q 660 675 661 671 q 588 797 643 751 q 457 842 533 842 l 396 842 q 332 835 351 842 q 306 812 313 829 q 299 754 300 794 l 299 469 l 486 469 q 583 493 553 469 q 614 572 614 517 q 622 578 614 578 q 632 571 633 578 q 633 523 633 546 q 632 490 632 500 q 631 451 631 478 q 632 386 631 408 l 633 314 q 625 307 633 307 q 619 309 622 307 q 615 314 615 311 q 482 433 615 433 l 299 433 l 299 118 q 306 60 299 79 q 333 35 314 42 q 394 28 353 28 l 476 28 q 621 79 556 28 q 718 217 686 131 m 236 957 q 233 956 236 956 q 227 960 231 956 q 225 967 224 964 q 338 1071 275 1071 q 408 1056 357 1071 q 450 1045 417 1054 q 513 1036 483 1036 q 556 1044 540 1036 q 590 1074 572 1053 l 592 1074 q 599 1070 594 1074 q 601 1064 603 1067 q 549 981 572 1001 q 493 960 526 960 q 411 976 469 960 q 361 989 388 983 q 313 994 335 994 q 268 987 281 994 q 236 957 256 979 z "},"F":{"ha":725,"x_min":60,"x_max":672,"o":"m 672 676 q 664 671 672 671 q 654 675 656 671 q 584 797 639 751 q 453 842 529 842 l 392 842 q 326 835 346 842 q 301 812 307 829 q 293 754 294 794 l 293 453 l 454 453 q 551 477 521 453 q 581 557 581 501 q 590 563 581 563 q 599 557 599 563 l 597 433 q 599 369 597 390 l 600 297 q 593 292 600 292 q 587 294 590 292 q 583 299 583 296 q 549 387 583 357 q 450 417 515 417 l 293 417 l 293 118 q 306 54 294 75 q 350 25 318 33 q 449 17 382 17 q 453 8 453 17 q 449 0 453 0 q 386 1 411 0 l 226 3 l 133 1 q 65 0 108 0 q 61 8 61 0 q 65 17 61 17 q 130 24 110 17 q 157 50 150 31 q 164 113 164 69 l 164 756 q 156 817 164 797 q 128 844 149 836 q 64 851 107 851 q 60 860 61 851 q 64 868 60 868 l 657 868 q 666 865 664 868 q 668 856 668 863 l 672 676 z "},"G":{"ha":949,"x_min":54,"x_max":903,"o":"m 550 -17 q 285 43 397 -17 q 114 206 174 103 q 54 439 54 310 q 122 668 54 567 q 305 826 189 769 q 564 883 421 883 q 693 872 629 883 q 796 840 757 860 q 810 828 807 833 q 814 808 813 822 l 826 636 q 819 629 826 631 q 810 632 813 628 q 690 793 768 736 q 507 850 613 850 q 278 753 360 850 q 196 490 196 656 q 247 240 196 349 q 389 71 299 131 q 593 11 479 11 q 676 25 647 11 q 718 74 706 39 q 731 175 731 108 q 719 274 731 244 q 675 314 707 304 q 569 324 643 324 q 563 335 563 324 q 568 346 563 346 q 751 339 676 339 q 896 343 821 339 q 902 333 901 343 q 897 324 903 324 q 868 317 876 325 q 857 289 860 310 q 854 218 854 268 l 854 161 q 858 74 854 99 q 863 39 863 49 q 860 28 863 31 q 850 22 858 25 q 550 -17 678 -17 z "},"Ğ":{"ha":949,"x_min":54,"x_max":903,"o":"m 550 -17 q 285 43 397 -17 q 114 206 174 103 q 54 439 54 310 q 122 668 54 567 q 305 826 189 769 q 564 883 421 883 q 693 872 629 883 q 796 840 757 860 q 810 828 807 833 q 814 808 813 822 l 826 636 q 819 629 826 631 q 810 632 813 628 q 690 793 768 736 q 507 850 613 850 q 278 753 360 850 q 196 490 196 656 q 247 240 196 349 q 389 71 299 131 q 593 11 479 11 q 676 25 647 11 q 718 74 706 39 q 731 175 731 108 q 719 274 731 244 q 675 314 707 304 q 569 324 643 324 q 563 335 563 324 q 568 346 563 346 q 751 339 676 339 q 896 343 821 339 q 902 333 901 343 q 897 324 903 324 q 868 317 876 325 q 857 289 860 310 q 854 218 854 268 l 854 161 q 858 74 854 99 q 863 39 863 49 q 860 28 863 31 q 850 22 858 25 q 550 -17 678 -17 m 529 924 q 446 958 483 924 q 396 1054 408 992 q 421 1069 394 1063 q 472 1076 447 1076 q 493 1072 490 1076 q 524 1015 503 1035 q 569 994 544 994 q 613 1013 593 994 q 642 1067 632 1032 q 650 1071 643 1071 q 661 1068 656 1071 q 665 1063 667 1065 q 613 960 651 996 q 529 924 575 924 z "},"Ǧ":{"ha":949,"x_min":54,"x_max":903,"o":"m 550 -17 q 285 43 397 -17 q 114 206 174 103 q 54 439 54 310 q 122 668 54 567 q 305 826 189 769 q 564 883 421 883 q 693 872 629 883 q 796 840 757 860 q 810 828 807 833 q 814 808 813 822 l 826 636 q 819 629 826 631 q 810 632 813 628 q 690 793 768 736 q 507 850 613 850 q 278 753 360 850 q 196 490 196 656 q 247 240 196 349 q 389 71 299 131 q 593 11 479 11 q 676 25 647 11 q 718 74 706 39 q 731 175 731 108 q 719 274 731 244 q 675 314 707 304 q 569 324 643 324 q 563 335 563 324 q 568 346 563 346 q 751 339 676 339 q 896 343 821 339 q 902 333 901 343 q 897 324 903 324 q 868 317 876 325 q 857 289 860 310 q 854 218 854 268 l 854 161 q 858 74 854 99 q 863 39 863 49 q 860 28 863 31 q 850 22 858 25 q 550 -17 678 -17 m 383 1090 l 382 1093 q 385 1099 382 1096 q 392 1100 389 1101 l 531 1038 l 668 1100 q 676 1097 671 1101 q 678 1090 681 1092 l 547 938 q 535 932 543 932 q 521 938 526 932 l 383 1090 z "},"Ĝ":{"ha":949,"x_min":54,"x_max":903,"o":"m 550 -17 q 285 43 397 -17 q 114 206 174 103 q 54 439 54 310 q 122 668 54 567 q 305 826 189 769 q 564 883 421 883 q 693 872 629 883 q 796 840 757 860 q 810 828 807 833 q 814 808 813 822 l 826 636 q 819 629 826 631 q 810 632 813 628 q 690 793 768 736 q 507 850 613 850 q 278 753 360 850 q 196 490 196 656 q 247 240 196 349 q 389 71 299 131 q 593 11 479 11 q 676 25 647 11 q 718 74 706 39 q 731 175 731 108 q 719 274 731 244 q 675 314 707 304 q 569 324 643 324 q 563 335 563 324 q 568 346 563 346 q 751 339 676 339 q 896 343 821 339 q 902 333 901 343 q 897 324 903 324 q 868 317 876 325 q 857 289 860 310 q 854 218 854 268 l 854 161 q 858 74 854 99 q 863 39 863 49 q 860 28 863 31 q 850 22 858 25 q 550 -17 678 -17 m 400 917 q 392 920 396 917 q 392 926 389 924 l 522 1078 q 533 1085 526 1085 q 547 1078 540 1085 l 686 926 l 686 924 q 683 917 686 919 q 678 917 681 914 l 539 978 l 401 917 l 400 917 z "},"Ģ":{"ha":949,"x_min":54,"x_max":903,"o":"m 550 -17 q 285 43 397 -17 q 114 206 174 103 q 54 439 54 310 q 122 668 54 567 q 305 826 189 769 q 564 883 421 883 q 693 872 629 883 q 796 840 757 860 q 810 828 807 833 q 814 808 813 822 l 826 636 q 819 629 826 631 q 810 632 813 628 q 690 793 768 736 q 507 850 613 850 q 278 753 360 850 q 196 490 196 656 q 247 240 196 349 q 389 71 299 131 q 593 11 479 11 q 676 25 647 11 q 718 74 706 39 q 731 175 731 108 q 719 274 731 244 q 675 314 707 304 q 569 324 643 324 q 563 335 563 324 q 568 346 563 346 q 751 339 676 339 q 896 343 821 339 q 902 333 901 343 q 897 324 903 324 q 868 317 876 325 q 857 289 860 310 q 854 218 854 268 l 854 161 q 858 74 854 99 q 863 39 863 49 q 860 28 863 31 q 850 22 858 25 q 550 -17 678 -17 m 567 -103 q 634 -132 611 -103 q 657 -212 657 -161 q 631 -304 657 -264 q 558 -382 606 -344 l 556 -383 q 547 -378 550 -383 q 549 -369 544 -372 q 613 -265 613 -318 q 601 -222 613 -236 q 550 -246 589 -246 q 503 -226 521 -246 q 486 -175 486 -207 q 509 -122 486 -140 q 567 -103 532 -103 z "},"Ġ":{"ha":949,"x_min":54,"x_max":903,"o":"m 550 -17 q 285 43 397 -17 q 114 206 174 103 q 54 439 54 310 q 122 668 54 567 q 305 826 189 769 q 564 883 421 883 q 693 872 629 883 q 796 840 757 860 q 810 828 807 833 q 814 808 813 822 l 826 636 q 819 629 826 631 q 810 632 813 628 q 690 793 768 736 q 507 850 613 850 q 278 753 360 850 q 196 490 196 656 q 247 240 196 349 q 389 71 299 131 q 593 11 479 11 q 676 25 647 11 q 718 74 706 39 q 731 175 731 108 q 719 274 731 244 q 675 314 707 304 q 569 324 643 324 q 563 335 563 324 q 568 346 563 346 q 751 339 676 339 q 896 343 821 339 q 902 333 901 343 q 897 324 903 324 q 868 317 876 325 q 857 289 860 310 q 854 218 854 268 l 854 161 q 858 74 854 99 q 863 39 863 49 q 860 28 863 31 q 850 22 858 25 q 550 -17 678 -17 m 538 988 q 481 1008 501 988 q 461 1064 461 1029 q 482 1117 461 1097 q 538 1138 503 1138 q 592 1117 572 1138 q 611 1064 611 1097 q 592 1008 611 1028 q 538 988 572 988 z "},"Ḡ":{"ha":949,"x_min":54,"x_max":903,"o":"m 550 -17 q 285 43 397 -17 q 114 206 174 103 q 54 439 54 310 q 122 668 54 567 q 305 826 189 769 q 564 883 421 883 q 693 872 629 883 q 796 840 757 860 q 810 828 807 833 q 814 808 813 822 l 826 636 q 819 629 826 631 q 810 632 813 628 q 690 793 768 736 q 507 850 613 850 q 278 753 360 850 q 196 490 196 656 q 247 240 196 349 q 389 71 299 131 q 593 11 479 11 q 676 25 647 11 q 718 74 706 39 q 731 175 731 108 q 719 274 731 244 q 675 314 707 304 q 569 324 643 324 q 563 335 563 324 q 568 346 563 346 q 751 339 676 339 q 896 343 821 339 q 902 333 901 343 q 897 324 903 324 q 868 317 876 325 q 857 289 860 310 q 854 218 854 268 l 854 161 q 858 74 854 99 q 863 39 863 49 q 860 28 863 31 q 850 22 858 25 q 550 -17 678 -17 m 375 992 q 364 1017 364 992 q 375 1042 364 1042 l 697 1042 q 706 1034 703 1042 q 710 1017 710 1026 q 706 999 710 1007 q 697 992 703 992 l 375 992 z "},"H":{"ha":1013,"x_min":57,"x_max":957,"o":"m 954 17 q 957 8 957 17 q 954 0 957 0 q 890 1 915 0 l 790 3 l 693 1 q 624 0 668 0 q 619 8 619 0 q 624 17 619 17 q 688 24 668 17 q 715 50 708 31 q 721 113 721 69 l 719 433 l 290 433 l 290 113 q 298 51 290 71 q 326 24 306 31 q 392 17 347 17 q 396 8 396 17 q 392 0 396 0 q 322 1 347 0 l 222 3 l 129 1 q 63 0 106 0 q 58 8 58 0 q 63 17 57 17 q 126 24 107 17 q 153 50 146 31 q 160 113 160 69 l 160 756 q 153 816 161 796 q 125 844 146 836 q 63 851 104 851 q 58 860 58 851 q 63 868 58 868 l 126 867 q 224 864 188 864 q 322 867 261 864 l 392 868 q 394 860 394 868 q 392 851 394 851 q 326 843 347 851 q 299 815 306 835 q 290 753 292 794 l 290 469 l 719 469 l 719 753 q 713 815 719 794 q 685 843 706 835 q 622 851 664 851 q 619 860 619 851 q 622 868 618 868 l 689 867 q 786 864 747 864 q 881 867 822 864 l 950 868 q 954 860 954 868 q 950 851 954 851 q 887 844 907 851 q 859 817 867 836 q 849 756 851 797 l 849 113 q 858 51 850 71 q 889 24 867 32 q 954 17 911 17 z "},"Ħ":{"ha":1013,"x_min":57,"x_max":957,"o":"m 954 17 q 957 8 957 17 q 954 0 957 0 q 890 1 915 0 l 790 3 l 693 1 q 624 0 668 0 q 619 8 619 0 q 624 17 619 17 q 688 24 668 17 q 715 50 708 31 q 721 113 721 69 l 721 304 l 290 304 l 290 113 q 298 51 290 71 q 326 24 306 31 q 392 17 347 17 q 396 8 396 17 q 392 0 396 0 q 322 1 347 0 l 222 3 l 129 1 q 63 0 106 0 q 58 8 58 0 q 63 17 57 17 q 126 24 107 17 q 153 50 146 31 q 160 113 160 69 l 160 756 q 153 816 161 796 q 125 844 146 836 q 63 851 104 851 q 58 860 58 851 q 63 868 58 868 l 126 867 q 224 864 188 864 q 322 867 261 864 l 392 868 q 394 860 394 868 q 392 851 394 851 q 326 843 347 851 q 299 815 306 835 q 290 753 292 794 l 290 600 l 719 600 l 719 753 q 713 815 719 794 q 685 843 706 835 q 622 851 664 851 q 619 860 619 851 q 622 868 618 868 l 689 867 q 786 864 747 864 q 881 867 822 864 l 950 868 q 954 860 954 868 q 950 851 954 851 q 887 844 907 851 q 859 817 867 836 q 849 756 851 797 l 849 113 q 858 51 850 71 q 889 24 867 32 q 954 17 911 17 m 290 340 l 721 340 l 719 564 l 290 564 l 290 340 z "},"Ḫ":{"ha":1013,"x_min":58,"x_max":957,"o":"m 954 17 q 957 8 957 17 q 954 0 957 0 q 890 1 915 0 l 790 3 l 693 1 q 624 0 668 0 q 619 8 619 0 q 624 17 619 17 q 688 24 668 17 q 715 50 708 31 q 721 113 721 69 l 719 433 l 290 433 l 290 113 q 298 51 290 71 q 326 24 306 31 q 392 17 347 17 q 396 8 396 17 q 392 0 396 0 q 322 1 347 0 l 222 3 l 129 1 q 63 0 106 0 q 58 8 58 0 q 63 17 57 17 q 126 24 107 17 q 153 50 146 31 q 160 113 160 69 l 160 756 q 153 816 161 796 q 125 844 146 836 q 63 851 104 851 q 58 860 58 851 q 63 868 58 868 l 126 867 q 224 864 188 864 q 322 867 261 864 l 392 868 q 394 860 394 868 q 392 851 394 851 q 326 843 347 851 q 299 815 306 835 q 290 753 292 794 l 290 469 l 719 469 l 719 753 q 713 815 719 794 q 685 843 706 835 q 622 851 664 851 q 619 860 619 851 q 622 868 618 868 l 689 867 q 786 864 747 864 q 881 867 822 864 l 950 868 q 954 860 954 868 q 950 851 954 851 q 887 844 907 851 q 859 817 867 836 q 849 756 851 797 l 849 113 q 858 51 850 71 q 889 24 867 32 q 954 17 911 17 m 513 -272 q 429 -238 467 -272 q 379 -142 392 -204 q 404 -126 378 -133 q 456 -119 431 -119 q 476 -124 474 -119 q 507 -181 486 -161 q 553 -201 528 -201 q 596 -183 576 -201 q 625 -129 615 -164 q 633 -125 626 -125 q 644 -128 639 -125 q 649 -133 650 -131 q 597 -236 635 -200 q 513 -272 558 -272 z "},"Ĥ":{"ha":1013,"x_min":58,"x_max":957,"o":"m 954 17 q 957 8 957 17 q 954 0 957 0 q 890 1 915 0 l 790 3 l 693 1 q 624 0 668 0 q 619 8 619 0 q 624 17 619 17 q 688 24 668 17 q 715 50 708 31 q 721 113 721 69 l 719 433 l 290 433 l 290 113 q 298 51 290 71 q 326 24 306 31 q 392 17 347 17 q 396 8 396 17 q 392 0 396 0 q 322 1 347 0 l 222 3 l 129 1 q 63 0 106 0 q 58 8 58 0 q 63 17 57 17 q 126 24 107 17 q 153 50 146 31 q 160 113 160 69 l 160 756 q 153 816 161 796 q 125 844 146 836 q 63 851 104 851 q 58 860 58 851 q 63 868 58 868 l 126 867 q 224 864 188 864 q 322 867 261 864 l 392 868 q 394 860 394 868 q 392 851 394 851 q 326 843 347 851 q 299 815 306 835 q 290 753 292 794 l 290 469 l 719 469 l 719 753 q 713 815 719 794 q 685 843 706 835 q 622 851 664 851 q 619 860 619 851 q 622 868 618 868 l 689 867 q 786 864 747 864 q 881 867 822 864 l 950 868 q 954 860 954 868 q 950 851 954 851 q 887 844 907 851 q 859 817 867 836 q 849 756 851 797 l 849 113 q 858 51 850 71 q 889 24 867 32 q 954 17 911 17 m 371 917 q 363 920 367 917 q 363 926 360 924 l 493 1078 q 504 1085 497 1085 q 518 1078 511 1085 l 657 926 l 657 924 q 654 917 657 919 q 649 917 651 914 l 510 978 l 372 917 l 371 917 z "},"Ḥ":{"ha":1013,"x_min":58,"x_max":957,"o":"m 954 17 q 957 8 957 17 q 954 0 957 0 q 890 1 915 0 l 790 3 l 693 1 q 624 0 668 0 q 619 8 619 0 q 624 17 619 17 q 688 24 668 17 q 715 50 708 31 q 721 113 721 69 l 719 433 l 290 433 l 290 113 q 298 51 290 71 q 326 24 306 31 q 392 17 347 17 q 396 8 396 17 q 392 0 396 0 q 322 1 347 0 l 222 3 l 129 1 q 63 0 106 0 q 58 8 58 0 q 63 17 57 17 q 126 24 107 17 q 153 50 146 31 q 160 113 160 69 l 160 756 q 153 816 161 796 q 125 844 146 836 q 63 851 104 851 q 58 860 58 851 q 63 868 58 868 l 126 867 q 224 864 188 864 q 322 867 261 864 l 392 868 q 394 860 394 868 q 392 851 394 851 q 326 843 347 851 q 299 815 306 835 q 290 753 292 794 l 290 469 l 719 469 l 719 753 q 713 815 719 794 q 685 843 706 835 q 622 851 664 851 q 619 860 619 851 q 622 868 618 868 l 689 867 q 786 864 747 864 q 881 867 822 864 l 950 868 q 954 860 954 868 q 950 851 954 851 q 887 844 907 851 q 859 817 867 836 q 849 756 851 797 l 849 113 q 858 51 850 71 q 889 24 867 32 q 954 17 911 17 m 526 -279 q 470 -259 490 -279 q 450 -203 450 -239 q 471 -150 450 -169 q 526 -131 492 -131 q 581 -150 561 -131 q 600 -203 600 -169 q 581 -259 600 -239 q 526 -279 561 -279 z "},"I":{"ha":483,"x_min":71,"x_max":411,"o":"m 75 0 q 72 8 72 0 q 75 17 72 17 q 140 24 119 17 q 169 51 161 31 q 175 113 176 71 l 175 756 q 167 816 175 796 q 138 844 158 836 q 75 851 118 851 q 72 860 72 851 q 75 868 71 868 l 142 867 q 239 864 203 864 q 343 867 282 864 l 407 868 q 411 860 411 868 q 407 851 411 851 q 342 843 363 851 q 315 815 322 835 q 307 753 308 796 l 307 113 q 315 51 307 71 q 343 24 322 31 q 407 17 364 17 q 411 8 411 17 q 407 0 411 0 q 340 1 365 0 l 242 3 l 146 1 q 75 0 119 0 z "},"Ĳ":{"ha":929,"x_min":32,"x_max":911,"o":"m 40 374 q 33 382 33 374 q 39 390 32 390 q 108 397 86 390 q 136 424 129 404 q 143 486 143 443 l 143 756 q 135 817 143 797 q 106 844 128 836 q 39 851 85 851 q 33 860 33 851 q 39 868 33 868 l 114 867 q 213 864 175 864 q 319 867 256 864 l 388 868 q 394 860 394 868 q 388 851 394 851 q 318 843 340 851 q 289 815 296 835 q 281 753 282 796 l 281 486 q 288 424 281 444 q 317 397 296 404 q 386 390 339 390 q 392 382 392 390 q 388 374 393 374 q 314 375 340 374 l 210 376 l 111 375 q 40 374 85 374 m 460 -19 q 295 13 369 -19 q 179 94 221 44 q 138 196 138 144 q 153 240 138 224 q 203 257 169 257 q 263 232 247 257 q 290 154 279 207 q 313 78 300 107 q 359 28 325 49 q 456 7 393 7 q 623 78 569 7 q 676 278 676 150 l 676 756 q 667 817 676 797 q 633 844 658 836 q 554 851 608 851 q 550 860 550 851 q 554 868 550 868 l 639 867 q 742 864 703 864 q 839 867 781 864 l 904 868 q 911 860 911 868 q 904 851 911 851 q 843 843 863 851 q 817 815 824 835 q 811 753 811 794 l 813 358 q 768 153 813 239 q 643 24 724 68 q 460 -19 563 -19 z "},"Í":{"ha":483,"x_min":71,"x_max":447,"o":"m 75 0 q 72 8 72 0 q 75 17 72 17 q 140 24 119 17 q 169 51 161 31 q 175 113 176 71 l 175 756 q 167 816 175 796 q 138 844 158 836 q 75 851 118 851 q 72 860 72 851 q 75 868 71 868 l 142 867 q 239 864 203 864 q 343 867 282 864 l 407 868 q 411 860 411 868 q 407 851 411 851 q 342 843 363 851 q 315 815 322 835 q 307 753 308 796 l 307 113 q 315 51 307 71 q 343 24 322 31 q 407 17 364 17 q 411 8 411 17 q 407 0 411 0 q 340 1 365 0 l 242 3 l 146 1 q 75 0 119 0 m 151 942 q 143 948 146 942 q 144 957 140 954 q 247 1043 194 993 q 280 1071 261 1054 q 311 1097 299 1088 q 356 1092 317 1103 q 426 1067 394 1081 q 443 1050 457 1053 q 154 943 294 1011 l 151 942 z "},"Ĭ":{"ha":483,"x_min":71,"x_max":411,"o":"m 75 0 q 72 8 72 0 q 75 17 72 17 q 140 24 119 17 q 169 51 161 31 q 175 113 176 71 l 175 756 q 167 816 175 796 q 138 844 158 836 q 75 851 118 851 q 72 860 72 851 q 75 868 71 868 l 142 867 q 239 864 203 864 q 343 867 282 864 l 407 868 q 411 860 411 868 q 407 851 411 851 q 342 843 363 851 q 315 815 322 835 q 307 753 308 796 l 307 113 q 315 51 307 71 q 343 24 322 31 q 407 17 364 17 q 411 8 411 17 q 407 0 411 0 q 340 1 365 0 l 242 3 l 146 1 q 75 0 119 0 m 236 924 q 153 958 190 924 q 103 1054 115 992 q 128 1069 101 1063 q 179 1076 154 1076 q 200 1072 199 1076 q 231 1015 210 1035 q 276 994 251 994 q 319 1013 300 994 q 349 1067 339 1032 q 357 1071 351 1071 q 368 1068 363 1071 q 372 1063 374 1065 q 320 960 358 996 q 236 924 282 924 z "},"Ǐ":{"ha":483,"x_min":71,"x_max":411,"o":"m 75 0 q 72 8 72 0 q 75 17 72 17 q 140 24 119 17 q 169 51 161 31 q 175 113 176 71 l 175 756 q 167 816 175 796 q 138 844 158 836 q 75 851 118 851 q 72 860 72 851 q 75 868 71 868 l 142 867 q 239 864 203 864 q 343 867 282 864 l 407 868 q 411 860 411 868 q 407 851 411 851 q 342 843 363 851 q 315 815 322 835 q 307 753 308 796 l 307 113 q 315 51 307 71 q 343 24 322 31 q 407 17 364 17 q 411 8 411 17 q 407 0 411 0 q 340 1 365 0 l 242 3 l 146 1 q 75 0 119 0 m 83 1090 l 82 1093 q 85 1099 82 1096 q 92 1100 89 1101 l 231 1038 l 368 1100 q 376 1097 371 1101 q 378 1090 381 1092 l 247 938 q 235 932 243 932 q 221 938 226 932 l 83 1090 z "},"Î":{"ha":483,"x_min":71,"x_max":411,"o":"m 75 0 q 72 8 72 0 q 75 17 72 17 q 140 24 119 17 q 169 51 161 31 q 175 113 176 71 l 175 756 q 167 816 175 796 q 138 844 158 836 q 75 851 118 851 q 72 860 72 851 q 75 868 71 868 l 142 867 q 239 864 203 864 q 343 867 282 864 l 407 868 q 411 860 411 868 q 407 851 411 851 q 342 843 363 851 q 315 815 322 835 q 307 753 308 796 l 307 113 q 315 51 307 71 q 343 24 322 31 q 407 17 364 17 q 411 8 411 17 q 407 0 411 0 q 340 1 365 0 l 242 3 l 146 1 q 75 0 119 0 m 100 917 q 92 920 96 917 q 92 926 89 924 l 222 1078 q 233 1085 226 1085 q 247 1078 240 1085 l 386 926 l 386 924 q 383 917 386 919 q 378 917 381 914 l 239 978 l 101 917 l 100 917 z "},"Ï":{"ha":483,"x_min":65,"x_max":411,"o":"m 75 0 q 72 8 72 0 q 75 17 72 17 q 140 24 119 17 q 169 51 161 31 q 175 113 176 71 l 175 756 q 167 816 175 796 q 138 844 158 836 q 75 851 118 851 q 72 860 72 851 q 75 868 71 868 l 142 867 q 239 864 203 864 q 343 867 282 864 l 407 868 q 411 860 411 868 q 407 851 411 851 q 342 843 363 851 q 315 815 322 835 q 307 753 308 796 l 307 113 q 315 51 307 71 q 343 24 322 31 q 407 17 364 17 q 411 8 411 17 q 407 0 411 0 q 340 1 365 0 l 242 3 l 146 1 q 75 0 119 0 m 136 983 q 84 1001 103 983 q 65 1053 65 1019 q 84 1102 65 1085 q 136 1119 103 1119 q 186 1102 168 1119 q 204 1053 204 1085 q 186 1001 204 1019 q 136 983 168 983 m 340 983 q 288 1001 307 983 q 269 1053 269 1019 q 289 1101 269 1083 q 340 1119 308 1119 q 390 1102 372 1119 q 408 1053 408 1085 q 390 1001 408 1019 q 340 983 372 983 z "},"İ":{"ha":483,"x_min":71,"x_max":411,"o":"m 75 0 q 72 8 72 0 q 75 17 72 17 q 140 24 119 17 q 169 51 161 31 q 175 113 176 71 l 175 756 q 167 816 175 796 q 138 844 158 836 q 75 851 118 851 q 72 860 72 851 q 75 868 71 868 l 142 867 q 239 864 203 864 q 343 867 282 864 l 407 868 q 411 860 411 868 q 407 851 411 851 q 342 843 363 851 q 315 815 322 835 q 307 753 308 796 l 307 113 q 315 51 307 71 q 343 24 322 31 q 407 17 364 17 q 411 8 411 17 q 407 0 411 0 q 340 1 365 0 l 242 3 l 146 1 q 75 0 119 0 m 238 988 q 181 1008 201 988 q 161 1064 161 1029 q 182 1117 161 1097 q 238 1138 203 1138 q 292 1117 272 1138 q 311 1064 311 1097 q 292 1008 311 1028 q 238 988 272 988 z "},"Ị":{"ha":483,"x_min":71,"x_max":411,"o":"m 75 0 q 72 8 72 0 q 75 17 72 17 q 140 24 119 17 q 169 51 161 31 q 175 113 176 71 l 175 756 q 167 816 175 796 q 138 844 158 836 q 75 851 118 851 q 72 860 72 851 q 75 868 71 868 l 142 867 q 239 864 203 864 q 343 867 282 864 l 407 868 q 411 860 411 868 q 407 851 411 851 q 342 843 363 851 q 315 815 322 835 q 307 753 308 796 l 307 113 q 315 51 307 71 q 343 24 322 31 q 407 17 364 17 q 411 8 411 17 q 407 0 411 0 q 340 1 365 0 l 242 3 l 146 1 q 75 0 119 0 m 243 -279 q 187 -259 207 -279 q 167 -203 167 -239 q 188 -150 167 -169 q 243 -131 208 -131 q 297 -150 278 -131 q 317 -203 317 -169 q 297 -259 317 -239 q 243 -279 278 -279 z "},"Ì":{"ha":483,"x_min":71,"x_max":411,"o":"m 75 0 q 72 8 72 0 q 75 17 72 17 q 140 24 119 17 q 169 51 161 31 q 175 113 176 71 l 175 756 q 167 816 175 796 q 138 844 158 836 q 75 851 118 851 q 72 860 72 851 q 75 868 71 868 l 142 867 q 239 864 203 864 q 343 867 282 864 l 407 868 q 411 860 411 868 q 407 851 411 851 q 342 843 363 851 q 315 815 322 835 q 307 753 308 796 l 307 113 q 315 51 307 71 q 343 24 322 31 q 407 17 364 17 q 411 8 411 17 q 407 0 411 0 q 340 1 365 0 l 242 3 l 146 1 q 75 0 119 0 m 376 957 q 237 1008 297 988 q 94 1050 176 1028 q 106 1068 76 1054 q 176 1092 136 1082 q 225 1096 217 1101 q 299 1034 260 1064 q 354 992 339 1004 l 385 969 q 388 964 388 968 q 384 958 388 960 q 376 957 381 956 z "},"Ỉ":{"ha":483,"x_min":71,"x_max":411,"o":"m 75 0 q 72 8 72 0 q 75 17 72 17 q 140 24 119 17 q 169 51 161 31 q 175 113 176 71 l 175 756 q 167 816 175 796 q 138 844 158 836 q 75 851 118 851 q 72 860 72 851 q 75 868 71 868 l 142 867 q 239 864 203 864 q 343 867 282 864 l 407 868 q 411 860 411 868 q 407 851 411 851 q 342 843 363 851 q 315 815 322 835 q 307 753 308 796 l 307 113 q 315 51 307 71 q 343 24 322 31 q 407 17 364 17 q 411 8 411 17 q 407 0 411 0 q 340 1 365 0 l 242 3 l 146 1 q 75 0 119 0 m 242 906 q 235 902 243 903 q 226 906 228 901 q 218 953 218 928 q 232 1018 218 976 q 239 1041 233 1022 q 244 1078 244 1060 q 192 1143 244 1143 q 146 1132 168 1143 l 143 1131 q 135 1135 139 1131 q 136 1143 132 1140 q 182 1170 156 1161 q 236 1179 208 1179 q 312 1156 283 1179 q 340 1096 340 1133 q 327 1051 340 1072 q 288 999 314 1029 q 249 949 261 969 q 242 906 238 928 z "},"Ī":{"ha":483,"x_min":63,"x_max":411,"o":"m 75 0 q 72 8 72 0 q 75 17 72 17 q 140 24 119 17 q 169 51 161 31 q 175 113 176 71 l 175 756 q 167 816 175 796 q 138 844 158 836 q 75 851 118 851 q 72 860 72 851 q 75 868 71 868 l 142 867 q 239 864 203 864 q 343 867 282 864 l 407 868 q 411 860 411 868 q 407 851 411 851 q 342 843 363 851 q 315 815 322 835 q 307 753 308 796 l 307 113 q 315 51 307 71 q 343 24 322 31 q 407 17 364 17 q 411 8 411 17 q 407 0 411 0 q 340 1 365 0 l 242 3 l 146 1 q 75 0 119 0 m 74 992 q 65 999 68 992 q 63 1017 63 1007 q 65 1034 63 1026 q 74 1042 68 1042 l 396 1042 q 405 1034 401 1042 q 408 1017 408 1026 q 405 999 408 1007 q 396 992 401 992 l 74 992 z "},"Į":{"ha":483,"x_min":71,"x_max":411,"o":"m 407 17 q 411 8 411 17 q 407 0 411 0 q 347 1 368 0 l 260 3 q 221 -196 215 -100 q 244 -288 222 -251 q 306 -325 267 -325 q 363 -299 339 -325 l 365 -297 q 373 -302 369 -297 q 374 -310 376 -307 q 313 -365 343 -349 q 246 -382 283 -382 q 156 -340 190 -382 q 122 -235 122 -299 q 151 -122 122 -178 q 236 3 181 -65 l 143 1 q 75 0 118 0 q 72 8 72 0 q 75 17 72 17 q 140 24 119 17 q 169 51 161 31 q 175 113 176 71 l 175 756 q 167 816 175 796 q 138 844 158 836 q 75 851 118 851 q 72 860 72 851 q 75 868 71 868 l 142 867 q 239 864 203 864 q 343 867 282 864 l 407 868 q 411 860 411 868 q 407 851 411 851 q 342 843 363 851 q 315 815 322 835 q 307 753 308 796 l 307 113 q 315 51 307 71 q 343 24 322 31 q 407 17 364 17 z "},"Ĩ":{"ha":483,"x_min":50,"x_max":426,"o":"m 75 0 q 72 8 72 0 q 75 17 72 17 q 140 24 119 17 q 169 51 161 31 q 175 113 176 71 l 175 756 q 167 816 175 796 q 138 844 158 836 q 75 851 118 851 q 72 860 72 851 q 75 868 71 868 l 142 867 q 239 864 203 864 q 343 867 282 864 l 407 868 q 411 860 411 868 q 407 851 411 851 q 342 843 363 851 q 315 815 322 835 q 307 753 308 796 l 307 113 q 315 51 307 71 q 343 24 322 31 q 407 17 364 17 q 411 8 411 17 q 407 0 411 0 q 340 1 365 0 l 242 3 l 146 1 q 75 0 119 0 m 61 957 q 60 956 61 956 q 60 956 60 956 q 53 960 57 956 q 50 967 49 964 q 164 1071 100 1071 q 203 1065 179 1071 q 233 1057 226 1058 q 288 1042 258 1049 q 340 1036 317 1036 q 384 1044 368 1036 q 415 1074 400 1053 l 417 1074 q 424 1070 421 1074 q 426 1064 428 1067 q 376 981 397 1001 q 321 960 354 960 q 236 976 294 960 q 186 989 213 983 q 138 994 160 994 q 97 988 110 994 q 75 972 85 982 q 61 957 65 961 z "},"J":{"ha":450,"x_min":47,"x_max":399,"o":"m 60 -268 q 51 -262 56 -269 q 51 -253 47 -256 q 139 -139 113 -215 q 163 56 165 -62 l 163 756 q 154 816 163 796 q 125 844 146 836 q 61 851 104 851 q 58 860 58 851 q 61 868 58 868 l 132 867 q 224 864 190 864 q 331 867 269 864 l 393 868 q 398 860 397 868 q 393 851 399 851 q 328 843 349 851 q 301 815 308 835 q 293 753 294 794 l 293 93 q 270 -83 293 -15 q 197 -192 247 -150 q 60 -268 147 -233 z "},"Ĵ":{"ha":450,"x_min":50,"x_max":397,"o":"m 60 -268 q 51 -262 56 -269 q 51 -253 47 -256 q 139 -139 113 -215 q 163 56 165 -62 l 163 756 q 154 816 163 796 q 125 844 146 836 q 61 851 104 851 q 58 860 58 851 q 61 868 58 868 l 132 867 q 224 864 190 864 q 331 867 269 864 l 393 868 q 398 860 397 868 q 393 851 399 851 q 328 843 349 851 q 301 815 308 835 q 293 753 294 794 l 293 93 q 270 -83 293 -15 q 197 -192 247 -150 q 60 -268 147 -233 m 83 917 q 76 920 79 917 q 75 926 72 924 l 206 1078 q 217 1085 210 1085 q 231 1078 224 1085 l 369 926 l 369 924 q 367 917 369 919 q 361 917 364 914 l 222 978 l 85 917 l 83 917 z "},"K":{"ha":922,"x_min":56,"x_max":925,"o":"m 921 17 q 925 8 925 17 q 921 0 925 0 l 783 0 q 692 8 711 0 q 626 88 674 15 q 533 217 578 160 l 343 467 l 290 415 l 290 113 q 294 48 290 65 q 317 24 299 31 q 385 17 336 17 q 388 8 388 17 q 385 0 388 0 q 319 1 342 0 l 221 3 l 126 1 q 58 0 101 0 q 56 8 56 0 q 58 17 56 17 q 124 24 103 17 q 152 51 144 31 q 160 113 160 71 l 160 756 q 152 817 160 797 q 124 844 144 836 q 63 851 104 851 q 58 860 58 851 q 63 868 58 868 l 126 867 q 224 864 188 864 q 322 867 261 864 l 392 868 q 394 860 394 868 q 392 851 394 851 q 326 843 347 851 q 299 815 306 835 q 290 753 292 796 l 290 454 l 571 738 q 608 807 608 778 q 590 840 608 828 q 536 851 571 851 q 531 860 531 851 q 535 868 531 868 l 604 867 q 719 864 676 864 q 814 867 764 864 l 865 868 q 869 860 869 868 q 865 851 869 851 q 737 820 806 851 q 608 729 668 789 l 429 551 l 624 293 q 775 104 728 158 q 851 33 822 50 q 921 17 881 17 z "},"Ḱ":{"ha":922,"x_min":56,"x_max":925,"o":"m 921 17 q 925 8 925 17 q 921 0 925 0 l 783 0 q 692 8 711 0 q 626 88 674 15 q 533 217 578 160 l 343 467 l 290 415 l 290 113 q 294 48 290 65 q 317 24 299 31 q 385 17 336 17 q 388 8 388 17 q 385 0 388 0 q 319 1 342 0 l 221 3 l 126 1 q 58 0 101 0 q 56 8 56 0 q 58 17 56 17 q 124 24 103 17 q 152 51 144 31 q 160 113 160 71 l 160 756 q 152 817 160 797 q 124 844 144 836 q 63 851 104 851 q 58 860 58 851 q 63 868 58 868 l 126 867 q 224 864 188 864 q 322 867 261 864 l 392 868 q 394 860 394 868 q 392 851 394 851 q 326 843 347 851 q 299 815 306 835 q 290 753 292 796 l 290 454 l 571 738 q 608 807 608 778 q 590 840 608 828 q 536 851 571 851 q 531 860 531 851 q 535 868 531 868 l 604 867 q 719 864 676 864 q 814 867 764 864 l 865 868 q 869 860 869 868 q 865 851 869 851 q 737 820 806 851 q 608 729 668 789 l 429 551 l 624 293 q 775 104 728 158 q 851 33 822 50 q 921 17 881 17 m 386 942 q 378 948 381 942 q 379 957 375 954 q 482 1043 429 993 q 515 1071 496 1054 q 546 1097 533 1088 q 590 1092 551 1103 q 660 1067 629 1081 q 678 1050 692 1053 q 389 943 529 1011 l 386 942 z "},"Ǩ":{"ha":922,"x_min":56,"x_max":925,"o":"m 921 17 q 925 8 925 17 q 921 0 925 0 l 783 0 q 692 8 711 0 q 626 88 674 15 q 533 217 578 160 l 343 467 l 290 415 l 290 113 q 294 48 290 65 q 317 24 299 31 q 385 17 336 17 q 388 8 388 17 q 385 0 388 0 q 319 1 342 0 l 221 3 l 126 1 q 58 0 101 0 q 56 8 56 0 q 58 17 56 17 q 124 24 103 17 q 152 51 144 31 q 160 113 160 71 l 160 756 q 152 817 160 797 q 124 844 144 836 q 63 851 104 851 q 58 860 58 851 q 63 868 58 868 l 126 867 q 224 864 188 864 q 322 867 261 864 l 392 868 q 394 860 394 868 q 392 851 394 851 q 326 843 347 851 q 299 815 306 835 q 290 753 292 796 l 290 454 l 571 738 q 608 807 608 778 q 590 840 608 828 q 536 851 571 851 q 531 860 531 851 q 535 868 531 868 l 604 867 q 719 864 676 864 q 814 867 764 864 l 865 868 q 869 860 869 868 q 865 851 869 851 q 737 820 806 851 q 608 729 668 789 l 429 551 l 624 293 q 775 104 728 158 q 851 33 822 50 q 921 17 881 17 m 318 1090 l 317 1093 q 320 1099 317 1096 q 326 1100 324 1101 l 465 1038 l 603 1100 q 610 1097 606 1101 q 613 1090 615 1092 l 482 938 q 469 932 478 932 q 456 938 461 932 l 318 1090 z "},"Ķ":{"ha":922,"x_min":56,"x_max":925,"o":"m 921 17 q 925 8 925 17 q 921 0 925 0 l 783 0 q 692 8 711 0 q 626 88 674 15 q 533 217 578 160 l 343 467 l 290 415 l 290 113 q 294 48 290 65 q 317 24 299 31 q 385 17 336 17 q 388 8 388 17 q 385 0 388 0 q 319 1 342 0 l 221 3 l 126 1 q 58 0 101 0 q 56 8 56 0 q 58 17 56 17 q 124 24 103 17 q 152 51 144 31 q 160 113 160 71 l 160 756 q 152 817 160 797 q 124 844 144 836 q 63 851 104 851 q 58 860 58 851 q 63 868 58 868 l 126 867 q 224 864 188 864 q 322 867 261 864 l 392 868 q 394 860 394 868 q 392 851 394 851 q 326 843 347 851 q 299 815 306 835 q 290 753 292 796 l 290 454 l 571 738 q 608 807 608 778 q 590 840 608 828 q 536 851 571 851 q 531 860 531 851 q 535 868 531 868 l 604 867 q 719 864 676 864 q 814 867 764 864 l 865 868 q 869 860 869 868 q 865 851 869 851 q 737 820 806 851 q 608 729 668 789 l 429 551 l 624 293 q 775 104 728 158 q 851 33 822 50 q 921 17 881 17 m 503 -103 q 570 -132 547 -103 q 593 -212 593 -161 q 567 -304 593 -264 q 494 -382 542 -344 l 492 -383 q 483 -378 486 -383 q 485 -369 481 -372 q 549 -265 549 -318 q 538 -222 549 -236 q 486 -246 525 -246 q 440 -226 457 -246 q 422 -175 422 -207 q 445 -122 422 -140 q 503 -103 468 -103 z "},"L":{"ha":751,"x_min":57,"x_max":743,"o":"m 60 0 q 57 8 57 0 q 60 17 57 17 q 126 24 106 17 q 153 50 146 31 q 160 113 160 69 l 160 756 q 152 817 160 797 q 124 844 144 836 q 63 851 104 851 q 58 860 58 851 q 63 868 58 868 l 126 867 q 224 864 188 864 q 322 867 261 864 l 392 868 q 394 860 394 868 q 392 851 394 851 q 326 844 346 851 q 299 817 306 836 q 290 754 292 797 l 290 118 q 307 45 290 63 q 375 28 324 28 l 451 28 q 620 78 554 28 q 724 229 686 128 q 729 232 724 232 q 738 230 733 232 q 743 225 743 228 q 732 21 732 117 q 710 0 732 0 l 60 0 z "},"Ĺ":{"ha":751,"x_min":57,"x_max":743,"o":"m 60 0 q 57 8 57 0 q 60 17 57 17 q 126 24 106 17 q 153 50 146 31 q 160 113 160 69 l 160 756 q 152 817 160 797 q 124 844 144 836 q 63 851 104 851 q 58 860 58 851 q 63 868 58 868 l 126 867 q 224 864 188 864 q 322 867 261 864 l 392 868 q 394 860 394 868 q 392 851 394 851 q 326 844 346 851 q 299 817 306 836 q 290 754 292 797 l 290 118 q 307 45 290 63 q 375 28 324 28 l 451 28 q 620 78 554 28 q 724 229 686 128 q 729 232 724 232 q 738 230 733 232 q 743 225 743 228 q 732 21 732 117 q 710 0 732 0 l 60 0 m 138 942 q 129 948 132 942 q 131 957 126 954 q 233 1043 181 993 q 266 1071 247 1054 q 297 1097 285 1088 q 342 1092 303 1103 q 412 1067 381 1081 q 429 1050 443 1053 q 140 943 281 1011 l 138 942 z "},"Ľ":{"ha":751,"x_min":57,"x_max":743,"o":"m 60 0 q 57 8 57 0 q 60 17 57 17 q 126 24 106 17 q 153 50 146 31 q 160 113 160 69 l 160 756 q 152 817 160 797 q 124 844 144 836 q 63 851 104 851 q 58 860 58 851 q 63 868 58 868 l 126 867 q 224 864 188 864 q 322 867 261 864 l 392 868 q 394 860 394 868 q 392 851 394 851 q 326 844 346 851 q 299 817 306 836 q 290 754 292 797 l 290 118 q 307 45 290 63 q 375 28 324 28 l 451 28 q 620 78 554 28 q 724 229 686 128 q 729 232 724 232 q 738 230 733 232 q 743 225 743 228 q 732 21 732 117 q 710 0 732 0 l 60 0 m 550 868 q 576 865 551 875 q 621 840 600 856 q 640 813 642 824 l 575 490 q 567 488 574 488 q 560 490 561 488 l 550 868 z "},"Ļ":{"ha":751,"x_min":57,"x_max":743,"o":"m 60 0 q 57 8 57 0 q 60 17 57 17 q 126 24 106 17 q 153 50 146 31 q 160 113 160 69 l 160 756 q 152 817 160 797 q 124 844 144 836 q 63 851 104 851 q 58 860 58 851 q 63 868 58 868 l 126 867 q 224 864 188 864 q 322 867 261 864 l 392 868 q 394 860 394 868 q 392 851 394 851 q 326 844 346 851 q 299 817 306 836 q 290 754 292 797 l 290 118 q 307 45 290 63 q 375 28 324 28 l 451 28 q 620 78 554 28 q 724 229 686 128 q 729 232 724 232 q 738 230 733 232 q 743 225 743 228 q 732 21 732 117 q 710 0 732 0 l 60 0 m 436 -103 q 503 -132 481 -103 q 526 -212 526 -161 q 501 -304 526 -264 q 428 -382 475 -344 l 425 -383 q 417 -378 419 -383 q 418 -369 414 -372 q 482 -265 482 -318 q 471 -222 482 -236 q 419 -246 458 -246 q 373 -226 390 -246 q 356 -175 356 -207 q 378 -122 356 -140 q 436 -103 401 -103 z "},"Ŀ":{"ha":751,"x_min":57,"x_max":743,"o":"m 60 0 q 57 8 57 0 q 60 17 57 17 q 126 24 106 17 q 153 50 146 31 q 160 113 160 69 l 160 756 q 152 817 160 797 q 124 844 144 836 q 63 851 104 851 q 58 860 58 851 q 63 868 58 868 l 126 867 q 224 864 188 864 q 322 867 261 864 l 392 868 q 394 860 394 868 q 392 851 394 851 q 326 844 346 851 q 299 817 306 836 q 290 754 292 797 l 290 118 q 307 45 290 63 q 375 28 324 28 l 451 28 q 620 78 554 28 q 724 229 686 128 q 729 232 724 232 q 738 230 733 232 q 743 225 743 228 q 732 21 732 117 q 710 0 732 0 l 60 0 m 613 357 q 557 378 578 357 q 536 433 536 399 q 557 486 536 467 q 613 506 578 506 q 668 486 649 506 q 688 433 688 467 q 668 377 688 397 q 613 357 649 357 z "},"Ḷ":{"ha":751,"x_min":57,"x_max":743,"o":"m 60 0 q 57 8 57 0 q 60 17 57 17 q 126 24 106 17 q 153 50 146 31 q 160 113 160 69 l 160 756 q 152 817 160 797 q 124 844 144 836 q 63 851 104 851 q 58 860 58 851 q 63 868 58 868 l 126 867 q 224 864 188 864 q 322 867 261 864 l 392 868 q 394 860 394 868 q 392 851 394 851 q 326 844 346 851 q 299 817 306 836 q 290 754 292 797 l 290 118 q 307 45 290 63 q 375 28 324 28 l 451 28 q 620 78 554 28 q 724 229 686 128 q 729 232 724 232 q 738 230 733 232 q 743 225 743 228 q 732 21 732 117 q 710 0 732 0 l 60 0 m 438 -279 q 381 -259 401 -279 q 361 -203 361 -239 q 382 -150 361 -169 q 438 -131 403 -131 q 492 -150 472 -131 q 511 -203 511 -169 q 492 -259 511 -239 q 438 -279 472 -279 z "},"Ḹ":{"ha":751,"x_min":50,"x_max":743,"o":"m 60 0 q 57 8 57 0 q 60 17 57 17 q 126 24 106 17 q 153 50 146 31 q 160 113 160 69 l 160 756 q 152 817 160 797 q 124 844 144 836 q 63 851 104 851 q 58 860 58 851 q 63 868 58 868 l 126 867 q 224 864 188 864 q 322 867 261 864 l 392 868 q 394 860 394 868 q 392 851 394 851 q 326 844 346 851 q 299 817 306 836 q 290 754 292 797 l 290 118 q 307 45 290 63 q 375 28 324 28 l 451 28 q 620 78 554 28 q 724 229 686 128 q 729 232 724 232 q 738 230 733 232 q 743 225 743 228 q 732 21 732 117 q 710 0 732 0 l 60 0 m 438 -279 q 381 -259 401 -279 q 361 -203 361 -239 q 382 -150 361 -169 q 438 -131 403 -131 q 492 -150 472 -131 q 511 -203 511 -169 q 492 -259 511 -239 q 438 -279 472 -279 m 61 992 q 50 1017 50 992 q 61 1042 50 1042 l 383 1042 q 392 1034 389 1042 q 396 1017 396 1026 q 392 999 396 1007 q 383 992 389 992 l 61 992 z "},"Ḻ":{"ha":751,"x_min":57,"x_max":743,"o":"m 60 0 q 57 8 57 0 q 60 17 57 17 q 126 24 106 17 q 153 50 146 31 q 160 113 160 69 l 160 756 q 152 817 160 797 q 124 844 144 836 q 63 851 104 851 q 58 860 58 851 q 63 868 58 868 l 126 867 q 224 864 188 864 q 322 867 261 864 l 392 868 q 394 860 394 868 q 392 851 394 851 q 326 844 346 851 q 299 817 306 836 q 290 754 292 797 l 290 118 q 307 45 290 63 q 375 28 324 28 l 451 28 q 620 78 554 28 q 724 229 686 128 q 729 232 724 232 q 738 230 733 232 q 743 225 743 228 q 732 21 732 117 q 710 0 732 0 l 60 0 m 275 -168 q 264 -143 264 -168 q 275 -118 264 -118 l 597 -118 q 606 -126 603 -118 q 610 -143 610 -133 q 606 -160 610 -153 q 597 -168 603 -168 l 275 -168 z "},"Ł":{"ha":764,"x_min":68,"x_max":754,"o":"m 735 229 q 740 232 735 232 q 749 230 744 232 q 754 225 754 228 q 743 21 743 117 q 721 0 743 0 l 71 0 q 68 8 68 0 q 71 17 68 17 q 137 24 117 17 q 164 50 157 31 q 171 113 171 69 l 171 361 l 94 308 l 93 308 q 81 319 88 308 q 78 332 74 329 l 171 396 l 171 756 q 163 817 171 797 q 135 844 156 836 q 74 851 115 851 q 69 860 69 851 q 74 868 69 868 l 138 867 q 235 864 199 864 q 333 867 272 864 l 403 868 q 406 860 406 868 q 403 851 406 851 q 337 844 357 851 q 310 817 317 836 q 301 754 303 797 l 301 486 l 385 543 l 388 544 q 400 534 393 544 q 403 521 407 524 l 301 451 l 301 118 q 318 45 301 63 q 386 28 335 28 l 463 28 q 631 78 565 28 q 735 229 697 128 z "},"M":{"ha":1113,"x_min":60,"x_max":1082,"o":"m 1076 17 q 1081 8 1081 17 q 1076 0 1082 0 q 1013 1 1036 0 l 911 3 l 815 1 q 747 0 792 0 q 743 8 743 0 q 747 17 743 17 q 814 24 793 17 q 842 51 835 31 q 847 113 850 71 l 828 774 l 550 10 q 540 4 550 4 q 529 11 532 4 l 217 747 l 214 171 q 240 56 213 96 q 321 17 267 17 q 324 8 324 17 q 321 0 325 0 q 267 1 286 0 l 189 3 l 121 1 q 63 0 100 0 q 60 8 60 0 q 63 17 60 17 q 144 56 115 17 q 174 168 174 96 l 181 806 q 67 851 136 851 q 63 860 63 851 q 67 868 63 868 q 103 867 90 868 l 157 865 l 236 867 q 267 868 249 868 q 297 854 285 868 q 328 796 308 840 l 585 194 l 814 833 q 832 858 819 849 q 861 868 844 868 q 893 867 881 868 l 949 865 l 1011 867 q 1051 868 1025 868 q 1056 860 1056 868 q 1053 851 1056 851 q 979 836 1003 851 q 956 778 956 821 q 957 758 956 765 l 976 113 q 987 51 979 71 q 1014 24 994 31 q 1076 17 1033 17 z "},"Ṁ":{"ha":1113,"x_min":60,"x_max":1081,"o":"m 1076 17 q 1081 8 1081 17 q 1076 0 1082 0 q 1013 1 1036 0 l 911 3 l 815 1 q 747 0 792 0 q 743 8 743 0 q 747 17 743 17 q 814 24 793 17 q 842 51 835 31 q 847 113 850 71 l 828 774 l 550 10 q 540 4 550 4 q 529 11 532 4 l 217 747 l 214 171 q 240 56 213 96 q 321 17 267 17 q 324 8 324 17 q 321 0 325 0 q 267 1 286 0 l 189 3 l 121 1 q 63 0 100 0 q 60 8 60 0 q 63 17 60 17 q 144 56 115 17 q 174 168 174 96 l 181 806 q 67 851 136 851 q 63 860 63 851 q 67 868 63 868 q 103 867 90 868 l 157 865 l 236 867 q 267 868 249 868 q 297 854 285 868 q 328 796 308 840 l 585 194 l 814 833 q 832 858 819 849 q 861 868 844 868 q 893 867 881 868 l 949 865 l 1011 867 q 1051 868 1025 868 q 1056 860 1056 868 q 1053 851 1056 851 q 979 836 1003 851 q 956 778 956 821 q 957 758 956 765 l 976 113 q 987 51 979 71 q 1014 24 994 31 q 1076 17 1033 17 m 569 988 q 513 1008 533 988 q 493 1064 493 1029 q 514 1117 493 1097 q 569 1138 535 1138 q 624 1117 604 1138 q 643 1064 643 1097 q 624 1008 643 1028 q 569 988 604 988 z "},"Ṃ":{"ha":1113,"x_min":60,"x_max":1081,"o":"m 1076 17 q 1081 8 1081 17 q 1076 0 1082 0 q 1013 1 1036 0 l 911 3 l 815 1 q 747 0 792 0 q 743 8 743 0 q 747 17 743 17 q 814 24 793 17 q 842 51 835 31 q 847 113 850 71 l 828 774 l 550 10 q 540 4 550 4 q 529 11 532 4 l 217 747 l 214 171 q 240 56 213 96 q 321 17 267 17 q 324 8 324 17 q 321 0 325 0 q 267 1 286 0 l 189 3 l 121 1 q 63 0 100 0 q 60 8 60 0 q 63 17 60 17 q 144 56 115 17 q 174 168 174 96 l 181 806 q 67 851 136 851 q 63 860 63 851 q 67 868 63 868 q 103 867 90 868 l 157 865 l 236 867 q 267 868 249 868 q 297 854 285 868 q 328 796 308 840 l 585 194 l 814 833 q 832 858 819 849 q 861 868 844 868 q 893 867 881 868 l 949 865 l 1011 867 q 1051 868 1025 868 q 1056 860 1056 868 q 1053 851 1056 851 q 979 836 1003 851 q 956 778 956 821 q 957 758 956 765 l 976 113 q 987 51 979 71 q 1014 24 994 31 q 1076 17 1033 17 m 557 -279 q 501 -259 521 -279 q 481 -203 481 -239 q 501 -150 481 -169 q 557 -131 522 -131 q 611 -150 592 -131 q 631 -203 631 -169 q 611 -259 631 -239 q 557 -279 592 -279 z "},"N":{"ha":983,"x_min":36,"x_max":956,"o":"m 951 868 q 956 860 956 868 q 951 851 956 851 q 863 815 894 851 q 831 711 831 778 l 829 -11 q 822 -17 829 -15 q 808 -19 815 -19 q 793 -14 797 -19 l 206 733 l 204 157 q 235 53 204 89 q 322 17 265 17 q 328 8 328 17 q 322 0 328 0 q 267 1 286 0 l 185 3 l 107 1 q 44 0 85 0 q 39 8 39 0 q 44 17 39 17 q 133 53 101 17 q 165 157 165 89 l 167 781 q 101 835 132 819 q 40 851 71 851 q 36 860 36 851 q 40 868 36 868 l 107 867 q 163 865 128 865 q 219 867 196 865 q 250 868 242 868 q 267 863 261 868 q 282 842 272 857 q 314 796 297 817 l 790 189 l 792 711 q 763 815 793 779 q 674 851 732 851 q 668 860 668 851 q 674 868 668 868 l 725 867 q 811 864 775 864 q 889 867 839 864 l 951 868 z "},"Ń":{"ha":983,"x_min":36,"x_max":956,"o":"m 951 868 q 956 860 956 868 q 951 851 956 851 q 863 815 894 851 q 831 711 831 778 l 829 -11 q 822 -17 829 -15 q 808 -19 815 -19 q 793 -14 797 -19 l 206 733 l 204 157 q 235 53 204 89 q 322 17 265 17 q 328 8 328 17 q 322 0 328 0 q 267 1 286 0 l 185 3 l 107 1 q 44 0 85 0 q 39 8 39 0 q 44 17 39 17 q 133 53 101 17 q 165 157 165 89 l 167 781 q 101 835 132 819 q 40 851 71 851 q 36 860 36 851 q 40 868 36 868 l 107 867 q 163 865 128 865 q 219 867 196 865 q 250 868 242 868 q 267 863 261 868 q 282 842 272 857 q 314 796 297 817 l 790 189 l 792 711 q 763 815 793 779 q 674 851 732 851 q 668 860 668 851 q 674 868 668 868 l 725 867 q 811 864 775 864 q 889 867 839 864 l 951 868 m 400 942 q 392 948 394 942 q 393 957 389 954 q 496 1043 443 993 q 528 1071 510 1054 q 560 1097 547 1088 q 604 1092 565 1103 q 674 1067 643 1081 q 692 1050 706 1053 q 403 943 543 1011 l 400 942 z "},"Ň":{"ha":983,"x_min":36,"x_max":956,"o":"m 951 868 q 956 860 956 868 q 951 851 956 851 q 863 815 894 851 q 831 711 831 778 l 829 -11 q 822 -17 829 -15 q 808 -19 815 -19 q 793 -14 797 -19 l 206 733 l 204 157 q 235 53 204 89 q 322 17 265 17 q 328 8 328 17 q 322 0 328 0 q 267 1 286 0 l 185 3 l 107 1 q 44 0 85 0 q 39 8 39 0 q 44 17 39 17 q 133 53 101 17 q 165 157 165 89 l 167 781 q 101 835 132 819 q 40 851 71 851 q 36 860 36 851 q 40 868 36 868 l 107 867 q 163 865 128 865 q 219 867 196 865 q 250 868 242 868 q 267 863 261 868 q 282 842 272 857 q 314 796 297 817 l 790 189 l 792 711 q 763 815 793 779 q 674 851 732 851 q 668 860 668 851 q 674 868 668 868 l 725 867 q 811 864 775 864 q 889 867 839 864 l 951 868 m 332 1090 l 331 1093 q 334 1099 331 1096 q 340 1100 338 1101 l 479 1038 l 617 1100 q 624 1097 619 1101 q 626 1090 629 1092 l 496 938 q 483 932 492 932 q 469 938 475 932 l 332 1090 z "},"Ņ":{"ha":983,"x_min":36,"x_max":956,"o":"m 951 868 q 956 860 956 868 q 951 851 956 851 q 863 815 894 851 q 831 711 831 778 l 829 -11 q 822 -17 829 -15 q 808 -19 815 -19 q 793 -14 797 -19 l 206 733 l 204 157 q 235 53 204 89 q 322 17 265 17 q 328 8 328 17 q 322 0 328 0 q 267 1 286 0 l 185 3 l 107 1 q 44 0 85 0 q 39 8 39 0 q 44 17 39 17 q 133 53 101 17 q 165 157 165 89 l 167 781 q 101 835 132 819 q 40 851 71 851 q 36 860 36 851 q 40 868 36 868 l 107 867 q 163 865 128 865 q 219 867 196 865 q 250 868 242 868 q 267 863 261 868 q 282 842 272 857 q 314 796 297 817 l 790 189 l 792 711 q 763 815 793 779 q 674 851 732 851 q 668 860 668 851 q 674 868 668 868 l 725 867 q 811 864 775 864 q 889 867 839 864 l 951 868 m 522 -103 q 590 -132 567 -103 q 613 -212 613 -161 q 587 -304 613 -264 q 514 -382 561 -344 l 511 -383 q 503 -378 506 -383 q 504 -369 500 -372 q 568 -265 568 -318 q 557 -222 568 -236 q 506 -246 544 -246 q 459 -226 476 -246 q 442 -175 442 -207 q 465 -122 442 -140 q 522 -103 488 -103 z "},"Ṅ":{"ha":983,"x_min":36,"x_max":956,"o":"m 951 868 q 956 860 956 868 q 951 851 956 851 q 863 815 894 851 q 831 711 831 778 l 829 -11 q 822 -17 829 -15 q 808 -19 815 -19 q 793 -14 797 -19 l 206 733 l 204 157 q 235 53 204 89 q 322 17 265 17 q 328 8 328 17 q 322 0 328 0 q 267 1 286 0 l 185 3 l 107 1 q 44 0 85 0 q 39 8 39 0 q 44 17 39 17 q 133 53 101 17 q 165 157 165 89 l 167 781 q 101 835 132 819 q 40 851 71 851 q 36 860 36 851 q 40 868 36 868 l 107 867 q 163 865 128 865 q 219 867 196 865 q 250 868 242 868 q 267 863 261 868 q 282 842 272 857 q 314 796 297 817 l 790 189 l 792 711 q 763 815 793 779 q 674 851 732 851 q 668 860 668 851 q 674 868 668 868 l 725 867 q 811 864 775 864 q 889 867 839 864 l 951 868 m 486 988 q 430 1008 450 988 q 410 1064 410 1029 q 431 1117 410 1097 q 486 1138 451 1138 q 540 1117 521 1138 q 560 1064 560 1097 q 540 1008 560 1028 q 486 988 521 988 z "},"Ṇ":{"ha":983,"x_min":36,"x_max":956,"o":"m 951 868 q 956 860 956 868 q 951 851 956 851 q 863 815 894 851 q 831 711 831 778 l 829 -11 q 822 -17 829 -15 q 808 -19 815 -19 q 793 -14 797 -19 l 206 733 l 204 157 q 235 53 204 89 q 322 17 265 17 q 328 8 328 17 q 322 0 328 0 q 267 1 286 0 l 185 3 l 107 1 q 44 0 85 0 q 39 8 39 0 q 44 17 39 17 q 133 53 101 17 q 165 157 165 89 l 167 781 q 101 835 132 819 q 40 851 71 851 q 36 860 36 851 q 40 868 36 868 l 107 867 q 163 865 128 865 q 219 867 196 865 q 250 868 242 868 q 267 863 261 868 q 282 842 272 857 q 314 796 297 817 l 790 189 l 792 711 q 763 815 793 779 q 674 851 732 851 q 668 860 668 851 q 674 868 668 868 l 725 867 q 811 864 775 864 q 889 867 839 864 l 951 868 m 524 -279 q 467 -259 488 -279 q 447 -203 447 -239 q 468 -150 447 -169 q 524 -131 489 -131 q 578 -150 558 -131 q 597 -203 597 -169 q 578 -259 597 -239 q 524 -279 558 -279 z "},"Ŋ":{"ha":983,"x_min":36,"x_max":956,"o":"m 951 868 q 956 860 956 868 q 951 851 956 851 q 863 815 894 851 q 831 711 831 778 l 829 -11 q 785 -201 828 -137 q 660 -265 743 -265 q 561 -237 601 -265 q 521 -167 521 -208 q 535 -123 519 -137 q 579 -108 550 -108 q 624 -124 610 -108 q 651 -167 639 -139 q 673 -203 663 -192 q 706 -215 683 -215 q 794 -15 790 -215 l 793 -14 l 206 733 l 204 157 q 235 53 204 89 q 322 17 265 17 q 328 8 328 17 q 322 0 328 0 q 267 1 286 0 l 185 3 l 107 1 q 44 0 85 0 q 39 8 39 0 q 44 17 39 17 q 133 53 101 17 q 165 157 165 89 l 167 781 q 101 835 132 819 q 40 851 71 851 q 36 860 36 851 q 40 868 36 868 l 107 867 q 163 865 128 865 q 219 867 196 865 q 250 868 242 868 q 267 863 261 868 q 282 842 272 857 q 314 796 297 817 l 790 189 l 792 711 q 763 815 793 779 q 674 851 732 851 q 668 860 668 851 q 674 868 668 868 l 725 867 q 811 864 775 864 q 889 867 839 864 l 951 868 z "},"Ṉ":{"ha":983,"x_min":36,"x_max":956,"o":"m 951 868 q 956 860 956 868 q 951 851 956 851 q 863 815 894 851 q 831 711 831 778 l 829 -11 q 822 -17 829 -15 q 808 -19 815 -19 q 793 -14 797 -19 l 206 733 l 204 157 q 235 53 204 89 q 322 17 265 17 q 328 8 328 17 q 322 0 328 0 q 267 1 286 0 l 185 3 l 107 1 q 44 0 85 0 q 39 8 39 0 q 44 17 39 17 q 133 53 101 17 q 165 157 165 89 l 167 781 q 101 835 132 819 q 40 851 71 851 q 36 860 36 851 q 40 868 36 868 l 107 867 q 163 865 128 865 q 219 867 196 865 q 250 868 242 868 q 267 863 261 868 q 282 842 272 857 q 314 796 297 817 l 790 189 l 792 711 q 763 815 793 779 q 674 851 732 851 q 668 860 668 851 q 674 868 668 868 l 725 867 q 811 864 775 864 q 889 867 839 864 l 951 868 m 361 -168 q 350 -143 350 -168 q 361 -118 350 -118 l 683 -118 q 692 -126 689 -118 q 696 -143 696 -133 q 692 -160 696 -153 q 683 -168 689 -168 l 361 -168 z "},"Ñ":{"ha":983,"x_min":36,"x_max":956,"o":"m 951 868 q 956 860 956 868 q 951 851 956 851 q 863 815 894 851 q 831 711 831 778 l 829 -11 q 822 -17 829 -15 q 808 -19 815 -19 q 793 -14 797 -19 l 206 733 l 204 157 q 235 53 204 89 q 322 17 265 17 q 328 8 328 17 q 322 0 328 0 q 267 1 286 0 l 185 3 l 107 1 q 44 0 85 0 q 39 8 39 0 q 44 17 39 17 q 133 53 101 17 q 165 157 165 89 l 167 781 q 101 835 132 819 q 40 851 71 851 q 36 860 36 851 q 40 868 36 868 l 107 867 q 163 865 128 865 q 219 867 196 865 q 250 868 242 868 q 267 863 261 868 q 282 842 272 857 q 314 796 297 817 l 790 189 l 792 711 q 763 815 793 779 q 674 851 732 851 q 668 860 668 851 q 674 868 668 868 l 725 867 q 811 864 775 864 q 889 867 839 864 l 951 868 m 318 957 q 315 956 318 956 q 309 960 313 956 q 307 967 306 964 q 419 1071 357 1071 q 490 1056 439 1071 q 532 1045 499 1054 q 594 1036 565 1036 q 638 1044 622 1036 q 672 1074 654 1053 l 674 1074 q 681 1070 676 1074 q 683 1064 685 1067 q 631 981 654 1001 q 575 960 608 960 q 493 976 551 960 q 443 989 469 983 q 394 994 417 994 q 350 987 363 994 q 318 957 338 979 z "},"O":{"ha":1019,"x_min":54,"x_max":965,"o":"m 490 -17 q 262 42 361 -17 q 108 203 163 101 q 54 428 54 304 q 116 661 54 557 q 285 824 178 765 q 524 883 392 883 q 755 826 654 883 q 910 669 856 769 q 965 447 965 569 q 900 204 965 310 q 726 41 835 99 q 490 -17 618 -17 m 550 19 q 697 63 633 19 q 794 187 760 107 q 828 374 828 267 q 783 610 828 501 q 656 785 738 719 q 472 850 575 850 q 325 807 389 850 q 226 684 261 764 q 190 496 190 604 q 236 260 190 369 q 364 85 282 151 q 550 19 446 19 z "},"Ó":{"ha":1019,"x_min":54,"x_max":965,"o":"m 490 -17 q 262 42 361 -17 q 108 203 163 101 q 54 428 54 304 q 116 661 54 557 q 285 824 178 765 q 524 883 392 883 q 755 826 654 883 q 910 669 856 769 q 965 447 965 569 q 900 204 965 310 q 726 41 835 99 q 490 -17 618 -17 m 550 19 q 697 63 633 19 q 794 187 760 107 q 828 374 828 267 q 783 610 828 501 q 656 785 738 719 q 472 850 575 850 q 325 807 389 850 q 226 684 261 764 q 190 496 190 604 q 236 260 190 369 q 364 85 282 151 q 550 19 446 19 m 426 942 q 418 948 421 942 q 419 957 415 954 q 522 1043 469 993 q 555 1071 536 1054 q 586 1097 574 1088 q 631 1092 592 1103 q 701 1067 669 1081 q 718 1050 732 1053 q 429 943 569 1011 l 426 942 z "},"Ŏ":{"ha":1019,"x_min":54,"x_max":965,"o":"m 490 -17 q 262 42 361 -17 q 108 203 163 101 q 54 428 54 304 q 116 661 54 557 q 285 824 178 765 q 524 883 392 883 q 755 826 654 883 q 910 669 856 769 q 965 447 965 569 q 900 204 965 310 q 726 41 835 99 q 490 -17 618 -17 m 550 19 q 697 63 633 19 q 794 187 760 107 q 828 374 828 267 q 783 610 828 501 q 656 785 738 719 q 472 850 575 850 q 325 807 389 850 q 226 684 261 764 q 190 496 190 604 q 236 260 190 369 q 364 85 282 151 q 550 19 446 19 m 511 924 q 428 958 465 924 q 378 1054 390 992 q 403 1069 376 1063 q 454 1076 429 1076 q 475 1072 474 1076 q 506 1015 485 1035 q 551 994 526 994 q 594 1013 575 994 q 624 1067 614 1032 q 632 1071 626 1071 q 643 1068 638 1071 q 647 1063 649 1065 q 595 960 633 996 q 511 924 557 924 z "},"Ǒ":{"ha":1019,"x_min":54,"x_max":965,"o":"m 490 -17 q 262 42 361 -17 q 108 203 163 101 q 54 428 54 304 q 116 661 54 557 q 285 824 178 765 q 524 883 392 883 q 755 826 654 883 q 910 669 856 769 q 965 447 965 569 q 900 204 965 310 q 726 41 835 99 q 490 -17 618 -17 m 550 19 q 697 63 633 19 q 794 187 760 107 q 828 374 828 267 q 783 610 828 501 q 656 785 738 719 q 472 850 575 850 q 325 807 389 850 q 226 684 261 764 q 190 496 190 604 q 236 260 190 369 q 364 85 282 151 q 550 19 446 19 m 358 1090 l 357 1093 q 360 1099 357 1096 q 367 1100 364 1101 l 506 1038 l 643 1100 q 651 1097 646 1101 q 653 1090 656 1092 l 522 938 q 510 932 518 932 q 496 938 501 932 l 358 1090 z "},"Ô":{"ha":1019,"x_min":54,"x_max":965,"o":"m 490 -17 q 262 42 361 -17 q 108 203 163 101 q 54 428 54 304 q 116 661 54 557 q 285 824 178 765 q 524 883 392 883 q 755 826 654 883 q 910 669 856 769 q 965 447 965 569 q 900 204 965 310 q 726 41 835 99 q 490 -17 618 -17 m 550 19 q 697 63 633 19 q 794 187 760 107 q 828 374 828 267 q 783 610 828 501 q 656 785 738 719 q 472 850 575 850 q 325 807 389 850 q 226 684 261 764 q 190 496 190 604 q 236 260 190 369 q 364 85 282 151 q 550 19 446 19 m 375 917 q 367 920 371 917 q 367 926 364 924 l 497 1078 q 508 1085 501 1085 q 522 1078 515 1085 l 661 926 l 661 924 q 658 917 661 919 q 653 917 656 914 l 514 978 l 376 917 l 375 917 z "},"Ố":{"ha":1019,"x_min":54,"x_max":965,"o":"m 490 -17 q 262 42 361 -17 q 108 203 163 101 q 54 428 54 304 q 116 661 54 557 q 285 824 178 765 q 524 883 392 883 q 755 826 654 883 q 910 669 856 769 q 965 447 965 569 q 900 204 965 310 q 726 41 835 99 q 490 -17 618 -17 m 550 19 q 697 63 633 19 q 794 187 760 107 q 828 374 828 267 q 783 610 828 501 q 656 785 738 719 q 472 850 575 850 q 325 807 389 850 q 226 684 261 764 q 190 496 190 604 q 236 260 190 369 q 364 85 282 151 q 550 19 446 19 m 372 917 q 365 920 368 917 q 364 926 361 924 l 494 1078 q 506 1085 499 1085 q 519 1078 513 1085 l 658 926 l 658 924 q 656 917 658 919 q 650 917 653 914 l 511 978 l 374 917 l 372 917 m 606 1006 q 599 1012 601 1006 q 599 1022 596 1018 q 686 1163 651 1094 q 728 1160 690 1171 q 795 1135 765 1150 q 813 1115 825 1121 q 708 1068 754 1093 q 608 1007 661 1043 l 606 1006 z "},"Ộ":{"ha":1019,"x_min":54,"x_max":965,"o":"m 490 -17 q 262 42 361 -17 q 108 203 163 101 q 54 428 54 304 q 116 661 54 557 q 285 824 178 765 q 524 883 392 883 q 755 826 654 883 q 910 669 856 769 q 965 447 965 569 q 900 204 965 310 q 726 41 835 99 q 490 -17 618 -17 m 550 19 q 697 63 633 19 q 794 187 760 107 q 828 374 828 267 q 783 610 828 501 q 656 785 738 719 q 472 850 575 850 q 325 807 389 850 q 226 684 261 764 q 190 496 190 604 q 236 260 190 369 q 364 85 282 151 q 550 19 446 19 m 531 -279 q 474 -259 494 -279 q 454 -203 454 -239 q 475 -150 454 -169 q 531 -131 496 -131 q 585 -150 565 -131 q 604 -203 604 -169 q 585 -259 604 -239 q 531 -279 565 -279 m 375 917 q 367 920 371 917 q 367 926 364 924 l 497 1078 q 508 1085 501 1085 q 522 1078 515 1085 l 661 926 l 661 924 q 658 917 661 919 q 653 917 656 914 l 514 978 l 376 917 l 375 917 z "},"Ồ":{"ha":1019,"x_min":54,"x_max":965,"o":"m 490 -17 q 262 42 361 -17 q 108 203 163 101 q 54 428 54 304 q 116 661 54 557 q 285 824 178 765 q 524 883 392 883 q 755 826 654 883 q 910 669 856 769 q 965 447 965 569 q 900 204 965 310 q 726 41 835 99 q 490 -17 618 -17 m 550 19 q 697 63 633 19 q 794 187 760 107 q 828 374 828 267 q 783 610 828 501 q 656 785 738 719 q 472 850 575 850 q 325 807 389 850 q 226 684 261 764 q 190 496 190 604 q 236 260 190 369 q 364 85 282 151 q 550 19 446 19 m 374 917 q 366 920 369 917 q 365 926 363 924 l 496 1078 q 507 1085 500 1085 q 521 1078 514 1085 l 660 926 l 660 924 q 657 917 660 919 q 651 917 654 914 l 513 978 l 375 917 l 374 917 m 731 988 q 532 1096 635 1056 q 547 1116 518 1101 q 614 1141 576 1131 q 656 1143 651 1151 q 743 1003 690 1075 l 744 999 q 740 990 744 994 q 731 988 736 986 z "},"Ổ":{"ha":1019,"x_min":54,"x_max":965,"o":"m 490 -17 q 262 42 361 -17 q 108 203 163 101 q 54 428 54 304 q 116 661 54 557 q 285 824 178 765 q 524 883 392 883 q 755 826 654 883 q 910 669 856 769 q 965 447 965 569 q 900 204 965 310 q 726 41 835 99 q 490 -17 618 -17 m 550 19 q 697 63 633 19 q 794 187 760 107 q 828 374 828 267 q 783 610 828 501 q 656 785 738 719 q 472 850 575 850 q 325 807 389 850 q 226 684 261 764 q 190 496 190 604 q 236 260 190 369 q 364 85 282 151 q 550 19 446 19 m 372 913 q 365 916 368 913 q 364 922 361 919 l 494 1074 q 506 1081 499 1081 q 519 1074 513 1081 l 658 922 l 658 919 q 656 913 658 915 q 650 913 653 910 l 511 974 l 374 913 l 372 913 m 615 993 q 613 1013 613 1007 q 619 1046 613 1029 q 628 1065 626 1063 q 643 1115 643 1093 q 630 1147 643 1136 q 599 1158 617 1158 q 572 1153 586 1158 l 569 1151 q 562 1156 565 1151 q 563 1164 558 1161 q 647 1189 603 1189 q 700 1172 681 1189 q 719 1131 719 1156 q 707 1094 719 1111 q 671 1057 694 1078 q 639 1022 649 1036 q 631 993 629 1008 q 624 990 632 990 q 615 993 617 989 z "},"Ỗ":{"ha":1019,"x_min":54,"x_max":965,"o":"m 490 -17 q 262 42 361 -17 q 108 203 163 101 q 54 428 54 304 q 116 661 54 557 q 285 824 178 765 q 524 883 392 883 q 755 826 654 883 q 910 669 856 769 q 965 447 965 569 q 900 204 965 310 q 726 41 835 99 q 490 -17 618 -17 m 550 19 q 697 63 633 19 q 794 187 760 107 q 828 374 828 267 q 783 610 828 501 q 656 785 738 719 q 472 850 575 850 q 325 807 389 850 q 226 684 261 764 q 190 496 190 604 q 236 260 190 369 q 364 85 282 151 q 550 19 446 19 m 374 917 q 366 920 369 917 q 365 926 363 924 l 496 1078 q 507 1085 500 1085 q 521 1078 514 1085 l 660 926 l 660 924 q 657 917 660 919 q 651 917 654 914 l 513 978 l 375 917 l 374 917 m 340 1096 q 333 1099 338 1096 q 331 1106 329 1103 q 380 1179 353 1149 q 446 1210 407 1210 q 485 1203 461 1210 q 515 1196 508 1197 q 621 1175 586 1175 q 665 1183 649 1175 q 697 1213 681 1192 q 698 1214 697 1214 q 699 1214 699 1214 q 706 1210 701 1214 q 708 1203 710 1206 q 658 1121 681 1142 q 601 1100 635 1100 q 518 1115 571 1100 q 467 1128 494 1122 q 418 1133 440 1133 q 376 1127 389 1133 q 355 1110 364 1121 q 342 1096 346 1100 l 340 1096 z "},"Ö":{"ha":1019,"x_min":54,"x_max":965,"o":"m 490 -17 q 262 42 361 -17 q 108 203 163 101 q 54 428 54 304 q 116 661 54 557 q 285 824 178 765 q 524 883 392 883 q 755 826 654 883 q 910 669 856 769 q 965 447 965 569 q 900 204 965 310 q 726 41 835 99 q 490 -17 618 -17 m 550 19 q 697 63 633 19 q 794 187 760 107 q 828 374 828 267 q 783 610 828 501 q 656 785 738 719 q 472 850 575 850 q 325 807 389 850 q 226 684 261 764 q 190 496 190 604 q 236 260 190 369 q 364 85 282 151 q 550 19 446 19 m 394 983 q 343 1001 363 983 q 324 1053 324 1019 q 343 1101 324 1083 q 394 1119 363 1119 q 444 1102 426 1119 q 463 1053 463 1085 q 444 1001 463 1019 q 394 983 426 983 m 628 983 q 577 1001 596 983 q 558 1053 558 1019 q 577 1101 558 1083 q 628 1119 596 1119 q 677 1102 660 1119 q 694 1053 694 1085 q 677 1001 694 1019 q 628 983 660 983 z "},"Ọ":{"ha":1019,"x_min":54,"x_max":965,"o":"m 490 -17 q 262 42 361 -17 q 108 203 163 101 q 54 428 54 304 q 116 661 54 557 q 285 824 178 765 q 524 883 392 883 q 755 826 654 883 q 910 669 856 769 q 965 447 965 569 q 900 204 965 310 q 726 41 835 99 q 490 -17 618 -17 m 550 19 q 697 63 633 19 q 794 187 760 107 q 828 374 828 267 q 783 610 828 501 q 656 785 738 719 q 472 850 575 850 q 325 807 389 850 q 226 684 261 764 q 190 496 190 604 q 236 260 190 369 q 364 85 282 151 q 550 19 446 19 m 531 -279 q 474 -259 494 -279 q 454 -203 454 -239 q 475 -150 454 -169 q 531 -131 496 -131 q 585 -150 565 -131 q 604 -203 604 -169 q 585 -259 604 -239 q 531 -279 565 -279 z "},"Ò":{"ha":1019,"x_min":54,"x_max":965,"o":"m 490 -17 q 262 42 361 -17 q 108 203 163 101 q 54 428 54 304 q 116 661 54 557 q 285 824 178 765 q 524 883 392 883 q 755 826 654 883 q 910 669 856 769 q 965 447 965 569 q 900 204 965 310 q 726 41 835 99 q 490 -17 618 -17 m 550 19 q 697 63 633 19 q 794 187 760 107 q 828 374 828 267 q 783 610 828 501 q 656 785 738 719 q 472 850 575 850 q 325 807 389 850 q 226 684 261 764 q 190 496 190 604 q 236 260 190 369 q 364 85 282 151 q 550 19 446 19 m 651 957 q 512 1008 572 988 q 369 1050 451 1028 q 381 1068 351 1054 q 451 1092 411 1082 q 500 1096 492 1101 q 574 1034 535 1064 q 629 992 614 1004 l 660 969 q 663 964 663 968 q 659 958 663 960 q 651 957 656 956 z "},"Ỏ":{"ha":1019,"x_min":54,"x_max":965,"o":"m 490 -17 q 262 42 361 -17 q 108 203 163 101 q 54 428 54 304 q 116 661 54 557 q 285 824 178 765 q 524 883 392 883 q 755 826 654 883 q 910 669 856 769 q 965 447 965 569 q 900 204 965 310 q 726 41 835 99 q 490 -17 618 -17 m 550 19 q 697 63 633 19 q 794 187 760 107 q 828 374 828 267 q 783 610 828 501 q 656 785 738 719 q 472 850 575 850 q 325 807 389 850 q 226 684 261 764 q 190 496 190 604 q 236 260 190 369 q 364 85 282 151 q 550 19 446 19 m 517 906 q 510 902 518 903 q 501 906 503 901 q 493 953 493 928 q 507 1018 493 976 q 514 1041 508 1022 q 519 1078 519 1060 q 467 1143 519 1143 q 421 1132 443 1143 l 418 1131 q 410 1135 414 1131 q 411 1143 407 1140 q 457 1170 431 1161 q 511 1179 483 1179 q 587 1156 558 1179 q 615 1096 615 1133 q 602 1051 615 1072 q 563 999 589 1029 q 524 949 536 969 q 517 906 513 928 z "},"Ơ":{"ha":1019,"x_min":54,"x_max":1014,"o":"m 1014 917 q 970 823 1014 861 q 851 751 926 785 q 935 614 906 692 q 965 447 965 536 q 900 204 965 310 q 726 41 835 99 q 490 -17 618 -17 q 262 42 361 -17 q 108 203 163 101 q 54 428 54 304 q 116 661 54 557 q 285 824 178 765 q 524 883 392 883 q 699 853 619 883 q 836 767 778 822 q 911 846 914 804 q 900 875 911 858 q 883 921 883 897 q 903 969 883 951 q 950 986 924 986 q 997 965 979 986 q 1014 917 1014 944 m 828 374 q 783 610 828 501 q 656 785 738 719 q 472 850 575 850 q 325 807 389 850 q 226 684 261 764 q 190 496 190 604 q 236 260 190 369 q 364 85 282 151 q 550 19 446 19 q 697 63 633 19 q 794 187 760 107 q 828 374 828 267 z "},"Ớ":{"ha":1019,"x_min":54,"x_max":1014,"o":"m 1014 917 q 970 823 1014 861 q 851 751 926 785 q 935 614 906 692 q 965 447 965 536 q 900 204 965 310 q 726 41 835 99 q 490 -17 618 -17 q 262 42 361 -17 q 108 203 163 101 q 54 428 54 304 q 116 661 54 557 q 285 824 178 765 q 524 883 392 883 q 699 853 619 883 q 836 767 778 822 q 911 846 914 804 q 900 875 911 858 q 883 921 883 897 q 903 969 883 951 q 950 986 924 986 q 997 965 979 986 q 1014 917 1014 944 m 828 374 q 783 610 828 501 q 656 785 738 719 q 472 850 575 850 q 325 807 389 850 q 226 684 261 764 q 190 496 190 604 q 236 260 190 369 q 364 85 282 151 q 550 19 446 19 q 697 63 633 19 q 794 187 760 107 q 828 374 828 267 m 379 942 q 370 948 374 942 q 371 957 367 954 q 479 1047 413 986 l 538 1097 q 583 1092 543 1103 q 653 1067 622 1081 q 669 1050 683 1053 q 381 942 510 1007 l 379 942 z "},"Ợ":{"ha":1019,"x_min":54,"x_max":1014,"o":"m 1014 917 q 970 823 1014 861 q 851 751 926 785 q 935 614 906 692 q 965 447 965 536 q 900 204 965 310 q 726 41 835 99 q 490 -17 618 -17 q 262 42 361 -17 q 108 203 163 101 q 54 428 54 304 q 116 661 54 557 q 285 824 178 765 q 524 883 392 883 q 699 853 619 883 q 836 767 778 822 q 911 846 914 804 q 900 875 911 858 q 883 921 883 897 q 903 969 883 951 q 950 986 924 986 q 997 965 979 986 q 1014 917 1014 944 m 828 374 q 783 610 828 501 q 656 785 738 719 q 472 850 575 850 q 325 807 389 850 q 226 684 261 764 q 190 496 190 604 q 236 260 190 369 q 364 85 282 151 q 550 19 446 19 q 697 63 633 19 q 794 187 760 107 q 828 374 828 267 m 531 -279 q 474 -259 494 -279 q 454 -203 454 -239 q 475 -150 454 -169 q 531 -131 496 -131 q 585 -150 565 -131 q 604 -203 604 -169 q 585 -259 604 -239 q 531 -279 565 -279 z "},"Ờ":{"ha":1019,"x_min":54,"x_max":1014,"o":"m 1014 917 q 970 823 1014 861 q 851 751 926 785 q 935 614 906 692 q 965 447 965 536 q 900 204 965 310 q 726 41 835 99 q 490 -17 618 -17 q 262 42 361 -17 q 108 203 163 101 q 54 428 54 304 q 116 661 54 557 q 285 824 178 765 q 524 883 392 883 q 699 853 619 883 q 836 767 778 822 q 911 846 914 804 q 900 875 911 858 q 883 921 883 897 q 903 969 883 951 q 950 986 924 986 q 997 965 979 986 q 1014 917 1014 944 m 828 374 q 783 610 828 501 q 656 785 738 719 q 472 850 575 850 q 325 807 389 850 q 226 684 261 764 q 190 496 190 604 q 236 260 190 369 q 364 85 282 151 q 550 19 446 19 q 697 63 633 19 q 794 187 760 107 q 828 374 828 267 m 639 943 q 476 1003 553 978 q 310 1050 400 1029 q 320 1067 294 1053 q 382 1092 346 1081 q 426 1097 418 1103 q 492 1053 458 1078 q 642 957 592 985 q 646 948 647 956 q 639 943 644 940 z "},"Ở":{"ha":1019,"x_min":54,"x_max":1014,"o":"m 1014 917 q 970 823 1014 861 q 851 751 926 785 q 935 614 906 692 q 965 447 965 536 q 900 204 965 310 q 726 41 835 99 q 490 -17 618 -17 q 262 42 361 -17 q 108 203 163 101 q 54 428 54 304 q 116 661 54 557 q 285 824 178 765 q 524 883 392 883 q 699 853 619 883 q 836 767 778 822 q 911 846 914 804 q 900 875 911 858 q 883 921 883 897 q 903 969 883 951 q 950 986 924 986 q 997 965 979 986 q 1014 917 1014 944 m 828 374 q 783 610 828 501 q 656 785 738 719 q 472 850 575 850 q 325 807 389 850 q 226 684 261 764 q 190 496 190 604 q 236 260 190 369 q 364 85 282 151 q 550 19 446 19 q 697 63 633 19 q 794 187 760 107 q 828 374 828 267 m 510 906 q 503 902 511 903 q 494 906 496 901 q 486 953 486 928 q 500 1018 486 976 q 507 1041 501 1022 q 513 1078 513 1060 q 460 1143 513 1143 q 414 1132 436 1143 l 411 1131 q 403 1135 407 1131 q 404 1143 400 1140 q 450 1170 424 1161 q 504 1179 476 1179 q 580 1156 551 1179 q 608 1096 608 1133 q 595 1051 608 1072 q 556 999 582 1029 q 517 949 529 969 q 510 906 506 928 z "},"Ỡ":{"ha":1019,"x_min":54,"x_max":1014,"o":"m 1014 917 q 970 823 1014 861 q 851 751 926 785 q 935 614 906 692 q 965 447 965 536 q 900 204 965 310 q 726 41 835 99 q 490 -17 618 -17 q 262 42 361 -17 q 108 203 163 101 q 54 428 54 304 q 116 661 54 557 q 285 824 178 765 q 524 883 392 883 q 699 853 619 883 q 836 767 778 822 q 911 846 914 804 q 900 875 911 858 q 883 921 883 897 q 903 969 883 951 q 950 986 924 986 q 997 965 979 986 q 1014 917 1014 944 m 828 374 q 783 610 828 501 q 656 785 738 719 q 472 850 575 850 q 325 807 389 850 q 226 684 261 764 q 190 496 190 604 q 236 260 190 369 q 364 85 282 151 q 550 19 446 19 q 697 63 633 19 q 794 187 760 107 q 828 374 828 267 m 324 989 q 317 992 321 989 q 314 999 313 996 q 363 1072 336 1042 q 429 1103 390 1103 q 468 1097 444 1103 q 499 1089 492 1090 q 604 1068 569 1068 q 648 1076 632 1068 q 681 1106 664 1085 q 681 1107 681 1107 q 682 1107 682 1107 q 689 1103 685 1107 q 692 1096 693 1099 q 641 1014 664 1035 q 585 993 618 993 q 501 1008 554 993 q 451 1021 478 1015 q 401 1026 424 1026 q 360 1020 372 1026 q 338 1003 347 1014 q 325 989 329 993 l 324 989 z "},"Ő":{"ha":1019,"x_min":54,"x_max":965,"o":"m 490 -17 q 262 42 361 -17 q 108 203 163 101 q 54 428 54 304 q 116 661 54 557 q 285 824 178 765 q 524 883 392 883 q 755 826 654 883 q 910 669 856 769 q 965 447 965 569 q 900 204 965 310 q 726 41 835 99 q 490 -17 618 -17 m 550 19 q 697 63 633 19 q 794 187 760 107 q 828 374 828 267 q 783 610 828 501 q 656 785 738 719 q 472 850 575 850 q 325 807 389 850 q 226 684 261 764 q 190 496 190 604 q 236 260 190 369 q 364 85 282 151 q 550 19 446 19 m 368 928 q 363 934 364 928 q 365 943 361 940 l 417 1000 q 510 1107 479 1068 q 524 1110 511 1110 q 570 1101 540 1110 q 617 1083 600 1093 q 622 1068 635 1074 l 586 1050 q 466 989 514 1015 q 371 929 418 963 l 368 928 m 554 928 q 548 934 550 928 q 550 943 546 940 q 696 1107 638 1033 q 708 1110 697 1110 q 756 1101 726 1110 q 802 1083 785 1093 q 808 1068 819 1074 q 557 929 664 1001 l 554 928 z "},"Ō":{"ha":1019,"x_min":54,"x_max":965,"o":"m 490 -17 q 262 42 361 -17 q 108 203 163 101 q 54 428 54 304 q 116 661 54 557 q 285 824 178 765 q 524 883 392 883 q 755 826 654 883 q 910 669 856 769 q 965 447 965 569 q 900 204 965 310 q 726 41 835 99 q 490 -17 618 -17 m 550 19 q 697 63 633 19 q 794 187 760 107 q 828 374 828 267 q 783 610 828 501 q 656 785 738 719 q 472 850 575 850 q 325 807 389 850 q 226 684 261 764 q 190 496 190 604 q 236 260 190 369 q 364 85 282 151 q 550 19 446 19 m 349 992 q 340 999 343 992 q 338 1017 338 1007 q 340 1034 338 1026 q 349 1042 343 1042 l 671 1042 q 680 1034 676 1042 q 683 1017 683 1026 q 680 999 683 1007 q 671 992 676 992 l 349 992 z "},"Ǫ":{"ha":1019,"x_min":54,"x_max":965,"o":"m 524 883 q 755 826 654 883 q 910 669 856 769 q 965 447 965 569 q 922 244 965 336 q 803 91 879 153 q 632 3 728 29 q 572 -99 593 -51 q 551 -196 551 -146 q 576 -290 551 -253 q 647 -328 601 -328 q 713 -297 685 -328 l 714 -297 q 724 -302 719 -297 q 724 -310 728 -307 q 661 -365 692 -349 q 593 -382 631 -382 q 492 -341 531 -382 q 453 -239 453 -300 q 491 -127 454 -183 q 597 -6 528 -71 q 490 -17 542 -17 q 262 42 361 -17 q 108 203 163 101 q 54 428 54 304 q 116 661 54 557 q 285 824 178 765 q 524 883 392 883 m 828 374 q 783 610 828 501 q 656 785 738 719 q 472 850 575 850 q 325 807 389 850 q 226 684 261 764 q 190 496 190 604 q 236 260 190 369 q 364 85 282 151 q 550 19 446 19 q 697 63 633 19 q 794 187 760 107 q 828 374 828 267 z "},"Ø":{"ha":1019,"x_min":54,"x_max":965,"o":"m 807 792 q 924 642 883 732 q 965 447 965 553 q 900 204 965 310 q 726 41 835 99 q 490 -17 618 -17 q 217 72 332 -17 l 143 -17 l 142 -18 q 122 -7 135 -18 q 114 10 110 4 l 188 99 q 89 245 124 160 q 54 428 54 331 q 116 661 54 557 q 285 824 178 765 q 524 883 392 883 q 775 814 668 883 l 829 879 l 832 881 q 851 871 839 881 q 861 857 864 861 l 807 792 m 190 500 q 210 339 190 417 q 268 197 231 261 l 710 733 q 602 819 663 789 q 472 850 542 850 q 326 808 389 850 q 226 686 263 765 q 190 500 190 607 m 828 369 q 803 550 828 464 q 733 701 779 636 l 290 163 q 406 57 340 94 q 550 19 472 19 q 697 63 633 19 q 794 185 760 106 q 828 369 828 264 z "},"Ǿ":{"ha":1019,"x_min":54,"x_max":965,"o":"m 807 792 q 924 642 883 732 q 965 447 965 553 q 900 204 965 310 q 726 41 835 99 q 490 -17 618 -17 q 217 72 332 -17 l 143 -17 l 142 -18 q 122 -7 135 -18 q 114 10 110 4 l 188 99 q 89 245 124 160 q 54 428 54 331 q 116 661 54 557 q 285 824 178 765 q 524 883 392 883 q 775 814 668 883 l 829 879 l 832 881 q 851 871 839 881 q 861 857 864 861 l 807 792 m 190 500 q 210 339 190 417 q 268 197 231 261 l 710 733 q 602 819 663 789 q 472 850 542 850 q 326 808 389 850 q 226 686 263 765 q 190 500 190 607 m 828 369 q 803 550 828 464 q 733 701 779 636 l 290 163 q 406 57 340 94 q 550 19 472 19 q 697 63 633 19 q 794 185 760 106 q 828 369 828 264 m 419 942 q 411 948 414 942 q 413 957 408 954 q 515 1043 463 993 q 548 1071 529 1054 q 579 1097 567 1088 q 624 1092 585 1103 q 694 1067 663 1081 q 711 1050 725 1053 q 422 943 563 1011 l 419 942 z "},"Õ":{"ha":1019,"x_min":54,"x_max":965,"o":"m 490 -17 q 262 42 361 -17 q 108 203 163 101 q 54 428 54 304 q 116 661 54 557 q 285 824 178 765 q 524 883 392 883 q 755 826 654 883 q 910 669 856 769 q 965 447 965 569 q 900 204 965 310 q 726 41 835 99 q 490 -17 618 -17 m 550 19 q 697 63 633 19 q 794 187 760 107 q 828 374 828 267 q 783 610 828 501 q 656 785 738 719 q 472 850 575 850 q 325 807 389 850 q 226 684 261 764 q 190 496 190 604 q 236 260 190 369 q 364 85 282 151 q 550 19 446 19 m 344 957 q 342 956 344 956 q 335 960 339 956 q 333 967 332 964 q 446 1071 383 1071 q 517 1056 465 1071 q 558 1045 525 1054 q 621 1036 592 1036 q 665 1044 649 1036 q 699 1074 681 1053 l 700 1074 q 707 1070 703 1074 q 710 1064 711 1067 q 658 981 681 1001 q 601 960 635 960 q 519 976 578 960 q 469 989 496 983 q 421 994 443 994 q 376 987 389 994 q 344 957 364 979 z "},"Œ":{"ha":1235,"x_min":53,"x_max":1185,"o":"m 1165 217 q 1172 219 1167 219 q 1181 217 1176 219 q 1183 214 1185 215 q 1171 21 1171 135 q 1167 5 1171 10 q 1150 0 1163 0 l 747 0 q 644 -3 714 0 q 561 -6 583 -6 q 298 51 414 -6 q 117 205 182 107 q 53 424 53 303 q 119 658 53 556 q 298 815 186 760 q 542 871 410 871 q 631 869 597 871 l 739 868 l 1126 868 q 1134 865 1132 868 q 1136 856 1136 863 l 1139 674 q 1131 668 1139 668 q 1121 672 1122 668 q 949 842 1088 842 l 903 842 q 837 835 857 842 q 810 812 817 829 q 803 754 804 794 l 803 469 l 953 469 q 1049 493 1019 469 q 1081 572 1079 517 q 1090 579 1083 579 q 1100 572 1100 579 l 1099 496 q 1097 451 1097 481 l 1099 388 q 1101 314 1101 343 q 1092 308 1101 308 q 1083 314 1083 308 q 1049 403 1083 374 q 949 433 1014 433 l 803 433 l 803 118 q 811 58 804 78 q 838 32 818 39 q 900 25 858 25 l 967 25 q 1087 74 1042 25 q 1165 217 1132 122 m 544 19 q 624 25 597 19 q 663 51 650 31 q 674 114 675 71 l 671 738 q 659 802 668 781 q 626 834 650 824 q 556 844 603 844 q 369 800 450 844 q 244 669 289 756 q 200 457 200 582 q 244 233 200 333 q 366 76 288 133 q 544 19 444 19 z "},"P":{"ha":782,"x_min":58,"x_max":729,"o":"m 63 0 q 58 8 58 0 q 63 17 58 17 q 128 24 107 17 q 156 51 149 31 q 164 113 164 71 l 164 756 q 156 817 164 797 q 126 844 147 836 q 63 851 106 851 q 58 860 58 851 q 63 868 58 868 l 128 867 q 224 864 186 864 q 283 866 250 864 q 331 868 315 868 q 408 872 372 872 q 639 813 549 872 q 729 642 729 754 q 678 488 729 550 q 553 394 628 425 q 404 364 478 364 q 339 371 364 364 q 336 381 336 371 q 338 392 336 386 q 342 396 340 397 q 388 390 363 390 q 528 447 471 390 q 586 614 586 504 q 558 738 586 685 q 482 818 529 790 q 383 846 435 846 q 326 839 344 846 q 300 813 307 832 q 292 753 293 794 l 293 113 q 301 51 293 71 q 328 24 308 31 q 392 17 349 17 q 397 8 396 17 q 392 0 397 0 q 325 1 349 0 l 226 3 l 131 1 q 63 0 106 0 z "},"Þ":{"ha":815,"x_min":60,"x_max":772,"o":"m 403 211 q 562 261 494 211 q 629 419 629 311 q 600 545 629 488 q 515 638 571 603 q 385 672 460 672 q 294 663 343 672 l 296 113 q 304 49 296 68 q 340 24 313 31 q 431 17 367 17 q 434 8 433 17 q 431 0 435 0 q 349 1 379 0 l 231 3 l 133 1 q 64 0 108 0 q 60 8 61 0 q 64 17 60 17 q 131 24 110 17 q 158 51 151 31 q 165 113 165 71 l 165 756 q 158 817 165 797 q 130 844 150 836 q 67 851 110 851 q 64 860 64 851 q 67 868 64 868 l 133 867 q 226 864 192 864 q 354 867 279 864 l 433 868 q 437 860 436 868 q 433 851 438 851 q 341 845 368 851 q 305 819 314 839 q 294 753 296 800 l 294 688 q 429 699 356 699 q 677 632 582 699 q 772 447 772 565 q 717 300 772 358 q 581 214 663 242 q 418 186 500 186 q 353 192 381 186 q 350 201 350 194 q 352 212 350 207 q 356 215 354 217 q 403 211 381 211 z "},"Q":{"ha":1019,"x_min":54,"x_max":1125,"o":"m 1114 -243 q 1121 -249 1117 -242 q 1121 -258 1125 -257 q 1018 -278 1058 -278 q 817 -206 922 -278 q 617 -1 711 -135 q 490 -17 553 -17 q 262 42 361 -17 q 108 203 163 101 q 54 428 54 304 q 116 661 54 557 q 285 824 178 765 q 524 883 392 883 q 755 826 654 883 q 910 669 856 769 q 965 447 965 569 q 901 206 965 311 q 729 42 838 100 q 840 -107 776 -40 q 967 -211 904 -174 q 1069 -249 1029 -249 q 1114 -243 1096 -249 m 190 496 q 236 260 190 369 q 364 85 282 151 q 550 19 446 19 q 697 63 633 19 q 794 187 760 107 q 828 374 828 267 q 783 610 828 501 q 656 785 738 719 q 472 850 575 850 q 325 807 389 850 q 226 684 261 764 q 190 496 190 604 z "},"R":{"ha":943,"x_min":61,"x_max":968,"o":"m 963 17 q 967 8 967 17 q 963 0 968 0 l 757 0 q 635 115 722 0 q 426 450 547 229 q 339 440 388 440 q 310 443 326 440 l 310 113 q 316 51 308 71 q 345 24 324 32 q 411 17 367 17 q 417 8 417 17 q 413 0 418 0 q 342 1 367 0 l 242 3 l 140 1 q 68 0 114 0 q 62 8 63 0 q 67 17 61 17 q 138 24 115 17 q 169 51 161 32 q 179 113 178 71 l 179 756 q 172 817 179 797 q 142 844 164 836 q 74 851 119 851 q 68 860 68 851 q 74 868 68 868 l 144 867 q 243 864 206 864 q 342 869 283 864 q 403 872 389 872 q 602 826 535 872 q 669 699 669 781 q 631 581 669 636 q 526 488 592 525 q 714 208 638 310 q 849 62 790 107 q 963 17 908 17 m 310 479 q 361 475 333 475 q 494 516 454 475 q 535 651 535 557 q 494 799 535 753 q 390 846 454 846 q 338 841 353 846 q 317 817 322 836 q 310 753 311 799 l 310 479 z "},"Ŕ":{"ha":943,"x_min":61,"x_max":967,"o":"m 963 17 q 967 8 967 17 q 963 0 968 0 l 757 0 q 635 115 722 0 q 426 450 547 229 q 339 440 388 440 q 310 443 326 440 l 310 113 q 316 51 308 71 q 345 24 324 32 q 411 17 367 17 q 417 8 417 17 q 413 0 418 0 q 342 1 367 0 l 242 3 l 140 1 q 68 0 114 0 q 62 8 63 0 q 67 17 61 17 q 138 24 115 17 q 169 51 161 32 q 179 113 178 71 l 179 756 q 172 817 179 797 q 142 844 164 836 q 74 851 119 851 q 68 860 68 851 q 74 868 68 868 l 144 867 q 243 864 206 864 q 342 869 283 864 q 403 872 389 872 q 602 826 535 872 q 669 699 669 781 q 631 581 669 636 q 526 488 592 525 q 714 208 638 310 q 849 62 790 107 q 963 17 908 17 m 310 479 q 361 475 333 475 q 494 516 454 475 q 535 651 535 557 q 494 799 535 753 q 390 846 454 846 q 338 841 353 846 q 317 817 322 836 q 310 753 311 799 l 310 479 m 303 942 q 294 948 297 942 q 296 957 292 954 q 399 1043 346 993 q 431 1071 413 1054 q 463 1097 450 1088 q 507 1092 468 1103 q 577 1067 546 1081 q 594 1050 608 1053 q 306 943 446 1011 l 303 942 z "},"Ř":{"ha":943,"x_min":61,"x_max":967,"o":"m 963 17 q 967 8 967 17 q 963 0 968 0 l 757 0 q 635 115 722 0 q 426 450 547 229 q 339 440 388 440 q 310 443 326 440 l 310 113 q 316 51 308 71 q 345 24 324 32 q 411 17 367 17 q 417 8 417 17 q 413 0 418 0 q 342 1 367 0 l 242 3 l 140 1 q 68 0 114 0 q 62 8 63 0 q 67 17 61 17 q 138 24 115 17 q 169 51 161 32 q 179 113 178 71 l 179 756 q 172 817 179 797 q 142 844 164 836 q 74 851 119 851 q 68 860 68 851 q 74 868 68 868 l 144 867 q 243 864 206 864 q 342 869 283 864 q 403 872 389 872 q 602 826 535 872 q 669 699 669 781 q 631 581 669 636 q 526 488 592 525 q 714 208 638 310 q 849 62 790 107 q 963 17 908 17 m 310 479 q 361 475 333 475 q 494 516 454 475 q 535 651 535 557 q 494 799 535 753 q 390 846 454 846 q 338 841 353 846 q 317 817 322 836 q 310 753 311 799 l 310 479 m 235 1090 l 233 1093 q 237 1099 233 1096 q 243 1100 240 1101 l 382 1038 l 519 1100 q 527 1097 522 1101 q 529 1090 532 1092 l 399 938 q 386 932 394 932 q 372 938 378 932 l 235 1090 z "},"Ŗ":{"ha":943,"x_min":61,"x_max":967,"o":"m 963 17 q 967 8 967 17 q 963 0 968 0 l 757 0 q 635 115 722 0 q 426 450 547 229 q 339 440 388 440 q 310 443 326 440 l 310 113 q 316 51 308 71 q 345 24 324 32 q 411 17 367 17 q 417 8 417 17 q 413 0 418 0 q 342 1 367 0 l 242 3 l 140 1 q 68 0 114 0 q 62 8 63 0 q 67 17 61 17 q 138 24 115 17 q 169 51 161 32 q 179 113 178 71 l 179 756 q 172 817 179 797 q 142 844 164 836 q 74 851 119 851 q 68 860 68 851 q 74 868 68 868 l 144 867 q 243 864 206 864 q 342 869 283 864 q 403 872 389 872 q 602 826 535 872 q 669 699 669 781 q 631 581 669 636 q 526 488 592 525 q 714 208 638 310 q 849 62 790 107 q 963 17 908 17 m 310 479 q 361 475 333 475 q 494 516 454 475 q 535 651 535 557 q 494 799 535 753 q 390 846 454 846 q 338 841 353 846 q 317 817 322 836 q 310 753 311 799 l 310 479 m 507 -103 q 574 -132 551 -103 q 597 -212 597 -161 q 572 -304 597 -264 q 499 -382 546 -344 l 496 -383 q 488 -378 490 -383 q 489 -369 485 -372 q 553 -265 553 -318 q 542 -222 553 -236 q 490 -246 529 -246 q 444 -226 461 -246 q 426 -175 426 -207 q 449 -122 426 -140 q 507 -103 472 -103 z "},"Ṛ":{"ha":943,"x_min":61,"x_max":967,"o":"m 963 17 q 967 8 967 17 q 963 0 968 0 l 757 0 q 635 115 722 0 q 426 450 547 229 q 339 440 388 440 q 310 443 326 440 l 310 113 q 316 51 308 71 q 345 24 324 32 q 411 17 367 17 q 417 8 417 17 q 413 0 418 0 q 342 1 367 0 l 242 3 l 140 1 q 68 0 114 0 q 62 8 63 0 q 67 17 61 17 q 138 24 115 17 q 169 51 161 32 q 179 113 178 71 l 179 756 q 172 817 179 797 q 142 844 164 836 q 74 851 119 851 q 68 860 68 851 q 74 868 68 868 l 144 867 q 243 864 206 864 q 342 869 283 864 q 403 872 389 872 q 602 826 535 872 q 669 699 669 781 q 631 581 669 636 q 526 488 592 525 q 714 208 638 310 q 849 62 790 107 q 963 17 908 17 m 310 479 q 361 475 333 475 q 494 516 454 475 q 535 651 535 557 q 494 799 535 753 q 390 846 454 846 q 338 841 353 846 q 317 817 322 836 q 310 753 311 799 l 310 479 m 508 -279 q 452 -259 472 -279 q 432 -203 432 -239 q 453 -150 432 -169 q 508 -131 474 -131 q 563 -150 543 -131 q 582 -203 582 -169 q 563 -259 582 -239 q 508 -279 543 -279 z "},"Ṝ":{"ha":943,"x_min":61,"x_max":967,"o":"m 963 17 q 967 8 967 17 q 963 0 968 0 l 757 0 q 635 115 722 0 q 426 450 547 229 q 339 440 388 440 q 310 443 326 440 l 310 113 q 316 51 308 71 q 345 24 324 32 q 411 17 367 17 q 417 8 417 17 q 413 0 418 0 q 342 1 367 0 l 242 3 l 140 1 q 68 0 114 0 q 62 8 63 0 q 67 17 61 17 q 138 24 115 17 q 169 51 161 32 q 179 113 178 71 l 179 756 q 172 817 179 797 q 142 844 164 836 q 74 851 119 851 q 68 860 68 851 q 74 868 68 868 l 144 867 q 243 864 206 864 q 342 869 283 864 q 403 872 389 872 q 602 826 535 872 q 669 699 669 781 q 631 581 669 636 q 526 488 592 525 q 714 208 638 310 q 849 62 790 107 q 963 17 908 17 m 310 479 q 361 475 333 475 q 494 516 454 475 q 535 651 535 557 q 494 799 535 753 q 390 846 454 846 q 338 841 353 846 q 317 817 322 836 q 310 753 311 799 l 310 479 m 508 -279 q 452 -259 472 -279 q 432 -203 432 -239 q 453 -150 432 -169 q 508 -131 474 -131 q 563 -150 543 -131 q 582 -203 582 -169 q 563 -259 582 -239 q 508 -279 543 -279 m 226 992 q 215 1017 215 992 q 226 1042 215 1042 l 549 1042 q 558 1034 554 1042 q 561 1017 561 1026 q 558 999 561 1007 q 549 992 554 992 l 226 992 z "},"Ṟ":{"ha":943,"x_min":61,"x_max":967,"o":"m 963 17 q 967 8 967 17 q 963 0 968 0 l 757 0 q 635 115 722 0 q 426 450 547 229 q 339 440 388 440 q 310 443 326 440 l 310 113 q 316 51 308 71 q 345 24 324 32 q 411 17 367 17 q 417 8 417 17 q 413 0 418 0 q 342 1 367 0 l 242 3 l 140 1 q 68 0 114 0 q 62 8 63 0 q 67 17 61 17 q 138 24 115 17 q 169 51 161 32 q 179 113 178 71 l 179 756 q 172 817 179 797 q 142 844 164 836 q 74 851 119 851 q 68 860 68 851 q 74 868 68 868 l 144 867 q 243 864 206 864 q 342 869 283 864 q 403 872 389 872 q 602 826 535 872 q 669 699 669 781 q 631 581 669 636 q 526 488 592 525 q 714 208 638 310 q 849 62 790 107 q 963 17 908 17 m 310 479 q 361 475 333 475 q 494 516 454 475 q 535 651 535 557 q 494 799 535 753 q 390 846 454 846 q 338 841 353 846 q 317 817 322 836 q 310 753 311 799 l 310 479 m 346 -168 q 335 -143 335 -168 q 346 -118 335 -118 l 668 -118 q 677 -126 674 -118 q 681 -143 681 -133 q 677 -160 681 -153 q 668 -168 674 -168 l 346 -168 z "},"S":{"ha":697,"x_min":96,"x_max":631,"o":"m 222 726 q 249 635 222 675 q 313 566 275 594 q 418 494 351 538 q 530 419 488 451 q 601 341 572 388 q 631 233 631 294 q 550 51 631 119 q 338 -17 469 -17 q 215 -1 279 -17 q 119 36 151 14 q 110 46 113 40 q 107 63 108 51 l 97 274 q 103 281 96 279 q 114 276 111 282 q 219 88 158 163 q 372 14 281 14 q 470 47 432 14 q 508 156 508 79 q 480 267 508 219 q 410 347 451 314 q 301 422 369 381 q 199 492 238 463 q 135 564 161 522 q 110 661 110 606 q 150 784 110 733 q 255 859 190 835 q 392 883 319 883 q 487 874 438 883 q 569 851 536 865 q 590 825 590 840 l 593 636 q 585 630 593 632 q 576 633 578 628 q 501 784 551 713 q 360 856 451 856 q 259 819 296 856 q 222 726 222 782 z "},"Ś":{"ha":697,"x_min":97,"x_max":631,"o":"m 222 726 q 249 635 222 675 q 313 566 275 594 q 418 494 351 538 q 530 419 488 451 q 601 341 572 388 q 631 233 631 294 q 550 51 631 119 q 338 -17 469 -17 q 215 -1 279 -17 q 119 36 151 14 q 110 46 113 40 q 107 63 108 51 l 97 274 q 103 281 96 279 q 114 276 111 282 q 219 88 158 163 q 372 14 281 14 q 470 47 432 14 q 508 156 508 79 q 480 267 508 219 q 410 347 451 314 q 301 422 369 381 q 199 492 238 463 q 135 564 161 522 q 110 661 110 606 q 150 784 110 733 q 255 859 190 835 q 392 883 319 883 q 487 874 438 883 q 569 851 536 865 q 590 825 590 840 l 593 636 q 585 630 593 632 q 576 633 578 628 q 501 784 551 713 q 360 856 451 856 q 259 819 296 856 q 222 726 222 782 m 279 942 q 271 948 274 942 q 272 957 268 954 q 375 1043 322 993 q 408 1071 389 1054 q 439 1097 426 1088 q 483 1092 444 1103 q 553 1067 522 1081 q 571 1050 585 1053 q 282 943 422 1011 l 279 942 z "},"Š":{"ha":697,"x_min":97,"x_max":631,"o":"m 222 726 q 249 635 222 675 q 313 566 275 594 q 418 494 351 538 q 530 419 488 451 q 601 341 572 388 q 631 233 631 294 q 550 51 631 119 q 338 -17 469 -17 q 215 -1 279 -17 q 119 36 151 14 q 110 46 113 40 q 107 63 108 51 l 97 274 q 103 281 96 279 q 114 276 111 282 q 219 88 158 163 q 372 14 281 14 q 470 47 432 14 q 508 156 508 79 q 480 267 508 219 q 410 347 451 314 q 301 422 369 381 q 199 492 238 463 q 135 564 161 522 q 110 661 110 606 q 150 784 110 733 q 255 859 190 835 q 392 883 319 883 q 487 874 438 883 q 569 851 536 865 q 590 825 590 840 l 593 636 q 585 630 593 632 q 576 633 578 628 q 501 784 551 713 q 360 856 451 856 q 259 819 296 856 q 222 726 222 782 m 211 1090 l 210 1093 q 213 1099 210 1096 q 219 1100 217 1101 l 358 1038 l 496 1100 q 503 1097 499 1101 q 506 1090 508 1092 l 375 938 q 363 932 371 932 q 349 938 354 932 l 211 1090 z "},"Ş":{"ha":697,"x_min":96,"x_max":631,"o":"m 631 233 q 569 69 631 135 q 401 -12 507 3 q 399 -39 399 -32 q 413 -91 399 -68 q 458 -144 428 -114 q 508 -208 492 -182 q 522 -260 524 -233 q 509 -315 524 -286 q 464 -362 494 -343 q 386 -382 433 -382 q 307 -362 340 -382 q 275 -311 274 -343 q 286 -281 274 -292 q 318 -269 299 -269 q 351 -282 339 -269 q 376 -317 364 -294 q 398 -347 389 -337 q 422 -356 407 -356 q 447 -346 438 -356 q 456 -319 456 -336 q 433 -264 456 -296 q 369 -192 410 -232 q 347 -136 347 -169 q 357 -83 347 -115 l 379 -15 q 338 -17 365 -17 q 215 -1 279 -17 q 119 36 151 14 q 110 46 113 40 q 107 63 108 51 l 97 274 q 103 281 96 279 q 114 276 111 282 q 219 88 158 163 q 372 14 281 14 q 470 47 432 14 q 508 156 508 79 q 480 267 508 219 q 410 347 451 314 q 301 422 369 381 q 199 492 238 463 q 135 564 161 522 q 110 661 110 606 q 150 784 110 733 q 255 859 190 835 q 392 883 319 883 q 487 874 438 883 q 569 851 536 865 q 590 825 590 840 l 593 636 q 585 630 593 632 q 576 633 578 628 q 501 784 551 713 q 360 856 451 856 q 259 819 296 856 q 222 726 222 782 q 249 635 222 675 q 313 566 275 594 q 418 494 351 538 q 530 419 488 451 q 601 341 572 388 q 631 233 631 294 z "},"Ŝ":{"ha":697,"x_min":97,"x_max":631,"o":"m 222 726 q 249 635 222 675 q 313 566 275 594 q 418 494 351 538 q 530 419 488 451 q 601 341 572 388 q 631 233 631 294 q 550 51 631 119 q 338 -17 469 -17 q 215 -1 279 -17 q 119 36 151 14 q 110 46 113 40 q 107 63 108 51 l 97 274 q 103 281 96 279 q 114 276 111 282 q 219 88 158 163 q 372 14 281 14 q 470 47 432 14 q 508 156 508 79 q 480 267 508 219 q 410 347 451 314 q 301 422 369 381 q 199 492 238 463 q 135 564 161 522 q 110 661 110 606 q 150 784 110 733 q 255 859 190 835 q 392 883 319 883 q 487 874 438 883 q 569 851 536 865 q 590 825 590 840 l 593 636 q 585 630 593 632 q 576 633 578 628 q 501 784 551 713 q 360 856 451 856 q 259 819 296 856 q 222 726 222 782 m 228 917 q 220 920 224 917 q 219 926 217 924 l 350 1078 q 361 1085 354 1085 q 375 1078 368 1085 l 514 926 l 514 924 q 511 917 514 919 q 506 917 508 914 l 367 978 l 229 917 l 228 917 z "},"Ș":{"ha":697,"x_min":97,"x_max":631,"o":"m 222 726 q 249 635 222 675 q 313 566 275 594 q 418 494 351 538 q 530 419 488 451 q 601 341 572 388 q 631 233 631 294 q 550 51 631 119 q 338 -17 469 -17 q 215 -1 279 -17 q 119 36 151 14 q 110 46 113 40 q 107 63 108 51 l 97 274 q 103 281 96 279 q 114 276 111 282 q 219 88 158 163 q 372 14 281 14 q 470 47 432 14 q 508 156 508 79 q 480 267 508 219 q 410 347 451 314 q 301 422 369 381 q 199 492 238 463 q 135 564 161 522 q 110 661 110 606 q 150 784 110 733 q 255 859 190 835 q 392 883 319 883 q 487 874 438 883 q 569 851 536 865 q 590 825 590 840 l 593 636 q 585 630 593 632 q 576 633 578 628 q 501 784 551 713 q 360 856 451 856 q 259 819 296 856 q 222 726 222 782 m 379 -103 q 447 -132 424 -103 q 469 -212 469 -161 q 444 -304 469 -264 q 371 -382 418 -344 l 368 -383 q 360 -378 363 -383 q 361 -369 357 -372 q 425 -265 425 -318 q 414 -222 425 -236 q 363 -246 401 -246 q 316 -226 333 -246 q 299 -175 299 -207 q 322 -122 299 -140 q 379 -103 344 -103 z "},"Ṡ":{"ha":697,"x_min":97,"x_max":631,"o":"m 222 726 q 249 635 222 675 q 313 566 275 594 q 418 494 351 538 q 530 419 488 451 q 601 341 572 388 q 631 233 631 294 q 550 51 631 119 q 338 -17 469 -17 q 215 -1 279 -17 q 119 36 151 14 q 110 46 113 40 q 107 63 108 51 l 97 274 q 103 281 96 279 q 114 276 111 282 q 219 88 158 163 q 372 14 281 14 q 470 47 432 14 q 508 156 508 79 q 480 267 508 219 q 410 347 451 314 q 301 422 369 381 q 199 492 238 463 q 135 564 161 522 q 110 661 110 606 q 150 784 110 733 q 255 859 190 835 q 392 883 319 883 q 487 874 438 883 q 569 851 536 865 q 590 825 590 840 l 593 636 q 585 630 593 632 q 576 633 578 628 q 501 784 551 713 q 360 856 451 856 q 259 819 296 856 q 222 726 222 782 m 365 988 q 309 1008 329 988 q 289 1064 289 1029 q 310 1117 289 1097 q 365 1138 331 1138 q 419 1117 400 1138 q 439 1064 439 1097 q 419 1008 439 1028 q 365 988 400 988 z "},"Ṣ":{"ha":697,"x_min":97,"x_max":631,"o":"m 222 726 q 249 635 222 675 q 313 566 275 594 q 418 494 351 538 q 530 419 488 451 q 601 341 572 388 q 631 233 631 294 q 550 51 631 119 q 338 -17 469 -17 q 215 -1 279 -17 q 119 36 151 14 q 110 46 113 40 q 107 63 108 51 l 97 274 q 103 281 96 279 q 114 276 111 282 q 219 88 158 163 q 372 14 281 14 q 470 47 432 14 q 508 156 508 79 q 480 267 508 219 q 410 347 451 314 q 301 422 369 381 q 199 492 238 463 q 135 564 161 522 q 110 661 110 606 q 150 784 110 733 q 255 859 190 835 q 392 883 319 883 q 487 874 438 883 q 569 851 536 865 q 590 825 590 840 l 593 636 q 585 630 593 632 q 576 633 578 628 q 501 784 551 713 q 360 856 451 856 q 259 819 296 856 q 222 726 222 782 m 381 -279 q 324 -259 344 -279 q 304 -203 304 -239 q 325 -150 304 -169 q 381 -131 346 -131 q 435 -150 415 -131 q 454 -203 454 -169 q 435 -259 454 -239 q 381 -279 415 -279 z "},"ẞ":{"ha":975,"x_min":13,"x_max":933,"o":"m 654 -17 q 478 31 551 -17 q 463 57 465 38 l 450 213 l 450 214 q 458 221 450 221 q 467 215 465 221 q 583 80 507 138 q 719 22 658 22 q 796 59 769 22 q 822 151 822 96 q 757 314 822 239 q 571 465 692 389 q 561 475 563 471 q 564 486 560 479 l 722 726 q 547 797 636 771 q 397 824 457 824 q 317 804 346 824 q 277 737 289 785 q 264 601 265 689 l 264 113 q 272 51 264 71 q 300 24 279 31 q 364 17 321 17 q 370 8 369 17 q 365 0 371 0 l 197 1 l 19 0 q 13 8 14 0 q 18 17 13 17 q 89 24 65 17 q 122 51 113 32 q 131 113 131 71 l 131 531 q 178 705 132 624 q 310 835 225 786 q 507 883 394 883 q 626 871 565 883 q 757 838 686 858 q 785 832 779 832 q 810 841 797 832 q 840 874 824 850 q 844 876 840 876 q 852 872 849 876 q 854 865 856 868 l 649 558 q 865 392 797 469 q 933 229 933 314 q 900 109 933 165 q 803 18 867 53 q 654 -17 740 -17 z "},"Ə":{"ha":888,"x_min":65,"x_max":831,"o":"m 393 883 q 653 819 556 883 q 791 658 751 756 q 831 450 831 561 q 770 200 831 306 q 608 39 710 94 q 381 -17 506 -17 q 203 22 275 -17 q 99 116 132 60 q 65 226 65 172 q 69 240 65 236 q 82 243 74 243 l 658 246 q 671 400 671 313 q 597 733 669 607 q 390 858 524 858 q 231 806 308 858 q 99 651 153 754 q 93 649 96 649 q 84 651 89 649 q 81 657 79 654 l 128 899 q 136 903 128 903 q 144 901 140 903 q 147 896 149 899 q 146 882 146 890 q 171 853 146 853 q 186 856 175 853 q 300 877 254 871 q 393 883 346 883 m 432 15 q 653 217 604 15 l 215 213 q 285 69 228 124 q 432 15 343 15 z "},"T":{"ha":828,"x_min":33,"x_max":797,"o":"m 228 0 q 224 8 224 0 q 226 17 224 17 q 310 24 283 17 q 346 51 336 31 q 354 113 356 71 l 354 756 q 340 822 356 806 q 279 839 325 839 l 256 839 q 120 781 176 839 q 51 628 64 722 q 44 625 51 625 q 37 627 40 625 q 35 631 33 629 q 56 899 42 681 q 63 903 56 903 q 70 901 67 903 q 74 897 74 900 q 136 868 74 868 q 418 864 249 864 q 589 867 494 864 l 686 868 q 753 875 732 868 q 779 903 774 882 q 790 906 782 907 q 796 900 797 906 q 788 751 792 840 q 785 631 783 661 q 776 626 785 626 q 765 632 765 626 q 715 782 767 725 q 578 839 663 839 l 553 839 q 507 832 521 839 q 489 808 493 825 q 483 753 485 790 l 486 113 q 495 50 486 69 q 530 24 504 31 q 613 17 556 17 q 617 8 617 17 q 613 0 617 0 q 536 1 564 0 l 419 3 l 308 1 q 228 0 279 0 z "},"Ŧ":{"ha":828,"x_min":33,"x_max":797,"o":"m 779 903 q 790 906 782 907 q 796 900 797 906 q 788 751 792 840 q 785 631 783 661 q 776 626 785 626 q 765 632 765 626 q 715 782 767 725 q 578 839 663 839 l 553 839 q 507 832 521 839 q 489 808 493 825 q 483 753 485 790 l 485 467 l 610 467 q 617 449 617 467 q 615 436 617 442 q 610 431 613 431 l 485 431 l 486 113 q 495 50 486 69 q 530 24 504 31 q 613 17 556 17 q 617 8 617 17 q 613 0 617 0 q 536 1 564 0 l 419 3 l 308 1 q 228 0 279 0 q 224 8 224 0 q 226 17 224 17 q 310 24 283 17 q 346 51 336 31 q 354 113 356 71 l 354 431 l 228 431 q 224 436 226 431 q 222 449 222 442 q 224 461 222 456 q 228 467 225 467 l 354 467 l 354 756 q 340 822 356 806 q 279 839 325 839 l 256 839 q 120 781 176 839 q 51 628 64 722 q 44 625 51 625 q 37 627 40 625 q 35 631 33 629 q 56 899 42 681 q 63 903 56 903 q 70 901 67 903 q 74 897 74 900 q 136 868 74 868 q 418 864 249 864 q 589 867 494 864 l 686 868 q 753 875 732 868 q 779 903 774 882 z "},"Ť":{"ha":828,"x_min":35,"x_max":796,"o":"m 228 0 q 224 8 224 0 q 226 17 224 17 q 310 24 283 17 q 346 51 336 31 q 354 113 356 71 l 354 756 q 340 822 356 806 q 279 839 325 839 l 256 839 q 120 781 176 839 q 51 628 64 722 q 44 625 51 625 q 37 627 40 625 q 35 631 33 629 q 56 899 42 681 q 63 903 56 903 q 70 901 67 903 q 74 897 74 900 q 136 868 74 868 q 418 864 249 864 q 589 867 494 864 l 686 868 q 753 875 732 868 q 779 903 774 882 q 790 906 782 907 q 796 900 797 906 q 788 751 792 840 q 785 631 783 661 q 776 626 785 626 q 765 632 765 626 q 715 782 767 725 q 578 839 663 839 l 553 839 q 507 832 521 839 q 489 808 493 825 q 483 753 485 790 l 486 113 q 495 50 486 69 q 530 24 504 31 q 613 17 556 17 q 617 8 617 17 q 613 0 617 0 q 536 1 564 0 l 419 3 l 308 1 q 228 0 279 0 m 263 1090 l 261 1093 q 265 1099 261 1096 q 271 1100 268 1101 l 410 1038 l 547 1100 q 555 1097 550 1101 q 557 1090 560 1092 l 426 938 q 414 932 422 932 q 400 938 406 932 l 263 1090 z "},"Ţ":{"ha":828,"x_min":33,"x_max":797,"o":"m 779 903 q 790 906 782 907 q 796 900 797 906 q 788 751 792 840 q 785 631 783 661 q 776 626 785 626 q 765 632 765 626 q 715 782 767 725 q 578 839 663 839 l 553 839 q 507 832 521 839 q 489 808 493 825 q 483 753 485 790 l 486 113 q 495 50 486 69 q 530 24 504 31 q 613 17 556 17 q 617 8 617 17 q 613 0 617 0 q 542 1 567 0 l 435 3 q 431 -43 431 -25 q 442 -94 431 -74 q 483 -144 454 -115 q 533 -208 517 -182 q 547 -260 549 -233 q 534 -315 549 -286 q 489 -362 519 -343 q 411 -382 458 -382 q 332 -362 365 -382 q 300 -311 299 -343 q 311 -281 299 -292 q 343 -269 324 -269 q 376 -282 364 -269 q 401 -317 389 -294 q 423 -347 414 -337 q 447 -356 432 -356 q 472 -346 463 -356 q 481 -319 481 -336 q 458 -264 481 -296 q 394 -192 435 -232 q 372 -136 372 -169 q 382 -83 372 -115 l 410 3 l 304 1 q 228 0 276 0 q 224 8 224 0 q 226 17 224 17 q 310 24 283 17 q 346 51 336 31 q 354 113 356 71 l 354 756 q 340 822 356 806 q 279 839 325 839 l 256 839 q 120 781 176 839 q 51 628 64 722 q 44 625 51 625 q 37 627 40 625 q 35 631 33 629 q 56 899 42 681 q 63 903 56 903 q 70 901 67 903 q 74 897 74 900 q 136 868 74 868 q 418 864 249 864 q 589 867 494 864 l 686 868 q 753 875 732 868 q 779 903 774 882 z "},"Ț":{"ha":828,"x_min":35,"x_max":796,"o":"m 228 0 q 224 8 224 0 q 226 17 224 17 q 310 24 283 17 q 346 51 336 31 q 354 113 356 71 l 354 756 q 340 822 356 806 q 279 839 325 839 l 256 839 q 120 781 176 839 q 51 628 64 722 q 44 625 51 625 q 37 627 40 625 q 35 631 33 629 q 56 899 42 681 q 63 903 56 903 q 70 901 67 903 q 74 897 74 900 q 136 868 74 868 q 418 864 249 864 q 589 867 494 864 l 686 868 q 753 875 732 868 q 779 903 774 882 q 790 906 782 907 q 796 900 797 906 q 788 751 792 840 q 785 631 783 661 q 776 626 785 626 q 765 632 765 626 q 715 782 767 725 q 578 839 663 839 l 553 839 q 507 832 521 839 q 489 808 493 825 q 483 753 485 790 l 486 113 q 495 50 486 69 q 530 24 504 31 q 613 17 556 17 q 617 8 617 17 q 613 0 617 0 q 536 1 564 0 l 419 3 l 308 1 q 228 0 279 0 m 419 -103 q 487 -132 464 -103 q 510 -212 510 -161 q 484 -304 510 -264 q 411 -382 458 -344 l 408 -383 q 400 -378 403 -383 q 401 -369 397 -372 q 465 -265 465 -318 q 454 -222 465 -236 q 403 -246 442 -246 q 356 -226 374 -246 q 339 -175 339 -207 q 362 -122 339 -140 q 419 -103 385 -103 z "},"Ṭ":{"ha":828,"x_min":35,"x_max":796,"o":"m 228 0 q 224 8 224 0 q 226 17 224 17 q 310 24 283 17 q 346 51 336 31 q 354 113 356 71 l 354 756 q 340 822 356 806 q 279 839 325 839 l 256 839 q 120 781 176 839 q 51 628 64 722 q 44 625 51 625 q 37 627 40 625 q 35 631 33 629 q 56 899 42 681 q 63 903 56 903 q 70 901 67 903 q 74 897 74 900 q 136 868 74 868 q 418 864 249 864 q 589 867 494 864 l 686 868 q 753 875 732 868 q 779 903 774 882 q 790 906 782 907 q 796 900 797 906 q 788 751 792 840 q 785 631 783 661 q 776 626 785 626 q 765 632 765 626 q 715 782 767 725 q 578 839 663 839 l 553 839 q 507 832 521 839 q 489 808 493 825 q 483 753 485 790 l 486 113 q 495 50 486 69 q 530 24 504 31 q 613 17 556 17 q 617 8 617 17 q 613 0 617 0 q 536 1 564 0 l 419 3 l 308 1 q 228 0 279 0 m 421 -279 q 365 -259 385 -279 q 344 -203 344 -239 q 365 -150 344 -169 q 421 -131 386 -131 q 475 -150 456 -131 q 494 -203 494 -169 q 475 -259 494 -239 q 421 -279 456 -279 z "},"Ṯ":{"ha":828,"x_min":35,"x_max":796,"o":"m 228 0 q 224 8 224 0 q 226 17 224 17 q 310 24 283 17 q 346 51 336 31 q 354 113 356 71 l 354 756 q 340 822 356 806 q 279 839 325 839 l 256 839 q 120 781 176 839 q 51 628 64 722 q 44 625 51 625 q 37 627 40 625 q 35 631 33 629 q 56 899 42 681 q 63 903 56 903 q 70 901 67 903 q 74 897 74 900 q 136 868 74 868 q 418 864 249 864 q 589 867 494 864 l 686 868 q 753 875 732 868 q 779 903 774 882 q 790 906 782 907 q 796 900 797 906 q 788 751 792 840 q 785 631 783 661 q 776 626 785 626 q 765 632 765 626 q 715 782 767 725 q 578 839 663 839 l 553 839 q 507 832 521 839 q 489 808 493 825 q 483 753 485 790 l 486 113 q 495 50 486 69 q 530 24 504 31 q 613 17 556 17 q 617 8 617 17 q 613 0 617 0 q 536 1 564 0 l 419 3 l 308 1 q 228 0 279 0 m 258 -168 q 247 -143 247 -168 q 258 -118 247 -118 l 581 -118 q 590 -126 586 -118 q 593 -143 593 -133 q 590 -160 593 -153 q 581 -168 586 -168 l 258 -168 z "},"U":{"ha":1067,"x_min":39,"x_max":1018,"o":"m 1014 17 q 1018 8 1018 17 q 1014 0 1018 0 l 883 1 l 788 0 q 769 4 772 0 q 765 26 765 8 l 765 99 q 626 10 694 38 q 476 -17 557 -17 q 304 17 381 -17 q 185 113 228 50 q 142 258 142 175 l 142 756 q 134 817 142 797 q 106 844 126 836 q 43 851 86 851 q 39 860 39 851 q 43 868 39 868 l 108 867 q 204 864 167 864 q 303 867 242 864 l 369 868 q 376 860 375 868 q 372 851 376 851 q 307 843 328 851 q 279 815 286 835 q 271 753 272 794 l 271 307 q 336 103 269 176 q 522 31 403 31 q 644 54 588 31 q 765 135 701 78 l 764 753 q 758 815 765 794 q 729 843 750 835 q 667 851 708 851 q 663 860 663 851 q 665 868 663 868 l 733 867 q 829 864 792 864 q 925 867 864 864 l 993 868 q 999 860 999 868 q 996 851 1000 851 q 931 844 951 851 q 902 817 910 836 q 894 756 894 797 l 894 113 q 903 51 894 71 q 936 24 911 31 q 1014 17 961 17 z "},"Ú":{"ha":1067,"x_min":39,"x_max":1018,"o":"m 1014 17 q 1018 8 1018 17 q 1014 0 1018 0 l 883 1 l 788 0 q 769 4 772 0 q 765 26 765 8 l 765 99 q 626 10 694 38 q 476 -17 557 -17 q 304 17 381 -17 q 185 113 228 50 q 142 258 142 175 l 142 756 q 134 817 142 797 q 106 844 126 836 q 43 851 86 851 q 39 860 39 851 q 43 868 39 868 l 108 867 q 204 864 167 864 q 303 867 242 864 l 369 868 q 376 860 375 868 q 372 851 376 851 q 307 843 328 851 q 279 815 286 835 q 271 753 272 794 l 271 307 q 336 103 269 176 q 522 31 403 31 q 644 54 588 31 q 765 135 701 78 l 764 753 q 758 815 765 794 q 729 843 750 835 q 667 851 708 851 q 663 860 663 851 q 665 868 663 868 l 733 867 q 829 864 792 864 q 925 867 864 864 l 993 868 q 999 860 999 868 q 996 851 1000 851 q 931 844 951 851 q 902 817 910 836 q 894 756 894 797 l 894 113 q 903 51 894 71 q 936 24 911 31 q 1014 17 961 17 m 432 942 q 424 948 426 942 q 425 957 421 954 q 528 1043 475 993 q 560 1071 542 1054 q 592 1097 579 1088 q 636 1092 597 1103 q 706 1067 675 1081 q 724 1050 738 1053 q 435 943 575 1011 l 432 942 z "},"Ŭ":{"ha":1067,"x_min":39,"x_max":1018,"o":"m 1014 17 q 1018 8 1018 17 q 1014 0 1018 0 l 883 1 l 788 0 q 769 4 772 0 q 765 26 765 8 l 765 99 q 626 10 694 38 q 476 -17 557 -17 q 304 17 381 -17 q 185 113 228 50 q 142 258 142 175 l 142 756 q 134 817 142 797 q 106 844 126 836 q 43 851 86 851 q 39 860 39 851 q 43 868 39 868 l 108 867 q 204 864 167 864 q 303 867 242 864 l 369 868 q 376 860 375 868 q 372 851 376 851 q 307 843 328 851 q 279 815 286 835 q 271 753 272 794 l 271 307 q 336 103 269 176 q 522 31 403 31 q 644 54 588 31 q 765 135 701 78 l 764 753 q 758 815 765 794 q 729 843 750 835 q 667 851 708 851 q 663 860 663 851 q 665 868 663 868 l 733 867 q 829 864 792 864 q 925 867 864 864 l 993 868 q 999 860 999 868 q 996 851 1000 851 q 931 844 951 851 q 902 817 910 836 q 894 756 894 797 l 894 113 q 903 51 894 71 q 936 24 911 31 q 1014 17 961 17 m 517 924 q 433 958 471 924 q 383 1054 396 992 q 408 1069 382 1063 q 460 1076 435 1076 q 481 1072 479 1076 q 511 1015 490 1035 q 557 994 532 994 q 600 1013 581 994 q 629 1067 619 1032 q 638 1071 632 1071 q 649 1068 643 1071 q 653 1063 654 1065 q 601 960 639 996 q 517 924 563 924 z "},"Ǔ":{"ha":1067,"x_min":39,"x_max":1018,"o":"m 1014 17 q 1018 8 1018 17 q 1014 0 1018 0 l 883 1 l 788 0 q 769 4 772 0 q 765 26 765 8 l 765 99 q 626 10 694 38 q 476 -17 557 -17 q 304 17 381 -17 q 185 113 228 50 q 142 258 142 175 l 142 756 q 134 817 142 797 q 106 844 126 836 q 43 851 86 851 q 39 860 39 851 q 43 868 39 868 l 108 867 q 204 864 167 864 q 303 867 242 864 l 369 868 q 376 860 375 868 q 372 851 376 851 q 307 843 328 851 q 279 815 286 835 q 271 753 272 794 l 271 307 q 336 103 269 176 q 522 31 403 31 q 644 54 588 31 q 765 135 701 78 l 764 753 q 758 815 765 794 q 729 843 750 835 q 667 851 708 851 q 663 860 663 851 q 665 868 663 868 l 733 867 q 829 864 792 864 q 925 867 864 864 l 993 868 q 999 860 999 868 q 996 851 1000 851 q 931 844 951 851 q 902 817 910 836 q 894 756 894 797 l 894 113 q 903 51 894 71 q 936 24 911 31 q 1014 17 961 17 m 364 1090 l 363 1093 q 366 1099 363 1096 q 372 1100 369 1101 l 511 1038 l 649 1100 q 656 1097 651 1101 q 658 1090 661 1092 l 528 938 q 515 932 524 932 q 501 938 507 932 l 364 1090 z "},"Û":{"ha":1067,"x_min":39,"x_max":1018,"o":"m 1014 17 q 1018 8 1018 17 q 1014 0 1018 0 l 883 1 l 788 0 q 769 4 772 0 q 765 26 765 8 l 765 99 q 626 10 694 38 q 476 -17 557 -17 q 304 17 381 -17 q 185 113 228 50 q 142 258 142 175 l 142 756 q 134 817 142 797 q 106 844 126 836 q 43 851 86 851 q 39 860 39 851 q 43 868 39 868 l 108 867 q 204 864 167 864 q 303 867 242 864 l 369 868 q 376 860 375 868 q 372 851 376 851 q 307 843 328 851 q 279 815 286 835 q 271 753 272 794 l 271 307 q 336 103 269 176 q 522 31 403 31 q 644 54 588 31 q 765 135 701 78 l 764 753 q 758 815 765 794 q 729 843 750 835 q 667 851 708 851 q 663 860 663 851 q 665 868 663 868 l 733 867 q 829 864 792 864 q 925 867 864 864 l 993 868 q 999 860 999 868 q 996 851 1000 851 q 931 844 951 851 q 902 817 910 836 q 894 756 894 797 l 894 113 q 903 51 894 71 q 936 24 911 31 q 1014 17 961 17 m 381 917 q 373 920 376 917 q 372 926 369 924 l 503 1078 q 514 1085 507 1085 q 528 1078 521 1085 l 667 926 l 667 924 q 664 917 667 919 q 658 917 661 914 l 519 978 l 382 917 l 381 917 z "},"Ü":{"ha":1067,"x_min":39,"x_max":1018,"o":"m 1014 17 q 1018 8 1018 17 q 1014 0 1018 0 l 883 1 l 788 0 q 769 4 772 0 q 765 26 765 8 l 765 99 q 626 10 694 38 q 476 -17 557 -17 q 304 17 381 -17 q 185 113 228 50 q 142 258 142 175 l 142 756 q 134 817 142 797 q 106 844 126 836 q 43 851 86 851 q 39 860 39 851 q 43 868 39 868 l 108 867 q 204 864 167 864 q 303 867 242 864 l 369 868 q 376 860 375 868 q 372 851 376 851 q 307 843 328 851 q 279 815 286 835 q 271 753 272 794 l 271 307 q 336 103 269 176 q 522 31 403 31 q 644 54 588 31 q 765 135 701 78 l 764 753 q 758 815 765 794 q 729 843 750 835 q 667 851 708 851 q 663 860 663 851 q 665 868 663 868 l 733 867 q 829 864 792 864 q 925 867 864 864 l 993 868 q 999 860 999 868 q 996 851 1000 851 q 931 844 951 851 q 902 817 910 836 q 894 756 894 797 l 894 113 q 903 51 894 71 q 936 24 911 31 q 1014 17 961 17 m 400 983 q 349 1001 368 983 q 329 1053 329 1019 q 349 1101 329 1083 q 400 1119 368 1119 q 450 1102 432 1119 q 468 1053 468 1085 q 450 1001 468 1019 q 400 983 432 983 m 633 983 q 583 1001 601 983 q 564 1053 564 1019 q 583 1101 564 1083 q 633 1119 601 1119 q 683 1102 665 1119 q 700 1053 700 1085 q 683 1001 700 1019 q 633 983 665 983 z "},"Ǘ":{"ha":1067,"x_min":39,"x_max":1018,"o":"m 1014 17 q 1018 8 1018 17 q 1014 0 1018 0 l 883 1 l 788 0 q 769 4 772 0 q 765 26 765 8 l 765 99 q 626 10 694 38 q 476 -17 557 -17 q 304 17 381 -17 q 185 113 228 50 q 142 258 142 175 l 142 756 q 134 817 142 797 q 106 844 126 836 q 43 851 86 851 q 39 860 39 851 q 43 868 39 868 l 108 867 q 204 864 167 864 q 303 867 242 864 l 369 868 q 376 860 375 868 q 372 851 376 851 q 307 843 328 851 q 279 815 286 835 q 271 753 272 794 l 271 307 q 336 103 269 176 q 522 31 403 31 q 644 54 588 31 q 765 135 701 78 l 764 753 q 758 815 765 794 q 729 843 750 835 q 667 851 708 851 q 663 860 663 851 q 665 868 663 868 l 733 867 q 829 864 792 864 q 925 867 864 864 l 993 868 q 999 860 999 868 q 996 851 1000 851 q 931 844 951 851 q 902 817 910 836 q 894 756 894 797 l 894 113 q 903 51 894 71 q 936 24 911 31 q 1014 17 961 17 m 403 951 q 351 969 371 951 q 332 1021 332 988 q 351 1069 332 1051 q 403 1088 371 1088 q 453 1070 435 1088 q 471 1021 471 1053 q 453 969 471 988 q 403 951 435 951 m 636 951 q 585 969 604 951 q 567 1021 567 988 q 585 1069 567 1051 q 636 1088 604 1088 q 685 1070 668 1088 q 703 1021 703 1053 q 685 969 703 988 q 636 951 668 951 m 379 1117 q 371 1123 374 1117 q 372 1132 368 1129 q 475 1218 422 1168 q 508 1246 489 1229 q 539 1272 526 1263 q 583 1267 544 1278 q 653 1242 622 1256 q 671 1225 685 1228 q 382 1118 522 1186 l 379 1117 z "},"Ǚ":{"ha":1067,"x_min":39,"x_max":1018,"o":"m 1014 17 q 1018 8 1018 17 q 1014 0 1018 0 l 883 1 l 788 0 q 769 4 772 0 q 765 26 765 8 l 765 99 q 626 10 694 38 q 476 -17 557 -17 q 304 17 381 -17 q 185 113 228 50 q 142 258 142 175 l 142 756 q 134 817 142 797 q 106 844 126 836 q 43 851 86 851 q 39 860 39 851 q 43 868 39 868 l 108 867 q 204 864 167 864 q 303 867 242 864 l 369 868 q 376 860 375 868 q 372 851 376 851 q 307 843 328 851 q 279 815 286 835 q 271 753 272 794 l 271 307 q 336 103 269 176 q 522 31 403 31 q 644 54 588 31 q 765 135 701 78 l 764 753 q 758 815 765 794 q 729 843 750 835 q 667 851 708 851 q 663 860 663 851 q 665 868 663 868 l 733 867 q 829 864 792 864 q 925 867 864 864 l 993 868 q 999 860 999 868 q 996 851 1000 851 q 931 844 951 851 q 902 817 910 836 q 894 756 894 797 l 894 113 q 903 51 894 71 q 936 24 911 31 q 1014 17 961 17 m 400 951 q 349 969 368 951 q 329 1021 329 988 q 349 1069 329 1051 q 400 1088 368 1088 q 450 1070 432 1088 q 468 1021 468 1053 q 450 969 468 988 q 400 951 432 951 m 633 951 q 583 969 601 951 q 564 1021 564 988 q 583 1069 564 1051 q 633 1088 601 1088 q 683 1070 665 1088 q 700 1021 700 1053 q 683 969 700 988 q 633 951 665 951 m 378 1107 q 370 1110 375 1106 q 368 1117 365 1115 l 499 1269 q 511 1276 506 1276 q 525 1269 518 1276 l 661 1117 q 660 1110 664 1115 q 654 1107 657 1106 l 515 1169 l 378 1107 z "},"Ǜ":{"ha":1067,"x_min":39,"x_max":1018,"o":"m 1014 17 q 1018 8 1018 17 q 1014 0 1018 0 l 883 1 l 788 0 q 769 4 772 0 q 765 26 765 8 l 765 99 q 626 10 694 38 q 476 -17 557 -17 q 304 17 381 -17 q 185 113 228 50 q 142 258 142 175 l 142 756 q 134 817 142 797 q 106 844 126 836 q 43 851 86 851 q 39 860 39 851 q 43 868 39 868 l 108 867 q 204 864 167 864 q 303 867 242 864 l 369 868 q 376 860 375 868 q 372 851 376 851 q 307 843 328 851 q 279 815 286 835 q 271 753 272 794 l 271 307 q 336 103 269 176 q 522 31 403 31 q 644 54 588 31 q 765 135 701 78 l 764 753 q 758 815 765 794 q 729 843 750 835 q 667 851 708 851 q 663 860 663 851 q 665 868 663 868 l 733 867 q 829 864 792 864 q 925 867 864 864 l 993 868 q 999 860 999 868 q 996 851 1000 851 q 931 844 951 851 q 902 817 910 836 q 894 756 894 797 l 894 113 q 903 51 894 71 q 936 24 911 31 q 1014 17 961 17 m 401 951 q 350 969 369 951 q 331 1021 331 988 q 350 1069 331 1051 q 401 1088 369 1088 q 451 1070 433 1088 q 469 1021 469 1053 q 451 969 469 988 q 401 951 433 951 m 635 951 q 584 969 603 951 q 565 1021 565 988 q 584 1069 565 1051 q 635 1088 603 1088 q 684 1070 667 1088 q 701 1021 701 1053 q 684 969 701 988 q 635 951 667 951 m 671 1111 q 531 1162 592 1142 q 389 1204 471 1182 q 401 1222 371 1208 q 471 1246 431 1236 q 519 1250 511 1256 q 594 1188 554 1218 q 649 1146 633 1158 l 679 1124 q 682 1118 682 1122 q 678 1112 682 1114 q 671 1111 675 1110 z "},"Ǖ":{"ha":1067,"x_min":39,"x_max":1018,"o":"m 1014 17 q 1018 8 1018 17 q 1014 0 1018 0 l 883 1 l 788 0 q 769 4 772 0 q 765 26 765 8 l 765 99 q 626 10 694 38 q 476 -17 557 -17 q 304 17 381 -17 q 185 113 228 50 q 142 258 142 175 l 142 756 q 134 817 142 797 q 106 844 126 836 q 43 851 86 851 q 39 860 39 851 q 43 868 39 868 l 108 867 q 204 864 167 864 q 303 867 242 864 l 369 868 q 376 860 375 868 q 372 851 376 851 q 307 843 328 851 q 279 815 286 835 q 271 753 272 794 l 271 307 q 336 103 269 176 q 522 31 403 31 q 644 54 588 31 q 765 135 701 78 l 764 753 q 758 815 765 794 q 729 843 750 835 q 667 851 708 851 q 663 860 663 851 q 665 868 663 868 l 733 867 q 829 864 792 864 q 925 867 864 864 l 993 868 q 999 860 999 868 q 996 851 1000 851 q 931 844 951 851 q 902 817 910 836 q 894 756 894 797 l 894 113 q 903 51 894 71 q 936 24 911 31 q 1014 17 961 17 m 389 951 q 338 969 357 951 q 318 1021 318 988 q 338 1069 318 1051 q 389 1088 357 1088 q 439 1070 421 1088 q 457 1021 457 1053 q 439 969 457 988 q 389 951 421 951 m 622 951 q 572 969 590 951 q 553 1021 553 988 q 572 1069 553 1051 q 622 1088 590 1088 q 672 1070 654 1088 q 689 1021 689 1053 q 672 969 689 988 q 622 951 654 951 m 339 1146 q 331 1153 333 1146 q 328 1171 328 1161 q 331 1188 328 1181 q 339 1196 333 1196 l 661 1196 q 670 1188 667 1196 q 674 1171 674 1181 q 670 1153 674 1161 q 661 1146 667 1146 l 339 1146 z "},"Ụ":{"ha":1067,"x_min":39,"x_max":1018,"o":"m 1014 17 q 1018 8 1018 17 q 1014 0 1018 0 l 883 1 l 788 0 q 769 4 772 0 q 765 26 765 8 l 765 99 q 626 10 694 38 q 476 -17 557 -17 q 304 17 381 -17 q 185 113 228 50 q 142 258 142 175 l 142 756 q 134 817 142 797 q 106 844 126 836 q 43 851 86 851 q 39 860 39 851 q 43 868 39 868 l 108 867 q 204 864 167 864 q 303 867 242 864 l 369 868 q 376 860 375 868 q 372 851 376 851 q 307 843 328 851 q 279 815 286 835 q 271 753 272 794 l 271 307 q 336 103 269 176 q 522 31 403 31 q 644 54 588 31 q 765 135 701 78 l 764 753 q 758 815 765 794 q 729 843 750 835 q 667 851 708 851 q 663 860 663 851 q 665 868 663 868 l 733 867 q 829 864 792 864 q 925 867 864 864 l 993 868 q 999 860 999 868 q 996 851 1000 851 q 931 844 951 851 q 902 817 910 836 q 894 756 894 797 l 894 113 q 903 51 894 71 q 936 24 911 31 q 1014 17 961 17 m 536 -279 q 480 -259 500 -279 q 460 -203 460 -239 q 481 -150 460 -169 q 536 -131 501 -131 q 590 -150 571 -131 q 610 -203 610 -169 q 590 -259 610 -239 q 536 -279 571 -279 z "},"Ù":{"ha":1067,"x_min":39,"x_max":1018,"o":"m 1014 17 q 1018 8 1018 17 q 1014 0 1018 0 l 883 1 l 788 0 q 769 4 772 0 q 765 26 765 8 l 765 99 q 626 10 694 38 q 476 -17 557 -17 q 304 17 381 -17 q 185 113 228 50 q 142 258 142 175 l 142 756 q 134 817 142 797 q 106 844 126 836 q 43 851 86 851 q 39 860 39 851 q 43 868 39 868 l 108 867 q 204 864 167 864 q 303 867 242 864 l 369 868 q 376 860 375 868 q 372 851 376 851 q 307 843 328 851 q 279 815 286 835 q 271 753 272 794 l 271 307 q 336 103 269 176 q 522 31 403 31 q 644 54 588 31 q 765 135 701 78 l 764 753 q 758 815 765 794 q 729 843 750 835 q 667 851 708 851 q 663 860 663 851 q 665 868 663 868 l 733 867 q 829 864 792 864 q 925 867 864 864 l 993 868 q 999 860 999 868 q 996 851 1000 851 q 931 844 951 851 q 902 817 910 836 q 894 756 894 797 l 894 113 q 903 51 894 71 q 936 24 911 31 q 1014 17 961 17 m 657 957 q 517 1008 578 988 q 375 1050 457 1028 q 387 1068 357 1054 q 457 1092 417 1082 q 506 1096 497 1101 q 580 1034 540 1064 q 635 992 619 1004 l 665 969 q 668 964 668 968 q 665 958 668 960 q 657 957 661 956 z "},"Ủ":{"ha":1067,"x_min":39,"x_max":1018,"o":"m 1014 17 q 1018 8 1018 17 q 1014 0 1018 0 l 883 1 l 788 0 q 769 4 772 0 q 765 26 765 8 l 765 99 q 626 10 694 38 q 476 -17 557 -17 q 304 17 381 -17 q 185 113 228 50 q 142 258 142 175 l 142 756 q 134 817 142 797 q 106 844 126 836 q 43 851 86 851 q 39 860 39 851 q 43 868 39 868 l 108 867 q 204 864 167 864 q 303 867 242 864 l 369 868 q 376 860 375 868 q 372 851 376 851 q 307 843 328 851 q 279 815 286 835 q 271 753 272 794 l 271 307 q 336 103 269 176 q 522 31 403 31 q 644 54 588 31 q 765 135 701 78 l 764 753 q 758 815 765 794 q 729 843 750 835 q 667 851 708 851 q 663 860 663 851 q 665 868 663 868 l 733 867 q 829 864 792 864 q 925 867 864 864 l 993 868 q 999 860 999 868 q 996 851 1000 851 q 931 844 951 851 q 902 817 910 836 q 894 756 894 797 l 894 113 q 903 51 894 71 q 936 24 911 31 q 1014 17 961 17 m 522 906 q 516 902 524 903 q 507 906 508 901 q 499 953 499 928 q 513 1018 499 976 q 519 1041 514 1022 q 525 1078 525 1060 q 472 1143 525 1143 q 426 1132 449 1143 l 424 1131 q 416 1135 419 1131 q 417 1143 413 1140 q 463 1170 436 1161 q 517 1179 489 1179 q 592 1156 564 1179 q 621 1096 621 1133 q 608 1051 621 1072 q 568 999 594 1029 q 530 949 542 969 q 522 906 518 928 z "},"Ư":{"ha":1067,"x_min":39,"x_max":1107,"o":"m 944 847 q 903 820 913 838 q 894 756 894 803 l 894 113 q 903 51 894 71 q 936 24 911 31 q 1014 17 961 17 q 1018 8 1018 17 q 1014 0 1018 0 l 883 1 l 788 0 q 769 4 772 0 q 765 26 765 8 l 765 99 q 626 10 694 38 q 476 -17 557 -17 q 304 17 381 -17 q 185 113 228 50 q 142 258 142 175 l 142 756 q 134 817 142 797 q 106 844 126 836 q 43 851 86 851 q 39 860 39 851 q 43 868 39 868 l 108 867 q 204 864 167 864 q 303 867 242 864 l 369 868 q 376 860 375 868 q 372 851 376 851 q 307 843 328 851 q 279 815 286 835 q 271 753 272 794 l 271 307 q 336 103 269 175 q 522 31 403 31 q 644 54 588 31 q 765 135 701 78 l 764 753 q 756 815 764 794 q 727 843 749 835 q 660 851 706 851 q 657 857 657 851 q 661 868 657 868 l 732 867 q 828 864 790 864 q 964 878 919 864 q 1008 921 1008 892 q 994 957 1008 935 q 978 1004 978 982 q 996 1047 978 1032 q 1040 1061 1014 1061 q 1089 1039 1071 1061 q 1107 982 1107 1017 q 1083 918 1107 943 q 1032 881 1060 893 q 944 847 1004 868 z "},"Ứ":{"ha":1067,"x_min":39,"x_max":1107,"o":"m 944 847 q 903 820 913 838 q 894 756 894 803 l 894 113 q 903 51 894 71 q 936 24 911 31 q 1014 17 961 17 q 1018 8 1018 17 q 1014 0 1018 0 l 883 1 l 788 0 q 769 4 772 0 q 765 26 765 8 l 765 99 q 626 10 694 38 q 476 -17 557 -17 q 304 17 381 -17 q 185 113 228 50 q 142 258 142 175 l 142 756 q 134 817 142 797 q 106 844 126 836 q 43 851 86 851 q 39 860 39 851 q 43 868 39 868 l 108 867 q 204 864 167 864 q 303 867 242 864 l 369 868 q 376 860 375 868 q 372 851 376 851 q 307 843 328 851 q 279 815 286 835 q 271 753 272 794 l 271 307 q 336 103 269 175 q 522 31 403 31 q 644 54 588 31 q 765 135 701 78 l 764 753 q 756 815 764 794 q 727 843 749 835 q 660 851 706 851 q 657 857 657 851 q 661 868 657 868 l 732 867 q 828 864 790 864 q 964 878 919 864 q 1008 921 1008 892 q 994 957 1008 935 q 978 1004 978 982 q 996 1047 978 1032 q 1040 1061 1014 1061 q 1089 1039 1071 1061 q 1107 982 1107 1017 q 1083 918 1107 943 q 1032 881 1060 893 q 944 847 1004 868 m 410 942 q 401 948 404 942 q 401 957 397 954 q 510 1047 443 986 l 568 1097 q 613 1092 574 1103 q 683 1067 653 1081 q 700 1050 714 1053 q 411 942 540 1007 l 410 942 z "},"Ự":{"ha":1067,"x_min":39,"x_max":1107,"o":"m 944 847 q 903 820 913 838 q 894 756 894 803 l 894 113 q 903 51 894 71 q 936 24 911 31 q 1014 17 961 17 q 1018 8 1018 17 q 1014 0 1018 0 l 883 1 l 788 0 q 769 4 772 0 q 765 26 765 8 l 765 99 q 626 10 694 38 q 476 -17 557 -17 q 304 17 381 -17 q 185 113 228 50 q 142 258 142 175 l 142 756 q 134 817 142 797 q 106 844 126 836 q 43 851 86 851 q 39 860 39 851 q 43 868 39 868 l 108 867 q 204 864 167 864 q 303 867 242 864 l 369 868 q 376 860 375 868 q 372 851 376 851 q 307 843 328 851 q 279 815 286 835 q 271 753 272 794 l 271 307 q 336 103 269 175 q 522 31 403 31 q 644 54 588 31 q 765 135 701 78 l 764 753 q 756 815 764 794 q 727 843 749 835 q 660 851 706 851 q 657 857 657 851 q 661 868 657 868 l 732 867 q 828 864 790 864 q 964 878 919 864 q 1008 921 1008 892 q 994 957 1008 935 q 978 1004 978 982 q 996 1047 978 1032 q 1040 1061 1014 1061 q 1089 1039 1071 1061 q 1107 982 1107 1017 q 1083 918 1107 943 q 1032 881 1060 893 q 944 847 1004 868 m 542 -279 q 485 -259 506 -279 q 465 -203 465 -239 q 486 -150 465 -169 q 542 -131 507 -131 q 596 -150 576 -131 q 615 -203 615 -169 q 596 -259 615 -239 q 542 -279 576 -279 z "},"Ừ":{"ha":1067,"x_min":39,"x_max":1107,"o":"m 944 847 q 903 820 913 838 q 894 756 894 803 l 894 113 q 903 51 894 71 q 936 24 911 31 q 1014 17 961 17 q 1018 8 1018 17 q 1014 0 1018 0 l 883 1 l 788 0 q 769 4 772 0 q 765 26 765 8 l 765 99 q 626 10 694 38 q 476 -17 557 -17 q 304 17 381 -17 q 185 113 228 50 q 142 258 142 175 l 142 756 q 134 817 142 797 q 106 844 126 836 q 43 851 86 851 q 39 860 39 851 q 43 868 39 868 l 108 867 q 204 864 167 864 q 303 867 242 864 l 369 868 q 376 860 375 868 q 372 851 376 851 q 307 843 328 851 q 279 815 286 835 q 271 753 272 794 l 271 307 q 336 103 269 175 q 522 31 403 31 q 644 54 588 31 q 765 135 701 78 l 764 753 q 756 815 764 794 q 727 843 749 835 q 660 851 706 851 q 657 857 657 851 q 661 868 657 868 l 732 867 q 828 864 790 864 q 964 878 919 864 q 1008 921 1008 892 q 994 957 1008 935 q 978 1004 978 982 q 996 1047 978 1032 q 1040 1061 1014 1061 q 1089 1039 1071 1061 q 1107 982 1107 1017 q 1083 918 1107 943 q 1032 881 1060 893 q 944 847 1004 868 m 669 943 q 507 1003 583 978 q 340 1050 431 1029 q 351 1067 325 1053 q 413 1092 376 1081 q 457 1097 449 1103 q 522 1053 489 1078 q 672 957 622 985 q 676 948 678 956 q 669 943 675 940 z "},"Ử":{"ha":1067,"x_min":39,"x_max":1107,"o":"m 944 847 q 903 820 913 838 q 894 756 894 803 l 894 113 q 903 51 894 71 q 936 24 911 31 q 1014 17 961 17 q 1018 8 1018 17 q 1014 0 1018 0 l 883 1 l 788 0 q 769 4 772 0 q 765 26 765 8 l 765 99 q 626 10 694 38 q 476 -17 557 -17 q 304 17 381 -17 q 185 113 228 50 q 142 258 142 175 l 142 756 q 134 817 142 797 q 106 844 126 836 q 43 851 86 851 q 39 860 39 851 q 43 868 39 868 l 108 867 q 204 864 167 864 q 303 867 242 864 l 369 868 q 376 860 375 868 q 372 851 376 851 q 307 843 328 851 q 279 815 286 835 q 271 753 272 794 l 271 307 q 336 103 269 175 q 522 31 403 31 q 644 54 588 31 q 765 135 701 78 l 764 753 q 756 815 764 794 q 727 843 749 835 q 660 851 706 851 q 657 857 657 851 q 661 868 657 868 l 732 867 q 828 864 790 864 q 964 878 919 864 q 1008 921 1008 892 q 994 957 1008 935 q 978 1004 978 982 q 996 1047 978 1032 q 1040 1061 1014 1061 q 1089 1039 1071 1061 q 1107 982 1107 1017 q 1083 918 1107 943 q 1032 881 1060 893 q 944 847 1004 868 m 540 906 q 534 902 542 903 q 525 906 526 901 q 517 953 517 928 q 531 1018 517 976 q 538 1041 532 1022 q 543 1078 543 1060 q 490 1143 543 1143 q 444 1132 467 1143 l 442 1131 q 434 1135 438 1131 q 435 1143 431 1140 q 481 1170 454 1161 q 535 1179 507 1179 q 610 1156 582 1179 q 639 1096 639 1133 q 626 1051 639 1072 q 586 999 613 1029 q 548 949 560 969 q 540 906 536 928 z "},"Ữ":{"ha":1067,"x_min":39,"x_max":1107,"o":"m 944 847 q 903 820 913 838 q 894 756 894 803 l 894 113 q 903 51 894 71 q 936 24 911 31 q 1014 17 961 17 q 1018 8 1018 17 q 1014 0 1018 0 l 883 1 l 788 0 q 769 4 772 0 q 765 26 765 8 l 765 99 q 626 10 694 38 q 476 -17 557 -17 q 304 17 381 -17 q 185 113 228 50 q 142 258 142 175 l 142 756 q 134 817 142 797 q 106 844 126 836 q 43 851 86 851 q 39 860 39 851 q 43 868 39 868 l 108 867 q 204 864 167 864 q 303 867 242 864 l 369 868 q 376 860 375 868 q 372 851 376 851 q 307 843 328 851 q 279 815 286 835 q 271 753 272 794 l 271 307 q 336 103 269 175 q 522 31 403 31 q 644 54 588 31 q 765 135 701 78 l 764 753 q 756 815 764 794 q 727 843 749 835 q 660 851 706 851 q 657 857 657 851 q 661 868 657 868 l 732 867 q 828 864 790 864 q 964 878 919 864 q 1008 921 1008 892 q 994 957 1008 935 q 978 1004 978 982 q 996 1047 978 1032 q 1040 1061 1014 1061 q 1089 1039 1071 1061 q 1107 982 1107 1017 q 1083 918 1107 943 q 1032 881 1060 893 q 944 847 1004 868 m 354 989 q 347 992 351 989 q 344 999 343 996 q 394 1072 367 1042 q 460 1103 421 1103 q 499 1097 475 1103 q 529 1089 522 1090 q 635 1068 600 1068 q 678 1076 663 1068 q 711 1106 694 1085 q 712 1107 711 1107 q 713 1107 713 1107 q 719 1103 715 1107 q 722 1096 724 1099 q 672 1014 694 1035 q 615 993 649 993 q 532 1008 585 993 q 481 1021 508 1015 q 432 1026 454 1026 q 390 1020 403 1026 q 369 1003 378 1014 q 356 989 360 993 l 354 989 z "},"Ű":{"ha":1067,"x_min":39,"x_max":1018,"o":"m 1014 17 q 1018 8 1018 17 q 1014 0 1018 0 l 883 1 l 788 0 q 769 4 772 0 q 765 26 765 8 l 765 99 q 626 10 694 38 q 476 -17 557 -17 q 304 17 381 -17 q 185 113 228 50 q 142 258 142 175 l 142 756 q 134 817 142 797 q 106 844 126 836 q 43 851 86 851 q 39 860 39 851 q 43 868 39 868 l 108 867 q 204 864 167 864 q 303 867 242 864 l 369 868 q 376 860 375 868 q 372 851 376 851 q 307 843 328 851 q 279 815 286 835 q 271 753 272 794 l 271 307 q 336 103 269 176 q 522 31 403 31 q 644 54 588 31 q 765 135 701 78 l 764 753 q 758 815 765 794 q 729 843 750 835 q 667 851 708 851 q 663 860 663 851 q 665 868 663 868 l 733 867 q 829 864 792 864 q 925 867 864 864 l 993 868 q 999 860 999 868 q 996 851 1000 851 q 931 844 951 851 q 902 817 910 836 q 894 756 894 797 l 894 113 q 903 51 894 71 q 936 24 911 31 q 1014 17 961 17 m 374 928 q 368 934 369 928 q 371 943 367 940 l 422 1000 q 515 1107 485 1068 q 529 1110 517 1110 q 576 1101 546 1110 q 623 1083 606 1093 q 628 1068 640 1074 l 592 1050 q 472 989 519 1015 q 376 929 424 963 l 374 928 m 560 928 q 553 934 556 928 q 556 943 551 940 q 701 1107 643 1033 q 714 1110 703 1110 q 761 1101 732 1110 q 808 1083 790 1093 q 814 1068 825 1074 q 563 929 669 1001 l 560 928 z "},"Ū":{"ha":1067,"x_min":39,"x_max":1018,"o":"m 1014 17 q 1018 8 1018 17 q 1014 0 1018 0 l 883 1 l 788 0 q 769 4 772 0 q 765 26 765 8 l 765 99 q 626 10 694 38 q 476 -17 557 -17 q 304 17 381 -17 q 185 113 228 50 q 142 258 142 175 l 142 756 q 134 817 142 797 q 106 844 126 836 q 43 851 86 851 q 39 860 39 851 q 43 868 39 868 l 108 867 q 204 864 167 864 q 303 867 242 864 l 369 868 q 376 860 375 868 q 372 851 376 851 q 307 843 328 851 q 279 815 286 835 q 271 753 272 794 l 271 307 q 336 103 269 176 q 522 31 403 31 q 644 54 588 31 q 765 135 701 78 l 764 753 q 758 815 765 794 q 729 843 750 835 q 667 851 708 851 q 663 860 663 851 q 665 868 663 868 l 733 867 q 829 864 792 864 q 925 867 864 864 l 993 868 q 999 860 999 868 q 996 851 1000 851 q 931 844 951 851 q 902 817 910 836 q 894 756 894 797 l 894 113 q 903 51 894 71 q 936 24 911 31 q 1014 17 961 17 m 354 992 q 346 999 349 992 q 343 1017 343 1007 q 346 1034 343 1026 q 354 1042 349 1042 l 676 1042 q 685 1034 682 1042 q 689 1017 689 1026 q 685 999 689 1007 q 676 992 682 992 l 354 992 z "},"Ų":{"ha":1067,"x_min":39,"x_max":1018,"o":"m 1014 17 q 1018 8 1018 17 q 1014 0 1018 0 l 883 1 l 788 0 q 729 -99 750 -51 q 708 -196 708 -146 q 733 -290 708 -253 q 804 -328 758 -328 q 869 -297 842 -328 l 871 -297 q 881 -302 876 -297 q 881 -310 885 -307 q 818 -365 849 -349 q 750 -382 788 -382 q 649 -341 688 -382 q 610 -239 610 -300 q 651 -123 611 -181 q 768 7 692 -65 q 765 26 765 11 l 765 99 q 626 10 694 38 q 476 -17 557 -17 q 304 17 381 -17 q 185 113 228 50 q 142 258 142 175 l 142 756 q 134 817 142 797 q 106 844 126 836 q 43 851 86 851 q 39 860 39 851 q 43 868 39 868 l 108 867 q 204 864 167 864 q 303 867 242 864 l 369 868 q 376 860 375 868 q 372 851 376 851 q 307 843 328 851 q 279 815 286 835 q 271 753 272 794 l 271 307 q 336 103 269 176 q 522 31 403 31 q 644 54 588 31 q 765 135 701 78 l 764 753 q 758 815 765 794 q 729 843 750 835 q 667 851 708 851 q 663 860 663 851 q 665 868 663 868 l 733 867 q 829 864 792 864 q 925 867 864 864 l 993 868 q 999 860 999 868 q 996 851 1000 851 q 931 844 951 851 q 902 817 910 836 q 894 756 894 797 l 894 113 q 903 51 894 71 q 936 24 911 31 q 1014 17 961 17 z "},"Ů":{"ha":1067,"x_min":39,"x_max":1018,"o":"m 1014 17 q 1018 8 1018 17 q 1014 0 1018 0 l 883 1 l 788 0 q 769 4 772 0 q 765 26 765 8 l 765 99 q 626 10 694 38 q 476 -17 557 -17 q 304 17 381 -17 q 185 113 228 50 q 142 258 142 175 l 142 756 q 134 817 142 797 q 106 844 126 836 q 43 851 86 851 q 39 860 39 851 q 43 868 39 868 l 108 867 q 204 864 167 864 q 303 867 242 864 l 369 868 q 376 860 375 868 q 372 851 376 851 q 307 843 328 851 q 279 815 286 835 q 271 753 272 794 l 271 307 q 336 103 269 176 q 522 31 403 31 q 644 54 588 31 q 765 135 701 78 l 764 753 q 758 815 765 794 q 729 843 750 835 q 667 851 708 851 q 663 860 663 851 q 665 868 663 868 l 733 867 q 829 864 792 864 q 925 867 864 864 l 993 868 q 999 860 999 868 q 996 851 1000 851 q 931 844 951 851 q 902 817 910 836 q 894 756 894 797 l 894 113 q 903 51 894 71 q 936 24 911 31 q 1014 17 961 17 m 507 918 q 406 951 443 918 q 368 1029 368 983 q 415 1108 368 1079 q 521 1136 463 1136 q 619 1104 578 1136 q 660 1026 660 1072 q 613 948 660 978 q 507 918 567 918 m 529 936 q 569 1001 569 936 q 547 1083 569 1049 q 493 1118 525 1118 q 465 1103 474 1118 q 456 1057 456 1089 q 476 974 456 1011 q 529 936 496 936 z "},"Ũ":{"ha":1067,"x_min":39,"x_max":1018,"o":"m 1014 17 q 1018 8 1018 17 q 1014 0 1018 0 l 883 1 l 788 0 q 769 4 772 0 q 765 26 765 8 l 765 99 q 626 10 694 38 q 476 -17 557 -17 q 304 17 381 -17 q 185 113 228 50 q 142 258 142 175 l 142 756 q 134 817 142 797 q 106 844 126 836 q 43 851 86 851 q 39 860 39 851 q 43 868 39 868 l 108 867 q 204 864 167 864 q 303 867 242 864 l 369 868 q 376 860 375 868 q 372 851 376 851 q 307 843 328 851 q 279 815 286 835 q 271 753 272 794 l 271 307 q 336 103 269 176 q 522 31 403 31 q 644 54 588 31 q 765 135 701 78 l 764 753 q 758 815 765 794 q 729 843 750 835 q 667 851 708 851 q 663 860 663 851 q 665 868 663 868 l 733 867 q 829 864 792 864 q 925 867 864 864 l 993 868 q 999 860 999 868 q 996 851 1000 851 q 931 844 951 851 q 902 817 910 836 q 894 756 894 797 l 894 113 q 903 51 894 71 q 936 24 911 31 q 1014 17 961 17 m 350 957 q 347 956 350 956 q 341 960 344 956 q 339 967 338 964 q 451 1071 389 1071 q 522 1056 471 1071 q 564 1045 531 1054 q 626 1036 597 1036 q 670 1044 654 1036 q 704 1074 686 1053 l 706 1074 q 713 1070 708 1074 q 715 1064 717 1067 q 663 981 686 1001 q 607 960 640 960 q 525 976 583 960 q 475 989 501 983 q 426 994 449 994 q 382 987 394 994 q 350 957 369 979 z "},"V":{"ha":896,"x_min":-14,"x_max":908,"o":"m 901 868 q 908 860 908 868 q 901 851 908 851 q 815 824 851 851 q 750 717 779 797 l 481 1 q 463 -6 478 -6 q 442 1 444 -6 l 103 753 q 55 829 79 807 q -8 851 31 851 q -13 860 -12 851 q -10 868 -14 868 l 58 867 q 126 864 106 864 q 238 867 176 864 l 303 868 q 310 860 310 868 q 303 851 310 851 q 245 842 265 851 q 225 807 225 832 q 235 767 225 790 l 506 168 l 707 722 q 717 771 717 747 q 688 831 717 810 q 606 851 658 851 q 600 860 600 851 q 606 868 600 868 l 672 867 q 774 864 728 864 q 839 867 800 864 l 901 868 z "},"W":{"ha":1251,"x_min":-14,"x_max":1264,"o":"m 1257 868 q 1264 860 1264 868 q 1257 851 1264 851 q 1172 824 1207 851 q 1106 717 1136 797 l 835 1 q 817 -4 833 -4 q 797 1 799 -4 l 624 385 l 481 1 q 461 -4 479 -4 q 442 1 443 -4 l 103 753 q 55 829 79 807 q -8 851 31 851 q -14 860 -14 851 q -10 868 -14 868 l 58 867 q 126 864 106 864 q 221 867 168 864 l 278 868 q 283 860 283 868 q 278 851 283 851 q 221 810 221 851 q 232 767 221 790 l 504 163 l 603 432 l 457 753 q 413 830 433 808 q 360 851 392 851 q 355 860 356 851 q 357 868 354 868 q 421 865 376 868 l 482 864 q 553 867 514 864 l 594 868 q 601 860 601 868 q 594 851 601 851 q 570 848 578 851 q 563 835 563 844 q 586 767 563 821 l 674 572 l 729 722 q 749 803 749 774 q 735 840 749 828 q 690 851 721 851 q 688 860 688 851 q 690 868 688 868 l 732 867 q 794 864 765 864 q 854 867 818 864 l 906 868 q 912 860 911 868 q 907 851 913 851 q 834 825 864 851 q 774 717 804 799 l 699 518 l 858 164 l 1063 722 q 1072 775 1072 750 q 1049 831 1072 811 q 982 851 1026 851 q 978 860 978 851 q 982 868 978 868 l 1040 867 q 1128 864 1088 864 q 1194 867 1156 864 l 1257 868 z "},"Ẃ":{"ha":1251,"x_min":-14,"x_max":1264,"o":"m 1257 868 q 1264 860 1264 868 q 1257 851 1264 851 q 1172 824 1207 851 q 1106 717 1136 797 l 835 1 q 817 -4 833 -4 q 797 1 799 -4 l 624 385 l 481 1 q 461 -4 479 -4 q 442 1 443 -4 l 103 753 q 55 829 79 807 q -8 851 31 851 q -14 860 -14 851 q -10 868 -14 868 l 58 867 q 126 864 106 864 q 221 867 168 864 l 278 868 q 283 860 283 868 q 278 851 283 851 q 221 810 221 851 q 232 767 221 790 l 504 163 l 603 432 l 457 753 q 413 830 433 808 q 360 851 392 851 q 355 860 356 851 q 357 868 354 868 q 421 865 376 868 l 482 864 q 553 867 514 864 l 594 868 q 601 860 601 868 q 594 851 601 851 q 570 848 578 851 q 563 835 563 844 q 586 767 563 821 l 674 572 l 729 722 q 749 803 749 774 q 735 840 749 828 q 690 851 721 851 q 688 860 688 851 q 690 868 688 868 l 732 867 q 794 864 765 864 q 854 867 818 864 l 906 868 q 912 860 911 868 q 907 851 913 851 q 834 825 864 851 q 774 717 804 799 l 699 518 l 858 164 l 1063 722 q 1072 775 1072 750 q 1049 831 1072 811 q 982 851 1026 851 q 978 860 978 851 q 982 868 978 868 l 1040 867 q 1128 864 1088 864 q 1194 867 1156 864 l 1257 868 m 538 942 q 529 948 532 942 q 531 957 526 954 q 633 1043 581 993 q 666 1071 647 1054 q 697 1097 685 1088 q 742 1092 703 1103 q 812 1067 781 1081 q 829 1050 843 1053 q 540 943 681 1011 l 538 942 z "},"Ŵ":{"ha":1251,"x_min":-14,"x_max":1264,"o":"m 1257 868 q 1264 860 1264 868 q 1257 851 1264 851 q 1172 824 1207 851 q 1106 717 1136 797 l 835 1 q 817 -4 833 -4 q 797 1 799 -4 l 624 385 l 481 1 q 461 -4 479 -4 q 442 1 443 -4 l 103 753 q 55 829 79 807 q -8 851 31 851 q -14 860 -14 851 q -10 868 -14 868 l 58 867 q 126 864 106 864 q 221 867 168 864 l 278 868 q 283 860 283 868 q 278 851 283 851 q 221 810 221 851 q 232 767 221 790 l 504 163 l 603 432 l 457 753 q 413 830 433 808 q 360 851 392 851 q 355 860 356 851 q 357 868 354 868 q 421 865 376 868 l 482 864 q 553 867 514 864 l 594 868 q 601 860 601 868 q 594 851 601 851 q 570 848 578 851 q 563 835 563 844 q 586 767 563 821 l 674 572 l 729 722 q 749 803 749 774 q 735 840 749 828 q 690 851 721 851 q 688 860 688 851 q 690 868 688 868 l 732 867 q 794 864 765 864 q 854 867 818 864 l 906 868 q 912 860 911 868 q 907 851 913 851 q 834 825 864 851 q 774 717 804 799 l 699 518 l 858 164 l 1063 722 q 1072 775 1072 750 q 1049 831 1072 811 q 982 851 1026 851 q 978 860 978 851 q 982 868 978 868 l 1040 867 q 1128 864 1088 864 q 1194 867 1156 864 l 1257 868 m 486 917 q 478 920 482 917 q 478 926 475 924 l 608 1078 q 619 1085 613 1085 q 633 1078 626 1085 l 772 926 l 772 924 q 769 917 772 919 q 764 917 767 914 l 625 978 l 488 917 l 486 917 z "},"Ẅ":{"ha":1251,"x_min":-14,"x_max":1264,"o":"m 1257 868 q 1264 860 1264 868 q 1257 851 1264 851 q 1172 824 1207 851 q 1106 717 1136 797 l 835 1 q 817 -4 833 -4 q 797 1 799 -4 l 624 385 l 481 1 q 461 -4 479 -4 q 442 1 443 -4 l 103 753 q 55 829 79 807 q -8 851 31 851 q -14 860 -14 851 q -10 868 -14 868 l 58 867 q 126 864 106 864 q 221 867 168 864 l 278 868 q 283 860 283 868 q 278 851 283 851 q 221 810 221 851 q 232 767 221 790 l 504 163 l 603 432 l 457 753 q 413 830 433 808 q 360 851 392 851 q 355 860 356 851 q 357 868 354 868 q 421 865 376 868 l 482 864 q 553 867 514 864 l 594 868 q 601 860 601 868 q 594 851 601 851 q 570 848 578 851 q 563 835 563 844 q 586 767 563 821 l 674 572 l 729 722 q 749 803 749 774 q 735 840 749 828 q 690 851 721 851 q 688 860 688 851 q 690 868 688 868 l 732 867 q 794 864 765 864 q 854 867 818 864 l 906 868 q 912 860 911 868 q 907 851 913 851 q 834 825 864 851 q 774 717 804 799 l 699 518 l 858 164 l 1063 722 q 1072 775 1072 750 q 1049 831 1072 811 q 982 851 1026 851 q 978 860 978 851 q 982 868 978 868 l 1040 867 q 1128 864 1088 864 q 1194 867 1156 864 l 1257 868 m 506 983 q 454 1001 474 983 q 435 1053 435 1019 q 454 1101 435 1083 q 506 1119 474 1119 q 556 1102 538 1119 q 574 1053 574 1085 q 556 1001 574 1019 q 506 983 538 983 m 739 983 q 688 1001 707 983 q 669 1053 669 1019 q 688 1101 669 1083 q 739 1119 707 1119 q 788 1102 771 1119 q 806 1053 806 1085 q 788 1001 806 1019 q 739 983 771 983 z "},"Ẁ":{"ha":1251,"x_min":-14,"x_max":1264,"o":"m 1257 868 q 1264 860 1264 868 q 1257 851 1264 851 q 1172 824 1207 851 q 1106 717 1136 797 l 835 1 q 817 -4 833 -4 q 797 1 799 -4 l 624 385 l 481 1 q 461 -4 479 -4 q 442 1 443 -4 l 103 753 q 55 829 79 807 q -8 851 31 851 q -14 860 -14 851 q -10 868 -14 868 l 58 867 q 126 864 106 864 q 221 867 168 864 l 278 868 q 283 860 283 868 q 278 851 283 851 q 221 810 221 851 q 232 767 221 790 l 504 163 l 603 432 l 457 753 q 413 830 433 808 q 360 851 392 851 q 355 860 356 851 q 357 868 354 868 q 421 865 376 868 l 482 864 q 553 867 514 864 l 594 868 q 601 860 601 868 q 594 851 601 851 q 570 848 578 851 q 563 835 563 844 q 586 767 563 821 l 674 572 l 729 722 q 749 803 749 774 q 735 840 749 828 q 690 851 721 851 q 688 860 688 851 q 690 868 688 868 l 732 867 q 794 864 765 864 q 854 867 818 864 l 906 868 q 912 860 911 868 q 907 851 913 851 q 834 825 864 851 q 774 717 804 799 l 699 518 l 858 164 l 1063 722 q 1072 775 1072 750 q 1049 831 1072 811 q 982 851 1026 851 q 978 860 978 851 q 982 868 978 868 l 1040 867 q 1128 864 1088 864 q 1194 867 1156 864 l 1257 868 m 763 957 q 623 1008 683 988 q 481 1050 563 1028 q 492 1068 463 1054 q 563 1092 522 1082 q 611 1096 603 1101 q 685 1034 646 1064 q 740 992 725 1004 l 771 969 q 774 964 774 968 q 770 958 774 960 q 763 957 767 956 z "},"X":{"ha":871,"x_min":-6,"x_max":864,"o":"m 858 17 q 864 8 864 17 q 858 0 864 0 q 799 1 819 0 l 719 3 l 604 1 q 529 0 575 0 q 522 8 522 0 q 529 17 522 17 q 576 25 557 17 q 596 49 596 33 q 588 71 596 58 l 397 381 l 238 139 q 208 68 208 96 q 300 17 208 17 q 304 8 304 17 q 300 0 304 0 q 225 1 253 0 l 117 3 l 56 1 q 1 0 38 0 q -6 8 -6 0 q 1 17 -6 17 q 101 52 49 17 q 203 160 154 88 l 376 415 l 169 753 q 106 829 136 807 q 35 851 76 851 q 31 860 31 851 q 35 868 31 868 l 89 867 q 143 864 125 864 q 263 867 190 864 l 333 868 q 340 860 340 868 q 333 851 340 851 q 295 844 310 851 q 281 822 281 836 q 289 796 281 811 l 460 518 l 594 726 q 624 800 624 769 q 535 851 624 851 q 529 860 529 851 q 533 868 529 868 l 608 867 q 719 864 678 864 q 778 867 739 864 l 832 868 q 839 860 839 868 q 832 851 839 851 q 732 815 785 851 q 629 706 679 778 l 481 483 l 708 115 q 774 39 740 61 q 858 17 807 17 z "},"Y":{"ha":799,"x_min":-17,"x_max":807,"o":"m 800 868 q 807 860 807 868 q 800 851 807 851 q 708 816 751 851 q 622 707 665 781 l 471 432 l 471 113 q 480 50 472 69 q 510 24 488 31 q 582 17 532 17 q 588 8 588 17 q 582 0 588 0 q 510 1 536 0 l 407 3 l 297 1 q 226 0 271 0 q 221 8 221 0 q 226 17 221 17 q 301 24 276 17 q 334 51 325 32 q 342 113 343 71 l 340 417 l 119 753 q 54 828 85 806 q -11 851 24 851 q -17 860 -17 851 q -12 868 -17 868 l 54 867 q 122 864 99 864 q 228 867 158 864 l 297 868 q 301 863 301 868 q 299 855 301 858 q 294 851 297 851 q 226 828 226 851 q 240 796 226 815 l 451 469 l 590 729 q 607 788 607 761 q 586 834 607 817 q 528 851 565 851 q 522 860 522 851 q 526 868 522 868 l 597 867 q 699 864 661 864 q 753 867 722 864 l 800 868 z "},"Ý":{"ha":799,"x_min":-17,"x_max":807,"o":"m 800 868 q 807 860 807 868 q 800 851 807 851 q 708 816 751 851 q 622 707 665 781 l 471 432 l 471 113 q 480 50 472 69 q 510 24 488 31 q 582 17 532 17 q 588 8 588 17 q 582 0 588 0 q 510 1 536 0 l 407 3 l 297 1 q 226 0 271 0 q 221 8 221 0 q 226 17 221 17 q 301 24 276 17 q 334 51 325 32 q 342 113 343 71 l 340 417 l 119 753 q 54 828 85 806 q -11 851 24 851 q -17 860 -17 851 q -12 868 -17 868 l 54 867 q 122 864 99 864 q 228 867 158 864 l 297 868 q 301 863 301 868 q 299 855 301 858 q 294 851 297 851 q 226 828 226 851 q 240 796 226 815 l 451 469 l 590 729 q 607 788 607 761 q 586 834 607 817 q 528 851 565 851 q 522 860 522 851 q 526 868 522 868 l 597 867 q 699 864 661 864 q 753 867 722 864 l 800 868 m 321 942 q 313 948 315 942 q 314 957 310 954 q 417 1043 364 993 q 449 1071 431 1054 q 481 1097 468 1088 q 525 1092 486 1103 q 595 1067 564 1081 q 613 1050 626 1053 q 324 943 464 1011 l 321 942 z "},"Ŷ":{"ha":799,"x_min":-17,"x_max":807,"o":"m 800 868 q 807 860 807 868 q 800 851 807 851 q 708 816 751 851 q 622 707 665 781 l 471 432 l 471 113 q 480 50 472 69 q 510 24 488 31 q 582 17 532 17 q 588 8 588 17 q 582 0 588 0 q 510 1 536 0 l 407 3 l 297 1 q 226 0 271 0 q 221 8 221 0 q 226 17 221 17 q 301 24 276 17 q 334 51 325 32 q 342 113 343 71 l 340 417 l 119 753 q 54 828 85 806 q -11 851 24 851 q -17 860 -17 851 q -12 868 -17 868 l 54 867 q 122 864 99 864 q 228 867 158 864 l 297 868 q 301 863 301 868 q 299 855 301 858 q 294 851 297 851 q 226 828 226 851 q 240 796 226 815 l 451 469 l 590 729 q 607 788 607 761 q 586 834 607 817 q 528 851 565 851 q 522 860 522 851 q 526 868 522 868 l 597 867 q 699 864 661 864 q 753 867 722 864 l 800 868 m 269 917 q 262 920 265 917 q 261 926 258 924 l 392 1078 q 403 1085 396 1085 q 417 1078 410 1085 l 556 926 l 556 924 q 553 917 556 919 q 547 917 550 914 l 408 978 l 271 917 l 269 917 z "},"Ÿ":{"ha":799,"x_min":-17,"x_max":807,"o":"m 800 868 q 807 860 807 868 q 800 851 807 851 q 708 816 751 851 q 622 707 665 781 l 471 432 l 471 113 q 480 50 472 69 q 510 24 488 31 q 582 17 532 17 q 588 8 588 17 q 582 0 588 0 q 510 1 536 0 l 407 3 l 297 1 q 226 0 271 0 q 221 8 221 0 q 226 17 221 17 q 301 24 276 17 q 334 51 325 32 q 342 113 343 71 l 340 417 l 119 753 q 54 828 85 806 q -11 851 24 851 q -17 860 -17 851 q -12 868 -17 868 l 54 867 q 122 864 99 864 q 228 867 158 864 l 297 868 q 301 863 301 868 q 299 855 301 858 q 294 851 297 851 q 226 828 226 851 q 240 796 226 815 l 451 469 l 590 729 q 607 788 607 761 q 586 834 607 817 q 528 851 565 851 q 522 860 522 851 q 526 868 522 868 l 597 867 q 699 864 661 864 q 753 867 722 864 l 800 868 m 289 983 q 238 1001 257 983 q 218 1053 218 1019 q 238 1101 218 1083 q 289 1119 257 1119 q 339 1102 321 1119 q 357 1053 357 1085 q 339 1001 357 1019 q 289 983 321 983 m 522 983 q 472 1001 490 983 q 453 1053 453 1019 q 472 1101 453 1083 q 522 1119 490 1119 q 572 1102 554 1119 q 589 1053 589 1085 q 572 1001 589 1019 q 522 983 554 983 z "},"Ẏ":{"ha":799,"x_min":-17,"x_max":807,"o":"m 800 868 q 807 860 807 868 q 800 851 807 851 q 708 816 751 851 q 622 707 665 781 l 471 432 l 471 113 q 480 50 472 69 q 510 24 488 31 q 582 17 532 17 q 588 8 588 17 q 582 0 588 0 q 510 1 536 0 l 407 3 l 297 1 q 226 0 271 0 q 221 8 221 0 q 226 17 221 17 q 301 24 276 17 q 334 51 325 32 q 342 113 343 71 l 340 417 l 119 753 q 54 828 85 806 q -11 851 24 851 q -17 860 -17 851 q -12 868 -17 868 l 54 867 q 122 864 99 864 q 228 867 158 864 l 297 868 q 301 863 301 868 q 299 855 301 858 q 294 851 297 851 q 226 828 226 851 q 240 796 226 815 l 451 469 l 590 729 q 607 788 607 761 q 586 834 607 817 q 528 851 565 851 q 522 860 522 851 q 526 868 522 868 l 597 867 q 699 864 661 864 q 753 867 722 864 l 800 868 m 407 988 q 351 1008 371 988 q 331 1064 331 1029 q 351 1117 331 1097 q 407 1138 372 1138 q 461 1117 442 1138 q 481 1064 481 1097 q 461 1008 481 1028 q 407 988 442 988 z "},"Ỵ":{"ha":799,"x_min":-17,"x_max":807,"o":"m 800 868 q 807 860 807 868 q 800 851 807 851 q 708 816 751 851 q 622 707 665 781 l 471 432 l 471 113 q 480 50 472 69 q 510 24 488 31 q 582 17 532 17 q 588 8 588 17 q 582 0 588 0 q 510 1 536 0 l 407 3 l 297 1 q 226 0 271 0 q 221 8 221 0 q 226 17 221 17 q 301 24 276 17 q 334 51 325 32 q 342 113 343 71 l 340 417 l 119 753 q 54 828 85 806 q -11 851 24 851 q -17 860 -17 851 q -12 868 -17 868 l 54 867 q 122 864 99 864 q 228 867 158 864 l 297 868 q 301 863 301 868 q 299 855 301 858 q 294 851 297 851 q 226 828 226 851 q 240 796 226 815 l 451 469 l 590 729 q 607 788 607 761 q 586 834 607 817 q 528 851 565 851 q 522 860 522 851 q 526 868 522 868 l 597 867 q 699 864 661 864 q 753 867 722 864 l 800 868 m 410 -279 q 353 -259 374 -279 q 333 -203 333 -239 q 354 -150 333 -169 q 410 -131 375 -131 q 464 -150 444 -131 q 483 -203 483 -169 q 464 -259 483 -239 q 410 -279 444 -279 z "},"Ỳ":{"ha":799,"x_min":-17,"x_max":807,"o":"m 800 868 q 807 860 807 868 q 800 851 807 851 q 708 816 751 851 q 622 707 665 781 l 471 432 l 471 113 q 480 50 472 69 q 510 24 488 31 q 582 17 532 17 q 588 8 588 17 q 582 0 588 0 q 510 1 536 0 l 407 3 l 297 1 q 226 0 271 0 q 221 8 221 0 q 226 17 221 17 q 301 24 276 17 q 334 51 325 32 q 342 113 343 71 l 340 417 l 119 753 q 54 828 85 806 q -11 851 24 851 q -17 860 -17 851 q -12 868 -17 868 l 54 867 q 122 864 99 864 q 228 867 158 864 l 297 868 q 301 863 301 868 q 299 855 301 858 q 294 851 297 851 q 226 828 226 851 q 240 796 226 815 l 451 469 l 590 729 q 607 788 607 761 q 586 834 607 817 q 528 851 565 851 q 522 860 522 851 q 526 868 522 868 l 597 867 q 699 864 661 864 q 753 867 722 864 l 800 868 m 546 957 q 406 1008 467 988 q 264 1050 346 1028 q 276 1068 246 1054 q 346 1092 306 1082 q 394 1096 386 1101 q 469 1034 429 1064 q 524 992 508 1004 l 554 969 q 557 964 557 968 q 553 958 557 960 q 546 957 550 956 z "},"Ỷ":{"ha":799,"x_min":-17,"x_max":807,"o":"m 800 868 q 807 860 807 868 q 800 851 807 851 q 708 816 751 851 q 622 707 665 781 l 471 432 l 471 113 q 480 50 472 69 q 510 24 488 31 q 582 17 532 17 q 588 8 588 17 q 582 0 588 0 q 510 1 536 0 l 407 3 l 297 1 q 226 0 271 0 q 221 8 221 0 q 226 17 221 17 q 301 24 276 17 q 334 51 325 32 q 342 113 343 71 l 340 417 l 119 753 q 54 828 85 806 q -11 851 24 851 q -17 860 -17 851 q -12 868 -17 868 l 54 867 q 122 864 99 864 q 228 867 158 864 l 297 868 q 301 863 301 868 q 299 855 301 858 q 294 851 297 851 q 226 828 226 851 q 240 796 226 815 l 451 469 l 590 729 q 607 788 607 761 q 586 834 607 817 q 528 851 565 851 q 522 860 522 851 q 526 868 522 868 l 597 867 q 699 864 661 864 q 753 867 722 864 l 800 868 m 411 906 q 405 902 413 903 q 396 906 397 901 q 388 953 388 928 q 401 1018 388 976 q 408 1041 403 1022 q 414 1078 414 1060 q 361 1143 414 1143 q 315 1132 338 1143 l 313 1131 q 305 1135 308 1131 q 306 1143 301 1140 q 351 1170 325 1161 q 406 1179 378 1179 q 481 1156 453 1179 q 510 1096 510 1133 q 497 1051 510 1072 q 457 999 483 1029 q 419 949 431 969 q 411 906 407 928 z "}}}
